<svg width="18" height="18" viewBox="0 0 18 18" fill="none" xmlns="http://www.w3.org/2000/svg">
<g id="Group 35">
<path id="+" d="M14 8.40351C14 8.68421 13.894 8.92982 13.682 9.14035C13.5171 9.30409 13.2756 9.39766 12.9576 9.42105C11.662 9.49123 10.6843 9.52632 10.0247 9.52632L10.0601 11.8947C10.2485 12.117 10.3428 12.345 10.3428 12.5789C10.3428 12.7661 10.278 12.9766 10.1484 13.2105C10.0188 13.4327 9.85395 13.6199 9.65371 13.7719C9.45348 13.924 9.25324 14 9.053 14C8.62898 14 8.34629 13.8421 8.20495 13.5263C8.0636 13.1988 7.99293 12.7719 7.99293 12.2456L8.0106 11.193L7.99293 9.59649L5.02473 9.7193C4.73027 9.73099 4.48292 9.62573 4.28269 9.40351C4.09423 9.18129 4 8.92398 4 8.63158C4 8.37427 4.10012 8.15789 4.30035 7.98246C4.51237 7.79532 4.75383 7.69591 5.02473 7.68421L7.97527 7.57895L7.9576 5C7.9576 4.69591 8.05771 4.45614 8.25795 4.2807C8.46996 4.09357 8.72909 4 9.03534 4C9.29446 4 9.51826 4.10526 9.70671 4.31579C9.89517 4.51462 9.9894 4.74269 9.9894 5L10.0071 7.50877C10.4311 7.48538 10.755 7.47369 10.9788 7.47369C11.874 7.4269 12.5512 7.40351 13.0106 7.40351C13.2697 7.40351 13.4994 7.50292 13.6996 7.70175C13.8999 7.90058 14 8.1345 14 8.40351Z" fill="#555E4B"/>
<rect id="Rectangle 37" x="0.75" y="0.75" width="16.5" height="16.5" rx="3.25" stroke="#565F4E" stroke-width="1.5"/>
</g>
</svg>
