<svg width="44" height="44" viewBox="0 0 44 44" fill="none" xmlns="http://www.w3.org/2000/svg">
<g id="Group 131">
<rect id="Rectangle 8" x="1" y="1" width="42" height="42" rx="7" fill="#EFD390" stroke="#565F4E" stroke-width="2"/>
<g id="Mask group" opacity="0.5">
<mask id="mask0_245_70" style="mask-type:alpha" maskUnits="userSpaceOnUse" x="9" y="11" width="24" height="24">
<rect id="Rectangle 36" x="9" y="11" width="24" height="24" fill="#D9D9D9"/>
</mask>
<g mask="url(#mask0_245_70)">
<path id="Vector" d="M18.9834 29.7729C19.4191 29.7729 20.8126 33.0413 21.0731 33.663C21.8013 35.3675 27.8671 30.1048 27.8671 29.0479C27.8671 28.8317 27.7285 28.538 27.5738 28.2109C27.3752 27.7901 27.1493 27.3137 27.1568 26.8718C27.1568 26.0052 27.5916 25.3844 28.2392 24.4576C28.3469 24.3045 28.4603 24.1419 28.5784 23.9698C29.4096 22.755 30 21.3365 30 18.8916C30 16.4468 28.0958 12 22.1789 12C16.1393 12 14.0682 16.266 14.3634 18.8916C14.3634 19.2982 14.4834 19.8443 14.5846 20.3025C14.6567 20.6325 14.7186 20.9166 14.7186 21.0677C14.7186 21.2485 14.2313 21.9506 13.7824 22.5962C13.4488 23.0754 13.1377 23.524 13.0646 23.7029C12.895 24.1218 12.9297 24.7971 14.8292 24.7971C14.8292 25.9258 14.8292 30.2263 16.3492 30.2263C16.9508 30.2263 17.4756 30.0876 17.9441 29.9642C18.3227 29.8638 18.6657 29.7729 18.9834 29.7729ZM16.7071 17.4999C17.2188 15.0006 20.2775 13.3927 24.2134 14.5003C28.421 15.6845 28.5316 20.0002 26.961 21.5C26.5299 21.9113 26.2806 22.2624 26.1419 22.6019C25.8392 22.1639 25.7277 21.5393 25.8008 20.8018C25.8439 20.3656 25.9489 19.9409 26.0791 19.587C26.216 19.2159 26.3556 18.9883 26.4296 18.9022C26.5142 18.8033 26.5789 18.6883 26.62 18.5639C26.6611 18.4394 26.6777 18.3079 26.669 18.1769C26.6603 18.0459 26.6264 17.9179 26.5693 17.8003C26.5121 17.6827 26.4328 17.5777 26.3359 17.4913C26.239 17.405 26.1264 17.3389 26.0045 17.297C25.8825 17.2551 25.7537 17.2381 25.6254 17.2469C25.497 17.2558 25.3717 17.2904 25.2564 17.3488C25.1411 17.4071 25.0383 17.4881 24.9537 17.587C24.6669 17.9217 24.4261 18.3933 24.2462 18.8821C24.1741 19.0776 24.1109 19.2765 24.0569 19.478C23.6132 19.1063 23.1251 18.7936 22.6044 18.5473C22.1395 18.3283 21.6438 18.1647 21.209 18.1322C20.9498 18.1125 20.6935 18.1988 20.4966 18.372C20.2997 18.5452 20.1782 18.7911 20.159 19.0557C20.1397 19.3203 20.2242 19.5818 20.3939 19.7828C20.5636 19.9838 20.8045 20.1078 21.0637 20.1275C21.1753 20.1351 21.432 20.1973 21.7834 20.3637C22.1208 20.5215 22.4872 20.7482 22.818 21.0285C22.9914 21.1748 23.146 21.326 23.2772 21.4809C22.6306 21.3336 21.6185 21.2485 20.1042 21.1213L19.4735 21.0687C16.5984 20.8248 16.4626 18.6965 16.7071 17.4999Z" fill="white"/>
</g>
</g>
</g>
</svg>
