<svg width="44" height="44" viewBox="0 0 44 44" fill="none" xmlns="http://www.w3.org/2000/svg">
<rect x="1" y="1" width="42" height="42" rx="7" fill="#EFD390" stroke="#565F4E" stroke-width="2"/>
<g opacity="0.5">
<mask id="mask0_245_74" style="mask-type:alpha" maskUnits="userSpaceOnUse" x="10" y="11" width="24" height="24">
<rect x="10" y="11" width="24" height="24" fill="#D9D9D9"/>
</mask>
<g mask="url(#mask0_245_74)">
<path d="M24.5865 11.8103C25.248 11.3277 26.2851 11.0945 27.0728 11.5064C27.6809 11.8812 28.3597 12.4359 28.449 13.1865C28.6277 14.2054 28.3597 15.2645 27.8409 16.1024C28.2528 17.4957 28.986 18.7512 28.8782 20.3431C28.718 22.4164 27.502 24.5803 25.4463 25.2777C24.6388 25.4912 23.8695 25.8126 23.0307 25.9217C22.9775 25.9947 22.8868 26.0643 22.8695 26.1374C22.8695 28.5137 22.8695 31.0906 22.6897 33.4866C22.5122 33.844 22.083 34.0238 21.7431 33.8265C21.5815 33.7535 21.4751 33.5946 21.4019 33.432C21.2778 31.0906 21.2962 28.5659 21.2244 26.1374C20.5258 25.6698 19.5433 25.7069 18.7926 25.2777C16.6821 24.4714 15.573 22.2888 15.5196 20.1272C15.6264 18.6769 16.0731 17.3716 16.6462 16.1022C16.3259 15.1218 15.6264 14.0835 16.1275 12.9731C16.5557 11.844 17.7194 11.2186 18.8633 11.2013C19.3819 11.2372 19.7927 11.4518 20.2405 11.6317C21.1523 11.3823 22.1189 10.7719 23.1189 11.2547C23.6388 11.3638 23.96 12.0797 24.5865 11.8105" fill="white"/>
<path d="M23.2451 13.0092C23.4947 13.5104 23.2451 14.5477 24.1049 14.4236C24.6571 13.848 24.5864 12.7052 25.6062 12.6332C26.089 12.5265 26.6075 12.5602 26.9462 12.921C27.3593 13.3492 27.3941 14.0453 27.2329 14.6C27.0379 15.2799 26.2154 15.8171 26.4648 16.5688C27.3407 17.9089 28.0194 19.4811 27.538 21.1996C27.3232 22.7925 25.713 23.9912 24.2836 24.3833C22.1001 24.9021 19.5604 24.7046 17.8804 23.2208C16.8791 22.1463 16.5926 20.6647 16.8061 19.1981C16.9127 17.9264 18.0243 17.0319 17.9698 15.7625C17.486 15.0107 16.8061 14.0837 17.3246 13.1856C17.7365 12.7214 18.2203 12.4534 18.8643 12.5788C19.311 12.7052 19.8109 13.0092 19.9352 13.4711C20.0441 13.9026 20.0616 14.3865 20.5093 14.6336C21.6534 14.5477 20.615 13.1856 21.3667 12.6693C21.9039 12.3292 22.9239 12.3108 23.2451 13.0092Z" fill="white"/>
<path d="M19.2933 27.9432C20.3838 29.339 20.1876 31.5899 19.472 33.0912C18.3986 33.7711 16.9321 33.3431 15.9496 32.7884C14.2323 31.5377 12.9968 29.6045 13.4272 27.3874C13.5699 26.8711 13.8218 26.2433 14.411 26.0646C16.2894 25.582 18.2374 26.2074 19.2931 27.9432M31.4533 27.5125C31.8652 29.5673 30.9891 31.519 29.2187 32.7175C28.0736 33.5402 26.4644 34.0414 25.0513 33.4322C24.1208 32.8973 24.1568 31.6618 24.194 30.6441C24.1754 29.0337 25.5698 27.6389 26.8936 26.9592C28.1629 26.4741 29.7906 26.3859 31.0588 26.923C31.2757 27.0846 31.3651 27.299 31.4533 27.5127" fill="white"/>
<path d="M18.5235 28.9267C18.9341 29.8398 19.0409 31.0187 18.614 31.9319C18.2739 32.5027 17.5221 32.1267 17.0211 32.1106C15.6983 31.68 14.8224 30.3561 14.5705 29.0692C14.4825 28.48 14.5357 27.8348 14.7864 27.3522C16.2182 26.9055 17.7726 27.5854 18.5235 28.9267ZM30.166 28.0337C30.5954 29.0327 30.166 30.1071 29.5941 30.91C28.5743 32.0018 27.2333 32.7363 25.7306 32.2896C25.1587 31.6072 25.5531 30.518 25.7306 29.7474C26.2494 28.6929 27.3224 27.7459 28.5222 27.7274C29.1289 27.7101 29.702 27.7461 30.166 28.0339" fill="white"/>
</g>
</g>
</svg>
