<svg width="44" height="44" viewBox="0 0 44 44" fill="none" xmlns="http://www.w3.org/2000/svg">
<g id="Group 130">
<rect id="Rectangle 7" x="1" y="1" width="42" height="42" rx="7" fill="#EFD390" stroke="#565F4E" stroke-width="2"/>
<g id="Mask group" opacity="0.5">
<mask id="mask0_245_69" style="mask-type:alpha" maskUnits="userSpaceOnUse" x="10" y="10" width="24" height="24">
<rect id="Rectangle 35" x="10" y="10" width="24" height="24" fill="#D9D9D9"/>
</mask>
<g mask="url(#mask0_245_69)">
<path id="Vector" d="M24.223 13.3631C23.273 12.9631 20.923 12.6631 17.873 13.7631C15.773 14.6631 13.323 24.7631 14.173 28.6631C16.273 32.3631 25.923 33.5631 29.923 28.6631C29.423 23.2131 24.673 23.0131 23.723 23.0131C22.773 23.0131 21.773 23.1631 20.623 23.9631C19.673 24.5131 19.273 16.9631 20.473 16.8131C21.673 16.6631 21.023 18.1131 23.173 17.9631C25.323 17.8131 25.623 15.8131 25.573 15.1631C25.573 14.5631 25.173 13.7131 24.223 13.3631Z" fill="white"/>
</g>
</g>
</g>
</svg>
