<svg width="44" height="44" viewBox="0 0 44 44" fill="none" xmlns="http://www.w3.org/2000/svg">
<rect x="1" y="1" width="42" height="42" rx="7" fill="#EFD390" stroke="#565F4E" stroke-width="2"/>
<path opacity="0.5" d="M19.449 33.6759C18.8378 32.6877 21.6523 29.0886 23.2808 28.7758C24.1055 28.6177 24.8478 28.5547 24.9311 28.6364C25.2052 28.9057 20.781 34.2381 20.2833 34.2381C20.0151 34.2381 19.6394 33.985 19.4486 33.6763L19.449 33.6759ZM17.4357 28.5758C16.8619 28.0021 18.1839 26.8012 19.4 26.7924C21.7679 26.7753 22.0277 25.9744 20.1689 24.4221C17.3611 22.0781 17.34 21.7553 19.8151 19.0695C21.628 17.1028 21.9149 16.5366 21.2969 16.1453C20.253 15.4851 19.6311 15.5225 17.54 16.372C15.7008 17.1195 14.4207 17.0103 14.4207 16.1063C14.4207 15.825 15.6435 15.0285 17.1376 14.336L19.855 13.0769L22.1847 14.0758L24.5143 15.0747V13.5188C24.5143 11.7601 26.0507 10.6042 27.6947 11.1262C29.9977 11.8569 29.3351 15.6441 26.9042 15.6441H25.6128L26.7097 17.5036C27.6656 19.1232 28.074 19.3627 29.8793 19.3627C32.9194 19.3627 32.6222 20.7226 29.4287 21.427C27.14 21.9318 26.8177 21.8797 25.9643 20.8664C25.0574 19.7894 24.9861 19.7835 23.9721 20.7011C22.6086 21.935 22.6441 22.353 24.2956 24.5181C25.0518 25.5102 25.5467 26.6446 25.3949 27.0402C24.9733 28.1387 18.2883 29.4285 17.4357 28.5758ZM12.03 24.6751C11.824 24.342 12.9982 24.144 15.1861 24.144C17.1551 24.144 18.6708 24.3751 18.6708 24.6755C18.6708 25.3696 12.4591 25.3696 12.03 24.6755V24.6751ZM12.03 22.0191C11.8296 21.6948 12.6444 21.488 14.1238 21.488C15.4558 21.488 16.5455 21.727 16.5455 22.0191C16.5455 22.712 12.4583 22.712 12.03 22.0191ZM12.03 19.3627C12.2105 19.0707 13.6732 18.8316 15.2801 18.8316C17.093 18.8316 18.0771 19.0332 17.8739 19.3627C17.693 19.6552 16.2308 19.8942 14.6235 19.8942C12.8106 19.8942 11.8264 19.6922 12.03 19.3627Z" fill="white"/>
</svg>
