<svg width="26" height="26" viewBox="0 0 26 26" fill="none" xmlns="http://www.w3.org/2000/svg">
<g id="Frame">
<path id="Vector" d="M14.5674 4.20263C14.4191 4.09404 14.4487 3.96658 14.6267 3.92409L16.5551 3.41423C16.7381 3.36702 16.9309 3.19234 16.9952 3.02711L17.6479 1.21899C17.7122 1.04903 17.8457 1.03959 17.9495 1.18594L19.0473 2.78162C19.1511 2.92797 19.3884 3.05544 19.5813 3.05544L21.5789 3.0932C21.7668 3.0932 21.8212 3.20651 21.7025 3.34813L20.4565 4.84468C20.3428 4.9863 20.2933 5.23652 20.3428 5.40647L20.9213 7.2382C20.9757 7.40343 20.8817 7.49313 20.7037 7.43176L18.8297 6.75666C18.6566 6.69529 18.3896 6.72834 18.2363 6.8322L16.5996 7.92746C16.4464 8.0266 16.3277 7.96995 16.3326 7.78583L16.4216 5.87384C16.4365 5.70389 16.3178 5.46784 16.1695 5.35926L14.5674 4.20263ZM16.1151 10.1227C16.3722 9.9197 16.3277 9.70254 16.0013 9.627L12.5796 8.84332C12.2582 8.76307 11.9072 8.46093 11.7885 8.17295L10.5227 5.03823C10.404 4.74554 10.1667 4.71721 9.99854 4.9863L8.15912 7.85192C7.99101 8.12102 7.57566 8.35234 7.25425 8.36651L3.73366 8.54118C3.41226 8.56007 3.31336 8.76779 3.53093 9.00855L5.81041 11.5579C6.01809 11.7986 6.13182 12.2424 6.04281 12.5493L5.133 15.7878C5.04894 16.0947 5.222 16.2411 5.52362 16.123L8.7871 14.8389C9.08872 14.7209 9.56341 14.7587 9.83042 14.9333L12.7824 16.7556C13.0543 16.9303 13.267 16.817 13.2373 16.5007L12.9653 13.1488C12.9455 12.842 13.1285 12.4265 13.3856 12.2282L16.1151 10.1227ZM3.6051 5.85024L4.69292 6.23736C4.78687 6.2704 4.85115 6.22319 4.81654 6.12405L4.4803 5.06656C4.45558 4.96742 4.4803 4.82107 4.54458 4.74082L5.27145 3.87216C5.33573 3.7919 5.29617 3.72581 5.19233 3.72581L4.03034 3.70221C3.9265 3.70221 3.78805 3.63611 3.72871 3.54641L3.0958 2.61639C3.03152 2.53613 2.95735 2.54085 2.91779 2.63527L2.53211 3.68332C2.50738 3.78246 2.38377 3.8816 2.27993 3.90993L1.17233 4.20735C1.06849 4.23095 1.05366 4.30649 1.13772 4.37258L2.06237 5.04296C2.15631 5.10433 2.21565 5.23652 2.21565 5.3451L2.16126 6.44508C2.15631 6.55366 2.22554 6.58671 2.31454 6.53006L3.25897 5.89745C3.34798 5.83136 3.50126 5.80775 3.6051 5.85024ZM24.516 22.5199L22.108 20.2208L14.5674 12.8514C14.2658 13.1252 14.0433 13.6068 14.0729 13.9797L14.2361 16.732L22.4096 24.5358C22.8843 24.989 23.6013 25.0456 24.0067 24.6632L24.6594 24.0401C25.0501 23.6577 24.9907 22.9731 24.516 22.5199Z" fill="#555E4B"/>
</g>
</svg>
