<svg width="24" height="24" viewBox="0 0 24 24" fill="none" xmlns="http://www.w3.org/2000/svg">
<g id="Mask group">
<mask id="mask0_124_425" style="mask-type:alpha" maskUnits="userSpaceOnUse" x="0" y="0" width="24" height="24">
<rect id="Rectangle 35" width="24" height="24" fill="#D9D9D9"/>
</mask>
<g mask="url(#mask0_124_425)">
<path id="Vector" d="M14.223 3.36314C13.273 2.96313 10.923 2.66313 7.87298 3.76312C5.77298 4.66312 3.32299 14.7631 4.17297 18.6631C6.27297 22.3631 15.923 23.5631 19.923 18.6631C19.423 13.2131 14.673 13.0131 13.723 13.0131C12.773 13.0131 11.773 13.1631 10.623 13.9631C9.67298 14.5131 9.27297 6.96314 10.473 6.81314C11.673 6.66314 11.023 8.11312 13.173 7.96312C15.323 7.81312 15.623 5.81313 15.573 5.16314C15.573 4.56314 15.173 3.71313 14.223 3.36314Z" fill="#555E4B"/>
</g>
</g>
</svg>
