<svg width="24" height="24" viewBox="0 0 24 24" fill="none" xmlns="http://www.w3.org/2000/svg">
<path d="M11.3486 23C11.0624 22.9989 10.7799 22.9326 10.5206 22.8057C10.097 22.6077 9.75678 22.2543 9.5638 21.8118C9.37083 21.3692 9.33836 20.868 9.47248 20.4022L10.8359 15.6667H7.62344C7.21415 15.6672 6.81044 15.5671 6.44467 15.3744C6.07889 15.1816 5.76121 14.9017 5.5171 14.5569C5.27298 14.2121 5.10922 13.8121 5.03893 13.389C4.96864 12.9658 4.99378 12.5312 5.11234 12.1201L7.75358 2.95346C7.91457 2.38648 8.24644 1.8896 8.69936 1.53739C9.15229 1.18517 9.70185 0.996625 10.2655 1.00005H13.4911C13.8577 1.00037 14.2188 1.09384 14.5435 1.27249C14.8683 1.45113 15.1469 1.70963 15.3558 2.02589C15.5646 2.34215 15.6973 2.70677 15.7427 3.08859C15.788 3.47041 15.7446 3.85807 15.6161 4.21846L14.1462 8.33336H16.3795C16.8556 8.33333 17.3227 8.46941 17.7306 8.72699C18.1385 8.98457 18.4719 9.35392 18.6948 9.79536C18.9178 10.2368 19.022 10.7337 18.9961 11.2326C18.9703 11.7314 18.8155 12.2135 18.5482 12.627L12.9583 22.0687C12.7855 22.3527 12.5476 22.5868 12.2664 22.7494C11.9852 22.9121 11.6697 22.9983 11.3486 23Z" fill="#555E4B"/>
</svg>
