<svg width="24" height="24" viewBox="0 0 24 24" fill="none" xmlns="http://www.w3.org/2000/svg">
<g id="Mask group">
<mask id="mask0_124_428" style="mask-type:alpha" maskUnits="userSpaceOnUse" x="0" y="0" width="24" height="24">
<rect id="Rectangle 36" width="24" height="24" fill="#D9D9D9"/>
</mask>
<g mask="url(#mask0_124_428)">
<path id="Vector" d="M9.98337 18.7729C10.4191 18.7729 11.8126 22.0413 12.0731 22.663C12.8013 24.3675 18.8671 19.1048 18.8671 18.0479C18.8671 17.8317 18.7285 17.538 18.5738 17.2109C18.3752 16.7901 18.1493 16.3137 18.1568 15.8718C18.1568 15.0052 18.5916 14.3844 19.2392 13.4576C19.3469 13.3045 19.4603 13.1419 19.5784 12.9698C20.4096 11.755 21 10.3365 21 7.89165C21 5.44681 19.0958 1 13.1789 1C7.13925 1 5.06824 5.26603 5.36343 7.89165C5.36343 8.29816 5.48338 8.84433 5.58459 9.3025C5.65675 9.63249 5.7186 9.91658 5.7186 10.0677C5.7186 10.2485 5.2313 10.9506 4.78243 11.5962C4.44882 12.0754 4.1377 12.524 4.0646 12.7029C3.89499 13.1218 3.92966 13.7971 5.82918 13.7971C5.82918 14.9258 5.82918 19.2263 7.34916 19.2263C7.95079 19.2263 8.47557 19.0876 8.94412 18.9642C9.32271 18.8638 9.66569 18.7729 9.98337 18.7729ZM7.70714 6.49993C8.2188 4.00057 11.2775 2.39268 15.2134 3.50032C19.421 4.68447 19.5316 9.00024 17.961 10.5C17.5299 10.9113 17.2806 11.2624 17.1419 11.6019C16.8392 11.1639 16.7277 10.5393 16.8008 9.8018C16.8439 9.36563 16.9489 8.94094 17.0791 8.58703C17.216 8.2159 17.3556 7.98826 17.4296 7.90217C17.5142 7.80325 17.5789 7.68829 17.62 7.56386C17.6611 7.43942 17.6777 7.30794 17.669 7.17693C17.6603 7.04593 17.6264 6.91795 17.5693 6.80031C17.5121 6.68267 17.4328 6.57768 17.3359 6.49132C17.239 6.40496 17.1264 6.33893 17.0045 6.297C16.8825 6.25507 16.7537 6.23807 16.6254 6.24695C16.497 6.25583 16.3717 6.29043 16.2564 6.34877C16.1411 6.40711 16.0383 6.48805 15.9537 6.58697C15.6669 6.92175 15.4261 7.39331 15.2462 7.88208C15.1741 8.07763 15.1109 8.27648 15.0569 8.47799C14.6132 8.10634 14.1251 7.79362 13.6044 7.54731C13.1395 7.32826 12.6438 7.1647 12.209 7.13218C11.9498 7.11252 11.6935 7.19877 11.4966 7.37196C11.2997 7.54516 11.1782 7.7911 11.159 8.05569C11.1397 8.32028 11.2242 8.58184 11.3939 8.78284C11.5636 8.98383 11.8045 9.1078 12.0637 9.12746C12.1753 9.13511 12.432 9.19728 12.7834 9.36372C13.1208 9.52154 13.4872 9.74823 13.818 10.0285C13.9914 10.1748 14.146 10.326 14.2772 10.4809C13.6306 10.3336 12.6185 10.2485 11.1042 10.1213L10.4735 10.0687C7.59843 9.82475 7.46255 7.69652 7.70714 6.49993Z" fill="#555E4B"/>
</g>
</g>
</svg>
