<svg width="20" height="24" viewBox="0 0 20 24" fill="none" xmlns="http://www.w3.org/2000/svg">
<path id="Vector" d="M7.44897 22.6759C6.83776 21.6877 9.65234 18.0886 11.2808 17.7758C12.1055 17.6177 12.8478 17.5547 12.9311 17.6364C13.2052 17.9057 8.78095 23.2381 8.2833 23.2381C8.01515 23.2381 7.63942 22.985 7.44857 22.6763L7.44897 22.6759ZM5.43565 17.5758C4.8619 17.0021 6.18392 15.8012 7.39996 15.7924C9.76789 15.7753 10.0277 14.9744 8.16895 13.4221C5.36114 11.0781 5.34003 10.7553 7.81513 8.06946C9.62803 6.10276 9.91491 5.53658 9.29693 5.14531C8.25302 4.48509 7.63105 4.52255 5.54004 5.37202C3.70084 6.11949 2.42066 6.01032 2.42066 5.10626C2.42066 4.82496 3.64347 4.02848 5.13762 3.33599L7.85498 2.07692L10.1847 3.07581L12.5143 4.0747V2.51879C12.5143 0.760081 14.0507 -0.395792 15.6947 0.126163C17.9977 0.856902 17.3351 4.64407 14.9042 4.64407H13.6128L14.7097 6.50359C15.6656 8.12325 16.074 8.36271 17.8793 8.36271C20.9194 8.36271 20.6222 9.72258 17.4287 10.427C15.14 10.9318 14.8177 10.8797 13.9643 9.86642C13.0574 8.78944 12.9861 8.78346 11.9721 9.70107C10.6086 10.935 10.6441 11.353 12.2956 13.5181C13.0518 14.5102 13.5467 15.6446 13.3949 16.0402C12.9733 17.1387 6.28831 18.4285 5.43565 17.5758ZM0.030019 13.6751C-0.175974 13.342 0.998228 13.144 3.18606 13.144C5.15515 13.144 6.67081 13.3751 6.67081 13.6755C6.67081 14.3696 0.459139 14.3696 0.030019 13.6755V13.6751ZM0.030019 11.0191C-0.170396 10.6948 0.644413 10.488 2.12382 10.488C3.4558 10.488 4.54554 10.727 4.54554 11.0191C4.54554 11.712 0.458342 11.712 0.030019 11.0191ZM0.030019 8.36271C0.210512 8.07065 1.67318 7.83159 3.28009 7.83159C5.09299 7.83159 6.07714 8.0332 5.87393 8.36271C5.69304 8.65516 4.23077 8.89423 2.62346 8.89423C0.810562 8.89423 -0.173584 8.69222 0.030019 8.36271Z" fill="#555E4B"/>
</svg>
