<svg width="23" height="23" viewBox="0 0 23 23" fill="none" xmlns="http://www.w3.org/2000/svg">
<g id="Frame">
<path id="Vector" d="M13.5865 0.810333C14.248 0.327713 15.2851 0.0944819 16.0728 0.506391C16.6809 0.881234 17.3597 1.4359 17.449 2.18653C17.6277 3.20537 17.3597 4.26452 16.8409 5.1024C17.2528 6.49571 17.986 7.7512 17.8782 9.34314C17.718 11.4164 16.502 13.5803 14.4463 14.2777C13.6388 14.4912 12.8695 14.8126 12.0307 14.9217C11.9775 14.9947 11.8868 15.0643 11.8695 15.1374C11.8695 17.5137 11.8695 20.0906 11.6897 22.4866C11.5122 22.844 11.083 23.0238 10.7431 22.8265C10.5815 22.7535 10.4751 22.5946 10.4019 22.432C10.2778 20.0906 10.2962 17.5659 10.2244 15.1374C9.5258 14.6698 8.54326 14.7069 7.79263 14.2777C5.68214 13.4714 4.57301 11.2888 4.51959 9.12721C4.62642 7.67688 5.07311 6.37158 5.64621 5.10221C5.32592 4.12176 4.62642 3.08353 5.12748 1.97307C5.55573 0.843978 6.71942 0.218606 7.86334 0.201308C8.38188 0.237234 8.79265 0.451837 9.24049 0.631655C10.1523 0.382267 11.1189 -0.228088 12.1189 0.254722C12.6388 0.363829 12.96 1.07968 13.5865 0.810523" fill="#555E4B"/>
<path id="Vector_2" d="M12.2451 2.00917C12.4947 2.51042 12.2451 3.5477 13.1049 3.42357C13.6571 2.848 13.5864 1.70523 14.6062 1.63319C15.089 1.52655 15.6075 1.56019 15.9462 1.92097C16.3593 2.34923 16.3941 3.04531 16.2329 3.59997C16.0379 4.2799 15.2154 4.81707 15.4648 5.56885C16.3407 6.90893 17.0194 8.4811 16.538 10.1996C16.3232 11.7925 14.713 12.9912 13.2836 13.3833C11.1001 13.9021 8.56038 13.7046 6.88043 12.2208C5.87908 11.1463 5.59262 9.66475 5.80609 8.19807C5.91272 6.92642 7.02433 6.03189 6.96977 4.76252C6.48601 4.01074 5.80609 3.08371 6.32463 2.18557C6.73654 1.72138 7.2203 1.45337 7.8643 1.57882C8.311 1.70523 8.81091 2.00917 8.93523 2.47107C9.04414 2.90256 9.06163 3.38651 9.50928 3.63362C10.6534 3.5477 9.61496 2.18557 10.3667 1.6693C10.9039 1.32924 11.9239 1.31081 12.2451 2.00917Z" fill="#555E4B"/>
<path id="Vector_3" d="M8.2933 16.9432C9.3838 18.339 9.18764 20.5899 8.47198 22.0912C7.39858 22.7711 5.93209 22.3431 4.94955 21.7884C3.23235 20.5377 1.99681 18.6045 2.42716 16.3874C2.56991 15.8711 2.82177 15.2433 3.41103 15.0646C5.28942 14.582 7.23739 15.2074 8.29311 16.9432M20.4533 16.5125C20.8652 18.5673 19.9891 20.519 18.2187 21.7175C17.0736 22.5402 15.4644 23.0414 14.0513 22.4322C13.1208 21.8973 13.1568 20.6618 13.194 19.6441C13.1754 18.0337 14.5698 16.6389 15.8936 15.9592C17.1629 15.4741 18.7906 15.3859 20.0588 15.923C20.2757 16.0846 20.3651 16.299 20.4533 16.5127" fill="#555E4B"/>
<path id="Vector_4" d="M7.52347 17.9267C7.93405 18.8398 8.04088 20.0187 7.61395 20.9319C7.2739 21.5027 6.52212 21.1267 6.02106 21.1106C4.69828 20.68 3.82238 19.3561 3.57052 18.0692C3.48251 17.48 3.53573 16.8348 3.78645 16.3522C5.21815 15.9055 6.77265 16.5854 7.52347 17.9267ZM19.166 17.0337C19.5954 18.0327 19.166 19.1071 18.5941 19.91C17.5743 21.0018 16.2333 21.7363 14.7306 21.2896C14.1587 20.6072 14.5531 19.518 14.7306 18.7474C15.2494 17.6929 16.3224 16.7459 17.5222 16.7274C18.1289 16.7101 18.702 16.7461 19.166 17.0339" fill="#555E4B"/>
</g>
</svg>
