<svg width="44" height="44" viewBox="0 0 44 44" fill="none" xmlns="http://www.w3.org/2000/svg">
<rect x="1" y="1" width="42" height="42" rx="7" fill="#EFD390" stroke="#565F4E" stroke-width="2"/>
<g opacity="0.5">
<path d="M21.3486 33C21.0624 32.9989 20.7799 32.9326 20.5206 32.8057C20.097 32.6077 19.7568 32.2543 19.5638 31.8118C19.3708 31.3692 19.3384 30.868 19.4725 30.4022L20.8359 25.6667H17.6234C17.2142 25.6672 16.8104 25.5671 16.4447 25.3744C16.0789 25.1816 15.7612 24.9017 15.5171 24.5569C15.273 24.2121 15.1092 23.8121 15.0389 23.389C14.9686 22.9658 14.9938 22.5312 15.1123 22.1201L17.7536 12.9535C17.9146 12.3865 18.2464 11.8896 18.6994 11.5374C19.1523 11.1852 19.7018 10.9966 20.2655 11H23.4911C23.8577 11.0004 24.2188 11.0938 24.5435 11.2725C24.8683 11.4511 25.1469 11.7096 25.3558 12.0259C25.5646 12.3421 25.6973 12.7068 25.7427 13.0886C25.788 13.4704 25.7446 13.8581 25.6161 14.2185L24.1462 18.3334H26.3795C26.8556 18.3333 27.3227 18.4694 27.7306 18.727C28.1385 18.9846 28.4719 19.3539 28.6948 19.7954C28.9178 20.2368 29.022 20.7337 28.9961 21.2326C28.9703 21.7314 28.8155 22.2135 28.5482 22.627L22.9583 32.0687C22.7855 32.3527 22.5476 32.5868 22.2664 32.7494C21.9852 32.9121 21.6697 32.9983 21.3486 33Z" fill="white"/>
</g>
</svg>
