<svg width="44" height="44" viewBox="0 0 44 44" fill="none" xmlns="http://www.w3.org/2000/svg">
<g id="Group 133">
<rect id="Rectangle 21" x="1" y="1" width="42" height="42" rx="7" fill="#EFD390" stroke="#565F4E" stroke-width="2"/>
<g id="Group 49" opacity="0.5">
<path id="Vector" d="M23.3927 20.9353L23.3927 20.9353L23.39 20.937C23.349 20.9622 23.3078 20.9875 23.2663 21.013C22.7182 21.3497 22.1321 21.7097 21.6771 22.1555C21.1785 22.6441 20.8204 23.2513 20.8204 24.0648V27.1417C20.8204 27.4448 20.9272 27.7151 21.1299 27.9093C21.3315 28.1025 21.6083 28.2014 21.9155 28.2014C22.2062 28.2014 22.4765 28.0638 22.68 27.8688C22.8847 27.6726 23.0393 27.4027 23.0914 27.1036L23.0951 27.0823V27.0608V23.9838C23.0951 23.8016 23.1852 23.6212 23.4332 23.4019C23.6851 23.1791 24.0639 22.948 24.5727 22.6636L24.5735 22.6632C26.0111 21.8528 28.0714 20.5798 28.2495 17.7648L28.25 17.7569V17.749C28.25 14.4431 25.4237 11.75 22 11.75C18.5763 11.75 15.75 14.4431 15.75 17.749C15.75 18.052 15.8568 18.3224 16.0594 18.5166C16.2611 18.7098 16.5379 18.8087 16.8451 18.8087C17.1523 18.8087 17.429 18.7098 17.6307 18.5166C17.8333 18.3224 17.9401 18.052 17.9401 17.749C17.9401 15.6298 19.7617 13.8694 22 13.8694C24.2362 13.8694 26.0565 15.6265 26.0599 17.7431C25.9799 19.3676 24.7648 20.1136 23.3927 20.9353Z" fill="white" stroke="white" stroke-width="0.5"/>
<path id="Vector_2" d="M20.5669 30.9473C20.5669 31.2964 20.7117 31.6288 20.9657 31.8722C21.2194 32.1152 21.5612 32.25 21.9155 32.25C22.2698 32.25 22.6116 32.1152 22.8653 31.8722C23.1193 31.6288 23.2641 31.2964 23.2641 30.9473C23.2641 30.5983 23.1193 30.2659 22.8653 30.0225C22.6116 29.7795 22.2698 29.6447 21.9155 29.6447C21.5612 29.6447 21.2194 29.7795 20.9657 30.0225C20.7117 30.2659 20.5669 30.5983 20.5669 30.9473Z" fill="white" stroke="white" stroke-width="0.5"/>
</g>
</g>
</svg>
