<svg width="44" height="44" viewBox="0 0 44 44" fill="none" xmlns="http://www.w3.org/2000/svg">
<rect x="1" y="1" width="42" height="42" rx="7" fill="#EFD390" stroke="#565F4E" stroke-width="2"/>
<g opacity="0.5">
<path d="M23.4468 14.8794C23.3099 14.7791 23.3373 14.6615 23.5016 14.6223L25.2817 14.1516C25.4505 14.108 25.6285 13.9468 25.6879 13.7943L26.2904 12.1252C26.3497 11.9684 26.4729 11.9596 26.5688 12.0947L27.5821 13.5677C27.6779 13.7028 27.897 13.8204 28.075 13.8204L29.919 13.8553C30.0924 13.8553 30.1426 13.9599 30.0331 14.0906L28.8829 15.472C28.7779 15.6028 28.7323 15.8337 28.7779 15.9906L29.3119 17.6814C29.3621 17.834 29.2754 17.9168 29.1111 17.8601L27.3812 17.2369C27.2215 17.1803 26.975 17.2108 26.8335 17.3067L25.3227 18.3177C25.1812 18.4092 25.0717 18.3569 25.0763 18.1869L25.1584 16.422C25.1721 16.2651 25.0626 16.0473 24.9256 15.947L23.4468 14.8794ZM24.8754 20.344C25.1128 20.1567 25.0717 19.9562 24.7705 19.8865L21.612 19.1631C21.3153 19.089 20.9912 18.8101 20.8817 18.5443L19.7132 15.6507C19.6037 15.3805 19.3846 15.3544 19.2294 15.6028L17.5315 18.2479C17.3763 18.4963 16.9929 18.7099 16.6962 18.7229L13.4464 18.8842C13.1498 18.9016 13.0585 19.0934 13.2593 19.3156L15.3634 21.6688C15.5551 21.8911 15.6601 22.3007 15.578 22.584L14.7381 25.5734C14.6605 25.8567 14.8203 25.9918 15.0987 25.8828L18.1112 24.6975C18.3896 24.5885 18.8277 24.6234 19.0742 24.7846L21.7991 26.4668C22.0501 26.628 22.2464 26.5234 22.219 26.2314L21.968 23.1374C21.9497 22.8541 22.1186 22.4707 22.3559 22.2876L24.8754 20.344ZM13.3278 16.4002L14.3319 16.7576C14.4186 16.7881 14.478 16.7445 14.446 16.653L14.1357 15.6768C14.1128 15.5853 14.1357 15.4502 14.195 15.3762L14.8659 14.5743C14.9253 14.5002 14.8888 14.4392 14.7929 14.4392L13.7203 14.4174C13.6245 14.4174 13.4967 14.3564 13.4419 14.2736L12.8577 13.4151C12.7983 13.3411 12.7299 13.3454 12.6933 13.4326L12.3373 14.4C12.3145 14.4915 12.2004 14.583 12.1045 14.6092L11.0821 14.8837C10.9863 14.9055 10.9726 14.9752 11.0502 15.0362L11.9037 15.6551C11.9904 15.7117 12.0452 15.8337 12.0452 15.934L11.995 16.9493C11.9904 17.0496 12.0543 17.0801 12.1365 17.0278L13.0083 16.4438C13.0904 16.3828 13.2319 16.361 13.3278 16.4002ZM32.6302 31.7876L30.4074 29.6654L23.4468 22.8629C23.1684 23.1156 22.963 23.5601 22.9904 23.9044L23.141 26.445L30.6858 33.6484C31.124 34.0668 31.7858 34.1191 32.1601 33.7661L32.7625 33.1908C33.1231 32.8379 33.0684 32.206 32.6302 31.7876Z" fill="white"/>
</g>
</svg>
