<svg width="24" height="24" viewBox="0 0 24 24" fill="none" xmlns="http://www.w3.org/2000/svg">
<g id="&#229;&#138;&#160;&#233;&#128;&#159; 1">
<path id="Vector" d="M20.7243 4.69173C20.6741 6.30271 20.3244 7.85102 19.7401 9.35121C19.041 11.1462 18.0185 12.7257 16.5853 14.031C16.4689 14.1367 16.4327 14.2503 16.4478 14.3997C16.4974 14.8826 16.5371 15.3662 16.587 15.849C16.7038 16.9751 16.307 17.8966 15.3929 18.5503C14.4131 19.2518 13.3932 19.8991 12.3819 20.556C11.7445 20.9703 10.961 20.5942 10.89 19.8431C10.8084 18.9806 10.7444 18.1161 10.6841 17.2518C10.6538 16.8194 10.6656 16.8156 10.2443 16.7604C9.12481 16.614 8.24879 16.0862 7.6473 15.128C7.33786 14.635 7.18435 14.0898 7.1306 13.5172C7.11451 13.3453 7.04484 13.3012 6.88183 13.2926C5.97621 13.2427 5.07075 13.1896 4.16641 13.1217C3.4143 13.0652 3.03277 12.2774 3.43586 11.6196C3.71923 11.1572 4.02062 10.7059 4.313 10.2492C4.62807 9.75728 4.94089 9.26425 5.25676 8.77297C5.83461 7.87388 6.66782 7.38821 7.73403 7.37973C8.3447 7.37494 8.95681 7.48189 9.567 7.54711C9.6827 7.55958 9.7646 7.54376 9.84441 7.45519C11.2614 5.88162 13.0151 4.81963 15.0004 4.10902C16.1179 3.70835 17.2804 3.44464 18.4622 3.32375C19.0591 3.26252 19.6608 3.24014 20.2575 3.34997C20.5825 3.40976 20.5991 3.42303 20.6491 3.73845C20.6992 4.05386 20.7386 4.37056 20.7243 4.69173ZM17.305 8.66267C17.3181 7.60083 16.4329 6.68767 15.3807 6.67025C14.2876 6.65234 13.3412 7.4416 13.3153 8.67434C13.2934 9.70228 14.2308 10.6333 15.2769 10.6407C15.5408 10.6434 15.8028 10.5943 16.0476 10.4964C16.2925 10.3984 16.5155 10.2533 16.7039 10.0696C16.8923 9.88588 17.0423 9.66704 17.1455 9.42562C17.2486 9.18419 17.3029 8.92493 17.305 8.66267ZM5.55381 14.725C5.82189 14.7287 5.97026 14.846 6.06648 15.1181C6.4435 16.1842 7.12883 16.9932 8.12264 17.5414C8.34303 17.6614 8.57372 17.7618 8.81199 17.8413C9.24131 17.9866 9.33931 18.4022 9.0207 18.722C8.5489 19.1953 8.07227 19.6634 7.60047 20.1365C7.44455 20.293 7.27301 20.3667 7.05369 20.286C6.83066 20.2036 6.72333 20.0399 6.71207 19.8105C6.70499 19.665 6.70869 19.5192 6.70515 19.3736C6.69871 19.1061 6.69614 19.1039 6.44833 19.1854C5.91828 19.36 5.38887 19.5359 4.85898 19.7106C4.70274 19.7617 4.54617 19.783 4.39298 19.6972C4.16866 19.571 4.08435 19.3459 4.17462 19.0682C4.35082 18.5273 4.53539 17.9891 4.71545 17.4496C4.79349 17.2154 4.78867 17.2103 4.53426 17.2064C4.38059 17.204 4.22675 17.2068 4.07356 17.1992C3.85038 17.1888 3.69123 17.0813 3.60836 16.871C3.52775 16.6666 3.57924 16.4882 3.73001 16.3374C4.22225 15.8456 4.71658 15.3557 5.21074 14.8657C5.30906 14.7681 5.42588 14.7127 5.55381 14.725Z" fill="#E6DDC0" stroke="#565F4E"/>
</g>
</svg>
