<svg width="24" height="24" viewBox="0 0 24 24" fill="none" xmlns="http://www.w3.org/2000/svg">
<g id="p058&#230;&#156;&#186;&#229;&#153;&#168;&#228;&#186;&#186; 1">
<path id="Vector" d="M12.25 2C12.5536 2.00003 12.8501 2.09221 13.1003 2.26436C13.3504 2.43651 13.5424 2.68051 13.6509 2.96412C13.7593 3.24772 13.7792 3.55757 13.7078 3.8527C13.6364 4.14783 13.4771 4.41434 13.251 4.617L13.25 6H17C17.7652 5.99996 18.5015 6.29232 19.0583 6.81728C19.615 7.34224 19.9501 8.06011 19.995 8.824L20 9V17C20 17.7652 19.7077 18.5015 19.1827 19.0583C18.6578 19.615 17.9399 19.9501 17.176 19.995L17 20H7C6.23479 20 5.49849 19.7077 4.94174 19.1827C4.38499 18.6578 4.04989 17.9399 4.005 17.176L4 17V9C3.99996 8.23479 4.29233 7.49849 4.81728 6.94174C5.34224 6.38499 6.06011 6.04989 6.824 6.005L7 6H11.25V4.618C11.0236 4.41547 10.864 4.14897 10.7923 3.85376C10.7207 3.55855 10.7404 3.24854 10.8488 2.96476C10.9572 2.68098 11.1492 2.4368 11.3994 2.26452C11.6496 2.09225 11.9462 2.00001 12.25 2ZM13.5 14H10.5C10.2451 14.0003 9.99997 14.0979 9.81463 14.2728C9.6293 14.4478 9.51777 14.687 9.50283 14.9414C9.48789 15.1958 9.57067 15.4464 9.73427 15.6418C9.89786 15.8373 10.1299 15.9629 10.383 15.993L10.5 16H13.5C13.7652 16 14.0196 15.8946 14.2071 15.7071C14.3946 15.5196 14.5 15.2652 14.5 15C14.5 14.7348 14.3946 14.4804 14.2071 14.2929C14.0196 14.1054 13.7652 14 13.5 14ZM9.25 10C8.85218 10 8.47064 10.158 8.18934 10.4393C7.90804 10.7206 7.75 11.1022 7.75 11.5C7.75 11.8978 7.90804 12.2794 8.18934 12.5607C8.47064 12.842 8.85218 13 9.25 13C9.64782 13 10.0294 12.842 10.3107 12.5607C10.592 12.2794 10.75 11.8978 10.75 11.5C10.75 11.1022 10.592 10.7206 10.3107 10.4393C10.0294 10.158 9.64782 10 9.25 10ZM15.25 10C14.8522 10 14.4706 10.158 14.1893 10.4393C13.908 10.7206 13.75 11.1022 13.75 11.5C13.75 11.8978 13.908 12.2794 14.1893 12.5607C14.4706 12.842 14.8522 13 15.25 13C15.6478 13 16.0294 12.842 16.3107 12.5607C16.592 12.2794 16.75 11.8978 16.75 11.5C16.75 11.1022 16.592 10.7206 16.3107 10.4393C16.0294 10.158 15.6478 10 15.25 10ZM2.5 10C2.74493 10 2.98134 10.09 3.16437 10.2527C3.34741 10.4155 3.46434 10.6397 3.493 10.883L3.5 11V15C3.49972 15.2549 3.40212 15.5 3.22715 15.6854C3.05218 15.8707 2.81305 15.9822 2.55861 15.9972C2.30416 16.0121 2.05362 15.9293 1.85817 15.7657C1.66271 15.6021 1.5371 15.3701 1.507 15.117L1.5 15V11C1.5 10.7348 1.60536 10.4804 1.79289 10.2929C1.98043 10.1054 2.23478 10 2.5 10ZM21.5 10C21.7449 10 21.9813 10.09 22.1644 10.2527C22.3474 10.4155 22.4643 10.6397 22.493 10.883L22.5 11V15C22.4997 15.2549 22.4021 15.5 22.2272 15.6854C22.0522 15.8707 21.813 15.9822 21.5586 15.9972C21.3042 16.0121 21.0536 15.9293 20.8582 15.7657C20.6627 15.6021 20.5371 15.3701 20.507 15.117L20.5 15V11C20.5 10.7348 20.6054 10.4804 20.7929 10.2929C20.9804 10.1054 21.2348 10 21.5 10Z" fill="#E6DDC0" stroke="#565F4E"/>
</g>
</svg>
