<svg width="22" height="22" viewBox="0 0 22 22" fill="none" xmlns="http://www.w3.org/2000/svg">
<g id="&#230;&#151;&#182;&#233;&#149;&#191; 1">
<path id="Vector" d="M13.8171 13.7181L13.8161 13.7193C13.7969 13.7428 13.7727 13.7617 13.7453 13.7747C13.7179 13.7877 13.6879 13.7945 13.6575 13.7945H13.6572C13.6115 13.7945 13.5667 13.7801 13.5266 13.7478C13.5264 13.7476 13.5262 13.7475 13.526 13.7473L10.7606 11.4851L10.7597 11.4844C10.7364 11.4654 10.7176 11.4415 10.7047 11.4143C10.6918 11.3872 10.6851 11.3576 10.6851 11.3276C10.6851 11.3275 10.6851 11.3275 10.6851 11.3275V8.0215C10.6851 7.90857 10.7772 7.81642 10.8903 7.81642C11.0032 7.81642 11.0953 7.90853 11.0953 8.0215V10.992V11.229L11.2788 11.379L13.7879 13.4313C13.7879 13.4313 13.788 13.4314 13.7881 13.4314C13.8755 13.5034 13.8872 13.6328 13.8171 13.7181ZM10.9991 2.5C6.30482 2.5 2.5 6.30482 2.5 10.9991C2.5 15.6934 6.30658 19.5 11.0009 19.5C15.6953 19.5 19.5 15.6951 19.5 10.9991C19.5 6.30474 15.6951 2.5 10.9991 2.5Z" fill="#E6DDC0" stroke="#555E4B"/>
</g>
</svg>
