<svg width="22" height="22" viewBox="0 0 22 22" fill="none" xmlns="http://www.w3.org/2000/svg">
<g id="&#229;&#138;&#160;&#233;&#128;&#159; 1">
<path id="Vector" d="M18.9973 4.30077C18.9513 5.77751 18.6307 7.19679 18.0951 8.57197C17.4542 10.2174 16.517 11.6652 15.2032 12.8618C15.0965 12.9586 15.0633 13.0628 15.0772 13.1997C15.1226 13.6424 15.1591 14.0857 15.2048 14.5283C15.3119 15.5605 14.9481 16.4052 14.1102 17.0044C13.212 17.6475 12.2771 18.2408 11.3501 18.843C10.7658 19.2228 10.0476 18.878 9.98255 18.1895C9.90777 17.3989 9.84906 16.6064 9.79374 15.8142C9.76601 15.4178 9.77678 15.4143 9.39062 15.3637C8.36443 15.2295 7.56142 14.7457 7.01004 13.8674C6.72639 13.4154 6.58567 12.9157 6.53641 12.3908C6.52166 12.2332 6.45779 12.1928 6.30837 12.1849C5.47821 12.1392 4.64821 12.0905 3.81923 12.0282C3.1298 11.9765 2.78006 11.2543 3.14956 10.6513C3.40932 10.2275 3.68559 9.81379 3.95361 9.39511C4.24242 8.94419 4.52917 8.49225 4.81872 8.04191C5.34841 7.21775 6.11219 6.77254 7.08955 6.76478C7.64933 6.76038 8.21043 6.85842 8.76977 6.91821C8.87583 6.92964 8.95091 6.91513 9.02407 6.83395C10.323 5.39151 11.9305 4.41801 13.7504 3.76662C14.7747 3.39934 15.8404 3.15761 16.9237 3.04679C17.4709 2.99067 18.0224 2.97015 18.5694 3.07083C18.8673 3.12563 18.8825 3.1378 18.9284 3.42693C18.9743 3.71606 19.0104 4.00637 18.9973 4.30077ZM15.863 7.9408C15.8749 6.96745 15.0635 6.13039 14.099 6.11441C13.097 6.098 12.2295 6.82149 12.2057 7.9515C12.1857 8.89378 13.0449 9.74725 14.0038 9.754C14.2458 9.75647 14.4859 9.71151 14.7103 9.62168C14.9348 9.53185 15.1392 9.39892 15.3119 9.2305C15.4846 9.06208 15.6222 8.86147 15.7167 8.64017C15.8113 8.41887 15.861 8.18121 15.863 7.9408ZM5.09101 13.4979C5.33676 13.5013 5.47275 13.6089 5.56096 13.8583C5.90656 14.8356 6.53479 15.5771 7.44577 16.0796C7.6478 16.1896 7.85926 16.2816 8.07768 16.3545C8.47122 16.4877 8.56105 16.8687 8.26899 17.1618C7.83651 17.5957 7.3996 18.0248 6.96712 18.4585C6.82419 18.6019 6.66695 18.6695 6.4659 18.5955C6.26146 18.52 6.16307 18.3699 6.15275 18.1597C6.14626 18.0263 6.14965 17.8926 6.14641 17.7591C6.14051 17.514 6.13815 17.5119 5.91099 17.5867C5.42511 17.7467 4.93982 17.9079 4.45409 18.0681C4.31086 18.115 4.16734 18.1344 4.02692 18.0558C3.8213 17.9401 3.744 17.7338 3.82675 17.4792C3.98827 16.9833 4.15746 16.4901 4.32252 15.9955C4.39406 15.7808 4.38963 15.7761 4.15643 15.7726C4.01556 15.7704 3.87455 15.7729 3.73412 15.766C3.52953 15.7565 3.38365 15.6578 3.30769 15.4651C3.23379 15.2777 3.28099 15.1142 3.4192 14.976C3.87042 14.5252 4.32355 14.076 4.77653 13.6269C4.86666 13.5375 4.97375 13.4866 5.09101 13.4979Z" fill="#E6DDC0" stroke="#565F4E"/>
</g>
</svg>
