<svg width="20" height="20" viewBox="0 0 20 20" fill="none" xmlns="http://www.w3.org/2000/svg">
<g id="Group 493">
<g id="Group 492">
<path id="Vector 48" d="M5.82376 11.8874H4.22325C3.37851 11.8874 2.91433 10.9048 3.45082 10.2523L9.17015 3.2962C9.56814 2.81215 10.3082 2.80922 10.71 3.29012L16.522 10.2462C17.066 10.8973 16.6031 11.8874 15.7546 11.8874H13.5748C13.3823 11.8874 13.194 11.8319 13.0323 11.7275L10.4424 10.0554C10.1311 9.85439 9.73422 9.842 9.41102 10.0231L6.3127 11.7597C6.16334 11.8435 5.99498 11.8874 5.82376 11.8874Z" fill="url(#paint0_linear_1876_201)" stroke="#565F4E" stroke-linejoin="round"/>
<path id="Vector 49" d="M5.82376 17.6355H4.22325C3.37851 17.6355 2.91433 16.6529 3.45082 16.0004L9.17015 9.04425C9.56814 8.56019 10.3082 8.55727 10.71 9.03816L16.522 15.9943C17.066 16.6454 16.6031 17.6355 15.7546 17.6355H13.5748C13.3823 17.6355 13.194 17.58 13.0323 17.4756L10.4424 15.8034C10.1311 15.6024 9.73422 15.59 9.41102 15.7712L6.3127 17.5078C6.16334 17.5915 5.99498 17.6355 5.82376 17.6355Z" fill="#EB643A" stroke="#565F4E" stroke-linejoin="round"/>
</g>
</g>
<defs>
<linearGradient id="paint0_linear_1876_201" x1="9.99987" y1="2.36426" x2="9.99987" y2="11.8874" gradientUnits="userSpaceOnUse">
<stop stop-color="#FFEB33"/>
<stop offset="1" stop-color="#EB643A"/>
</linearGradient>
</defs>
</svg>
