<svg width="24" height="24" viewBox="0 0 24 24" fill="none" xmlns="http://www.w3.org/2000/svg">
<g id="&#228;&#187;&#183;&#230;&#160;&#188; 1">
<path id="Vector" d="M12.7202 14.9193H12.2202V15.4193V16.462H11.9131V15.4193V14.9193H11.4131H9.93954V14.6121H13.2818C13.8336 14.6121 14.2816 14.1641 14.2816 13.6123V13.1628C14.2816 12.6111 13.8336 12.163 13.2818 12.163H10.8514C10.1311 12.163 9.54439 11.5763 9.54439 10.8561V10.3204C9.54439 9.60019 10.1311 9.01345 10.8514 9.01345H11.4131H11.9131V8.51345V7.42755H12.2202V8.51345V9.01345H12.7202H14.1937V9.32062L10.8514 9.32062L10.8507 9.32062C10.5858 9.32095 10.3319 9.42632 10.1446 9.61363C9.95726 9.80095 9.85189 10.0549 9.85156 10.3198V10.3204V10.8561C9.85156 11.4078 10.2996 11.8559 10.8514 11.8559H13.2818C14.0021 11.8559 14.5888 12.4426 14.5888 13.1628V13.6123C14.5888 14.3326 14.0021 14.9193 13.2818 14.9193H12.7202ZM12 2.77271C6.90384 2.77271 2.77271 6.90384 2.77271 12C2.77271 17.0961 6.90384 21.2273 12 21.2273C17.0961 21.2273 21.2273 17.0961 21.2273 12C21.2273 6.90384 17.0961 2.77271 12 2.77271Z" fill="#E6DDC0" stroke="#565F4E"/>
</g>
</svg>
