<svg width="12" height="12" viewBox="0 0 12 12" fill="none" xmlns="http://www.w3.org/2000/svg">
<g id="&#232;&#180;&#173;&#228;&#185;&#176; 1" clip-path="url(#clip0_751_90)">
<g id="Group 250">
<path id="Vector" d="M3.84049 10.6051C3.7891 10.481 3.76266 10.348 3.76267 10.2136L3.84049 10.6051ZM3.84049 10.6051C3.89189 10.7292 3.96722 10.8419 4.0622 10.9369M3.84049 10.6051L4.0622 10.9369M4.0622 10.9369C4.15718 11.0319 4.26994 11.1073 4.39404 11.1587M4.0622 10.9369L4.39404 11.1587M4.39404 11.1587C4.51814 11.2101 4.65115 11.2365 4.78548 11.2365M4.39404 11.1587L4.78548 11.2365M4.78548 11.2365C4.9198 11.2365 5.05281 11.2101 5.17691 11.1587M4.78548 11.2365L5.17691 11.1587M5.17691 11.1587C5.30101 11.1073 5.41377 11.0319 5.50875 10.9369M5.17691 11.1587L5.50875 10.9369M5.50875 10.9369C5.60373 10.8419 5.67906 10.7292 5.73046 10.6051M5.50875 10.9369L5.73046 10.6051M5.73046 10.6051C5.78185 10.481 5.80829 10.348 5.80828 10.2136L5.73046 10.6051ZM5.80828 10.2136C5.80829 10.0793 5.78185 9.94629 5.73046 9.82219C5.67906 9.69808 5.60373 9.58531 5.50875 9.49033C5.41377 9.39534 5.30101 9.31999 5.17691 9.26858C5.05281 9.21717 4.9198 9.19071 4.78548 9.19071C4.65115 9.19071 4.51814 9.21717 4.39404 9.26858C4.26994 9.31999 4.15718 9.39534 4.0622 9.49033C3.96722 9.58531 3.89189 9.69808 3.84049 9.82219C3.7891 9.94629 3.76266 10.0793 3.76267 10.2136L5.80828 10.2136Z" fill="#565F4E" stroke="#565F4E" stroke-width="0.2"/>
<path id="Vector_2" d="M7.56711 10.2135C7.56711 10.3478 7.59357 10.4808 7.64497 10.6049C7.69637 10.729 7.77171 10.8418 7.86669 10.9367C7.96166 11.0317 8.07442 11.1071 8.19851 11.1585C8.3226 11.2099 8.4556 11.2363 8.58992 11.2363C8.72424 11.2363 8.85724 11.2099 8.98133 11.1585C9.10542 11.1071 9.21818 11.0317 9.31315 10.9367C9.40813 10.8418 9.48347 10.729 9.53487 10.6049C9.58627 10.4808 9.61272 10.3478 9.61272 10.2135C9.61272 10.0792 9.58627 9.9462 9.53487 9.82211C9.48347 9.69801 9.40813 9.58526 9.31315 9.49028C9.21818 9.39531 9.10542 9.31997 8.98133 9.26857C8.85724 9.21717 8.72424 9.19071 8.58992 9.19071C8.4556 9.19071 8.3226 9.21717 8.19851 9.26857C8.07442 9.31997 7.96166 9.39531 7.86669 9.49028C7.77171 9.58526 7.69637 9.69801 7.64497 9.82211C7.59357 9.9462 7.56711 10.0792 7.56711 10.2135Z" fill="#565F4E" stroke="#565F4E" stroke-width="0.2"/>
<path id="Vector_3" d="M2.85291 7.53677L2.85289 7.53677L2.85338 7.53873C3.00125 8.12792 3.53123 8.53929 4.14014 8.53929H9.47307C10.0445 8.53929 10.5511 8.17464 10.7368 7.61304L10.7368 7.61307L10.7379 7.60933L11.8051 3.90347C11.9428 3.49499 11.8764 3.05876 11.6249 2.70761L11.6245 2.70701C11.3704 2.35772 10.9769 2.15503 10.5451 2.15503H4.42392C4.13746 2.15503 3.90351 2.38899 3.90351 2.67544C3.90351 2.9619 4.13746 3.19585 4.42392 3.19585H10.5472C10.6413 3.19585 10.7265 3.23935 10.7812 3.31584C10.8346 3.39071 10.8508 3.48498 10.8141 3.59351L10.814 3.59348L10.8127 3.5979L9.74539 7.30401C9.70613 7.42097 9.59627 7.49847 9.47307 7.49847H4.14014C4.00617 7.49847 3.89384 7.40881 3.86309 7.29292L2.5959 1.76812L2.59592 1.76811L2.59544 1.76622C2.44762 1.17493 1.91766 0.763464 1.30866 0.763464H0.644411C0.357956 0.763464 0.123999 0.997421 0.123999 1.28388C0.123999 1.57033 0.357956 1.80429 0.644411 1.80429H1.30656C1.44054 1.80429 1.55287 1.89396 1.58361 2.00985L2.85291 7.53677Z" fill="#565F4E" stroke="#565F4E" stroke-width="0.2"/>
</g>
</g>
<defs>
<clipPath id="clip0_751_90">
<rect width="12" height="12" fill="white" transform="translate(-0.000244141)"/>
</clipPath>
</defs>
</svg>
