<svg width="24" height="24" viewBox="0 0 24 24" fill="none" xmlns="http://www.w3.org/2000/svg">
<g id="&#229;&#163;&#176;&#233;&#159;&#179; 1">
<path id="Vector" d="M10.5484 4.72969L10.5484 4.72967L10.545 4.7319L7.08199 7.00805H3.85714C3.13294 7.00805 2.6 7.64378 2.6 8.34481V15.6736C2.6 16.3654 3.12454 16.9919 3.84034 16.9919H7.08199L10.5438 19.2673C10.544 19.2675 10.5442 19.2676 10.5445 19.2677C10.8246 19.4529 11.1526 19.4311 11.3976 19.2803C11.6403 19.131 11.8034 18.8577 11.8034 18.5389V5.46107C11.8034 5.14615 11.6458 4.87174 11.4021 4.72054C11.1545 4.56691 10.8284 4.54972 10.5484 4.72969ZM14.7814 8.29405L14.7756 8.28763L14.7683 8.28043C14.2551 7.77435 13.4533 7.81872 12.9941 8.37482C12.5551 8.9064 12.585 9.7168 13.0769 10.2057C13.123 10.2549 13.312 10.4629 13.5013 10.7757C13.7206 11.1378 13.9193 11.6063 13.9193 12.101C13.9193 12.6434 13.6675 13.2081 13.0801 13.7911C12.5852 14.2796 12.5542 15.0924 12.9941 15.6252L12.995 15.6263C13.2368 15.917 13.5752 16.0736 13.9244 16.0736C14.2367 16.0736 14.5372 15.9456 14.7671 15.7208L14.7679 15.7199C15.8407 14.6648 16.4 13.4455 16.4 12.101C16.4 10.9952 16.0028 10.0562 15.6095 9.39507C15.412 9.06301 15.2126 8.79615 15.0581 8.60735C14.9807 8.51279 14.9144 8.43754 14.8649 8.38325C14.8401 8.35608 14.8197 8.33431 14.8045 8.31825L14.7864 8.29921C14.7827 8.29536 14.7815 8.29405 14.7814 8.29405Z" fill="#565E4E" stroke="white" stroke-width="0.8"/>
<path id="Vector_2" d="M17.9264 5.9142L17.9187 5.90766L17.9108 5.90152C17.3444 5.46371 16.4928 5.50893 15.9792 5.99647C15.4202 6.52694 15.4972 7.35393 16.09 7.81215L16.1121 7.8292L16.1139 7.83023L16.1209 7.83573C16.1386 7.84977 16.1654 7.87149 16.2001 7.90058C16.2694 7.95872 16.3687 8.04521 16.4879 8.15725C16.7269 8.38173 17.0429 8.70604 17.3574 9.1078C17.9931 9.91976 18.5877 11.0036 18.5877 12.1947C18.5877 13.5382 17.8024 14.8831 16.0918 16.1901L16.0918 16.1901L16.09 16.1915C15.4972 16.6497 15.4202 17.4767 15.9792 18.0072L15.9802 18.0082C16.2643 18.2759 16.6372 18.4 17.0054 18.4C17.3186 18.4 17.6483 18.3109 17.9195 18.1031L17.9196 18.103C20.1808 16.3687 21.4 14.3858 21.4 12.1947L21.4 12.1924C21.3893 10.3708 20.532 8.82022 19.6911 7.73043C19.2682 7.1824 18.8425 6.7418 18.5142 6.43093C18.3498 6.27528 18.2094 6.15172 18.1054 6.06309C18.0534 6.01876 18.0106 5.98328 17.9788 5.95714L17.9403 5.92563C17.9312 5.91824 17.9276 5.91523 17.9266 5.91442C17.9264 5.91423 17.9263 5.91416 17.9264 5.9142ZM16.0965 7.81691C16.0963 7.81675 16.0979 7.81792 16.1019 7.82089C16.0986 7.81855 16.0966 7.81707 16.0965 7.81691Z" fill="#565E4E" stroke="white" stroke-width="0.8"/>
</g>
</svg>
