<svg width="20" height="20" viewBox="0 0 20 20" fill="none" xmlns="http://www.w3.org/2000/svg">
<g id="Group 270">
<g id="Group 269">
<path id="Vector" d="M7.88681 16.3164L7.82726 16.4776L7.82371 16.4859L7.80545 16.5287C7.80308 16.5343 7.79996 16.5417 7.79674 16.5494C7.79033 16.5624 7.78297 16.5775 7.7766 16.5908L7.76616 16.6129L7.76521 16.6151L7.71436 16.7142C7.68296 16.7715 7.64786 16.8269 7.60925 16.8801L7.59493 16.8998L7.5826 16.9208C7.42249 17.1937 7.37792 17.5186 7.46016 17.8247C7.54232 18.1304 7.74319 18.3888 8.01507 18.5472L8.01506 18.5472L8.01875 18.5493C8.15601 18.6278 8.3072 18.6787 8.46365 18.6996C8.62009 18.7206 8.77927 18.7113 8.93221 18.6721C9.08518 18.6329 9.22939 18.5645 9.35644 18.4702L9.05852 18.0687L9.35644 18.4702C9.47635 18.3813 9.57887 18.2708 9.65834 18.1442C10.2417 17.3426 10.4513 16.2715 10.5876 15.4533L10.5876 15.4533L10.5882 15.45C10.6945 14.7845 10.7505 14.0992 10.8045 13.4366C10.8298 13.1271 10.8547 12.8224 10.8841 12.5271L10.8866 12.5024V12.4776C10.8866 12.1566 10.7557 11.8514 10.5269 11.6283C10.2986 11.4057 9.9916 11.2829 9.67404 11.2829C9.35648 11.2829 9.04947 11.4057 8.82116 11.6283C8.59919 11.8448 8.46935 12.1386 8.46185 12.4491C8.43043 12.7632 8.40517 13.0821 8.38018 13.3976C8.36881 13.5411 8.35749 13.684 8.34568 13.8254L8.34565 13.8254L8.34525 13.8309C8.33142 14.0219 8.31412 14.2141 8.29336 14.4076L8.29334 14.4076L8.29297 14.4114C8.26909 14.6508 8.25973 14.7174 8.22555 14.9307L8.22553 14.9307L8.22501 14.9341C8.1665 15.3162 8.08226 15.6942 7.97282 16.0656C7.94803 16.1481 7.92015 16.2296 7.88918 16.3101L7.88914 16.3101L7.88681 16.3164Z" fill="#ADBF6D" stroke="#555E4B"/>
<path id="Vector_2" d="M7.53888 3.7717L7.53872 3.77207C6.76019 5.53294 7.27619 7.60942 8.9355 8.32074C10.5944 9.03188 12.4918 7.95372 13.2665 6.20153C13.667 5.29574 13.7034 4.29938 13.4471 3.44352C13.1916 2.59028 12.6295 1.83495 11.7949 1.48465C10.9512 1.13053 10.0589 1.28584 9.30952 1.72485C8.56298 2.16217 7.92782 2.89394 7.53888 3.7717Z" fill="#ADBF6D" stroke="#555E4B"/>
<path id="Vector_3" d="M9.47191 10.4376L9.47218 10.4294V10.4212C9.47218 9.58075 8.88957 8.90109 8.24759 8.46294C7.59259 8.0159 6.75223 7.7294 5.99736 7.7294C5.16895 7.7294 4.39855 8.19613 3.8622 8.81508C3.32246 9.43796 2.95655 10.2851 3.00424 11.1538L3.00425 11.1539C3.04719 11.9333 3.32041 12.6246 3.917 13.0931C4.50164 13.5523 5.31531 13.7325 6.30601 13.6785L6.30602 13.6787L6.31825 13.6777C7.15521 13.6115 7.94028 13.247 8.52281 12.6505C9.10565 12.0537 9.44474 11.2662 9.47191 10.4376Z" fill="#ADBF6D" stroke="#555E4B"/>
<path id="Vector_4" d="M13.9198 14.7952L13.9297 14.7962L13.9396 14.7968C15.0279 14.8639 15.8115 14.3028 16.2986 13.6114C16.7744 12.9359 16.9999 12.099 16.9999 11.4633C16.9999 10.439 16.7707 9.56052 16.2498 8.93034C15.7159 8.28452 14.9367 7.97256 14.0025 7.97256C13.0859 7.97256 12.1932 8.2589 11.5141 8.70211C10.8551 9.13222 10.3013 9.7794 10.2648 10.545C10.1921 11.5809 10.5343 12.6022 11.2163 13.3941C11.8993 14.1874 12.8692 14.6883 13.9198 14.7952Z" fill="#ADBF6D" stroke="#555E4B"/>
<g id="Mask group">
<mask id="mask0_751_123" style="mask-type:alpha" maskUnits="userSpaceOnUse" x="7" y="1" width="7" height="8">
<path id="Vector_5" d="M7.99602 3.97425C8.69786 2.3903 10.269 1.38644 11.6014 1.94569C12.9339 2.50493 13.511 4.41193 12.8092 5.99935C12.1073 7.58677 10.4614 8.43085 9.13251 7.86118C7.80363 7.29152 7.29417 5.56168 7.99602 3.97425Z" fill="#ADBF6D"/>
</mask>
<g mask="url(#mask0_751_123)">
<path id="Vector 27" d="M10.8009 3.63467C10.4367 4.29942 10.2643 6.25936 9.98024 8.70676" stroke="#99AB57" stroke-linecap="round"/>
</g>
</g>
<g id="Mask group_2">
<mask id="mask1_751_123" style="mask-type:alpha" maskUnits="userSpaceOnUse" x="3" y="8" width="6" height="6">
<path id="Vector_6" d="M8.97218 10.4212C8.94916 11.1233 8.66186 11.7925 8.16509 12.3012C7.66832 12.8098 6.99686 13.1224 6.27881 13.1792C4.42979 13.28 3.57831 12.4845 3.50349 11.1264C3.42511 9.69872 4.7148 8.2294 5.99736 8.2294C7.27992 8.2294 8.97218 9.22284 8.97218 10.4212Z" fill="#ADBF6D"/>
</mask>
<g mask="url(#mask1_751_123)">
<path id="Vector 28" d="M5.04759 11.4589C5.87934 11.2418 7.86492 10.536 9.15317 9.44992" stroke="#99AB57" stroke-linecap="round"/>
</g>
</g>
<g id="Mask group_3">
<mask id="mask2_751_123" style="mask-type:alpha" maskUnits="userSpaceOnUse" x="10" y="8" width="7" height="7">
<path id="Vector_7" d="M16.4999 11.4633C16.4999 12.5366 15.7161 14.4054 13.9704 14.2977C13.0451 14.2036 12.1934 13.7626 11.5952 13.0679C10.9969 12.3731 10.6989 11.479 10.764 10.5741C10.8103 9.50074 12.3672 8.47256 14.0025 8.47256C15.6377 8.47256 16.4999 9.5459 16.4999 11.4633Z" fill="#ADBF6D"/>
</mask>
<g mask="url(#mask2_751_123)">
<path id="Vector 29" d="M14.8165 11.8293C14.1335 11.3012 12.076 9.52174 10.0001 9.49991" stroke="#99AB57" stroke-linecap="round"/>
</g>
</g>
</g>
</g>
</svg>
