<svg width="14" height="14" viewBox="0 0 14 14" fill="none" xmlns="http://www.w3.org/2000/svg">
<g id="&#229;&#164;&#141;&#229;&#136;&#182;&#230;&#150;&#135;&#228;&#187;&#182; 1" clip-path="url(#clip0_509_68)">
<path id="Vector" d="M8.73081 2.62413C9.00998 2.62413 9.2589 2.68461 9.47757 2.80558C9.69625 2.92655 9.88469 3.07544 10.0429 3.25224C10.2011 3.42905 10.322 3.61981 10.4058 3.82453C10.4895 4.02925 10.5314 4.2107 10.5314 4.36889V12.2552C10.5314 12.5251 10.4779 12.767 10.3709 12.9811C10.2639 13.1951 10.1243 13.3765 9.95215 13.5254C9.78 13.6743 9.58691 13.7906 9.37289 13.8744C9.15886 13.9581 8.94484 14 8.73081 14H1.84946C1.67265 14 1.47957 13.9488 1.27019 13.8465C1.06082 13.7441 0.865409 13.6092 0.683953 13.4417C0.502498 13.2742 0.351285 13.0811 0.230314 12.8624C0.109344 12.6437 0.0488586 12.4227 0.0488586 12.1994V4.42473C0.0488586 4.22931 0.0953857 4.02692 0.18844 3.81755C0.281494 3.60818 0.402465 3.41509 0.551351 3.23829C0.700238 3.06148 0.872388 2.91492 1.0678 2.7986C1.26322 2.68229 1.46793 2.62413 1.68196 2.62413H8.73081ZM7.90728 11.348C8.14922 11.348 8.35627 11.2642 8.52842 11.0967C8.70057 10.9292 8.78664 10.7245 8.78664 10.4826C8.78664 10.2406 8.70057 10.0336 8.52842 9.86142C8.35627 9.68927 8.14922 9.60319 7.90728 9.60319H2.67299C2.43105 9.60319 2.224 9.68927 2.05185 9.86142C1.8797 10.0336 1.79362 10.2406 1.79362 10.4826C1.79362 10.7245 1.8797 10.9292 2.05185 11.0967C2.224 11.2642 2.43105 11.348 2.67299 11.348H7.90728ZM7.90728 7.85843C8.14922 7.85843 8.35627 7.77468 8.52842 7.60718C8.70057 7.43968 8.78664 7.23496 8.78664 6.99302C8.78664 6.75108 8.70057 6.54403 8.52842 6.37188C8.35627 6.19973 8.14922 6.11366 7.90728 6.11366H2.67299C2.43105 6.11366 2.224 6.19973 2.05185 6.37188C1.8797 6.54403 1.79362 6.75108 1.79362 6.99302C1.79362 7.23496 1.8797 7.43968 2.05185 7.60718C2.224 7.77468 2.43105 7.85843 2.67299 7.85843H7.90728ZM10.3779 0C10.778 0 11.1456 0.118644 11.4806 0.355932C11.8156 0.59322 12.1064 0.886341 12.3529 1.23529C12.5995 1.58425 12.7926 1.96112 12.9322 2.3659C13.0718 2.77069 13.1416 3.14058 13.1416 3.47557V10.8873C13.1416 11.0828 13.0834 11.2619 12.9671 11.4247C12.8508 11.5876 12.7089 11.7272 12.5414 11.8435C12.3739 11.9598 12.1924 12.0528 11.997 12.1226C11.8016 12.1924 11.6201 12.2273 11.4526 12.2273H11.3968V3.89432C11.3224 3.25224 11.1223 2.75906 10.7966 2.41476C10.4709 2.07046 10.0382 1.84713 9.49851 1.74477H2.68694C2.69625 1.72615 2.7009 1.69359 2.7009 1.64706C2.7009 1.46095 2.75674 1.27019 2.8684 1.07478C2.98007 0.879362 3.12663 0.702559 3.30808 0.544367C3.48954 0.386175 3.69193 0.255899 3.91526 0.153539C4.13859 0.0511798 4.36192 1.36719e-08 4.58525 1.36719e-08L10.3779 0Z" fill="#565E4E"/>
</g>
<defs>
<clipPath id="clip0_509_68">
<rect width="14" height="14" fill="white"/>
</clipPath>
</defs>
</svg>
