<svg width="8" height="8" viewBox="0 0 8 8" fill="none" xmlns="http://www.w3.org/2000/svg">
<g id="Frame" clip-path="url(#clip0_737_136)">
<path id="Vector" d="M7.91914 3.79189L6.58716 2.12687C6.55596 2.08787 6.51639 2.05638 6.47137 2.03474C6.42636 2.01311 6.37705 2.00187 6.3271 2.00188C6.29026 2.00188 6.25301 2.00803 6.21689 2.02073C6.08343 2.06748 5.99415 2.19345 5.99415 2.33491V3.33394H3.33011C2.96231 3.33394 2.66412 3.63204 2.66412 4C2.66412 4.3678 2.96231 4.66599 3.33011 4.66599H5.99415V5.66494C5.99415 5.8064 6.08342 5.93244 6.21689 5.97927C6.25231 5.99168 6.28957 5.99803 6.32709 5.99805C6.37704 5.99804 6.42635 5.9868 6.47136 5.96517C6.51638 5.94353 6.55596 5.91205 6.58717 5.87306L7.91915 4.20796C8.01657 4.08632 8.01656 3.91353 7.91914 3.79189ZM4.66217 6.66404L1.99805 6.66396C1.99629 6.66396 1.99461 6.66404 1.99285 6.66404C1.62793 6.66404 1.33206 6.36585 1.33206 5.99797V2.00196H1.33214C1.33214 2.0002 1.33206 1.99844 1.33206 1.99676C1.33206 1.63184 1.63025 1.33596 1.99805 1.33596H4.66217C5.02997 1.33596 5.32808 1.03778 5.32808 0.669896C5.32808 0.302014 5.02997 0.00390625 4.66217 0.00390625H1.33206C0.596371 0.00390625 0 0.600277 0 1.33596V6.66404C0 7.39964 0.596371 7.9961 1.33206 7.9961H4.66217C5.02997 7.9961 5.32808 7.69792 5.32808 7.33003C5.32808 6.96215 5.02997 6.66404 4.66217 6.66404Z" fill="#96584C"/>
</g>
<defs>
<clipPath id="clip0_737_136">
<rect width="8" height="8" fill="white"/>
</clipPath>
</defs>
</svg>
