<svg width="100" height="100" viewBox="0 0 100 100" fill="none" xmlns="http://www.w3.org/2000/svg">
<mask id="path-1-outside-1_1707_109" maskUnits="userSpaceOnUse" x="1.12646" y="8.08746" width="98" height="84" fill="black">
<rect fill="white" x="1.12646" y="8.08746" width="98" height="84"/>
<path d="M67.1875 74.8313C61.3871 78.9735 54.2806 80.8701 47.1875 80.1688C46.8563 80.1375 46.5313 80.0813 46.1938 80.0375C45.5563 79.95 44.9188 79.8688 44.3 79.7438C43.9186 79.6666 43.5393 79.579 43.1625 79.4813C42.5549 79.3471 41.9525 79.1907 41.3563 79.0125C41.075 78.925 40.7938 78.825 40.5063 78.725C39.6694 78.4459 38.8456 78.1289 38.0375 77.775C37.2609 77.4361 36.4997 77.0628 35.7563 76.6563L35.6563 76.6063C32.3245 74.7501 29.3712 72.2844 26.95 69.3375C26.8313 69.1938 26.7188 69.0313 26.6 68.8813C22.341 63.5051 20.0259 56.8463 20.0313 49.9875H26.9813C27.0728 49.9876 27.1625 49.9626 27.2408 49.9152C27.319 49.8678 27.3827 49.7999 27.425 49.7188C27.4689 49.6395 27.4898 49.5495 27.4854 49.459C27.481 49.3684 27.4514 49.2809 27.4 49.2063L15.7313 31.4688C15.6861 31.3978 15.6238 31.3393 15.5501 31.2989C15.4763 31.2584 15.3935 31.2371 15.3094 31.2371C15.2253 31.2371 15.1425 31.2584 15.0688 31.2989C14.995 31.3393 14.9327 31.3978 14.8875 31.4688L3.21254 49.2063C3.11254 49.35 3.09379 49.55 3.18754 49.7188C3.28129 49.8875 3.45004 49.9875 3.63129 49.9875H10.5813C10.5813 58.3875 13.1688 66.1688 17.5563 72.6C17.6125 72.6938 17.65 72.7875 17.7063 72.875C18.1625 73.5313 18.6688 74.1438 19.1563 74.7688C19.3375 75 19.5125 75.2438 19.7 75.475C20.4188 76.3625 21.1813 77.1813 21.9688 78L22.1875 78.225C25.6255 81.7166 29.6928 84.5264 34.175 86.5063L34.9 86.8313C35.7313 87.1813 36.5938 87.4875 37.45 87.7813C37.8563 87.9188 38.2563 88.0625 38.6688 88.1875C39.425 88.4125 40.1938 88.6 40.9688 88.7875C41.4875 88.9125 41.9938 89.0438 42.525 89.1438C42.7375 89.1938 42.9438 89.2563 43.1625 89.2875C43.8938 89.4188 44.625 89.4938 45.3625 89.5813L46.15 89.6938C55.5358 90.6503 64.9483 88.1528 72.625 82.6688C73.6535 81.9323 74.3515 80.8214 74.569 79.5753C74.7864 78.3292 74.5058 77.0475 73.7875 76.0063C73.4354 75.4908 72.984 75.0507 72.4598 74.7118C71.9355 74.3729 71.3489 74.142 70.7343 74.0326C70.1197 73.9231 69.4895 73.9374 68.8805 74.0746C68.2714 74.2117 67.6959 74.469 67.1875 74.8313ZM89.4313 49.9875C89.4377 41.9396 87.0178 34.0767 82.4875 27.425C82.4188 27.3125 82.375 27.2 82.3125 27.1063C81.7631 26.337 81.1878 25.5866 80.5875 24.8563L80.3813 24.5875C76.4443 19.7319 71.3986 15.893 65.6688 13.3938C65.5114 13.3234 65.3551 13.2505 65.2 13.175C64.2877 12.8036 63.3643 12.4597 62.4313 12.1438C62.075 12.0313 61.7438 11.9063 61.3938 11.8063C60.5766 11.5611 59.7511 11.3443 58.9188 11.1563C58.4625 11.05 58 10.9313 57.5313 10.8375C57.3 10.7938 57.0875 10.725 56.8563 10.6813C56.2313 10.5688 55.6063 10.525 54.9813 10.4438C54.5563 10.3875 54.125 10.3188 53.6938 10.275C52.6545 10.1826 51.6121 10.1305 50.5688 10.1188C50.3813 10.1188 50.1938 10.0875 50 10.0875C41.8956 10.0738 33.9904 12.5981 27.3938 17.3063C26.3626 18.0419 25.6621 19.1536 25.4434 20.4012C25.2248 21.6489 25.5055 22.9325 26.225 23.975C26.5782 24.4893 27.0302 24.9282 27.5547 25.266C28.0792 25.6039 28.6658 25.8339 29.2801 25.9426C29.8944 26.0514 30.5243 26.0368 31.1329 25.8997C31.7415 25.7625 32.3168 25.5055 32.825 25.1438C38.638 21.003 45.7536 19.107 52.8563 19.8063L53.65 19.9188C54.3688 20 55.075 20.1063 55.7688 20.2438C56.075 20.3 56.3813 20.3813 56.6813 20.45C57.3625 20.6063 58.05 20.775 58.7125 20.975L59.3375 21.1938C60.1 21.4438 60.8438 21.7125 61.5813 22.025L61.8125 22.1313C66.2188 24.05 70.0875 27.0063 73.1063 30.7063L73.1625 30.7813C77.5764 36.2104 79.9806 42.9968 79.9688 49.9938H73.025C72.9337 49.9928 72.8438 50.0169 72.7652 50.0634C72.6865 50.1099 72.6221 50.177 72.579 50.2575C72.5358 50.3381 72.5155 50.4289 72.5204 50.5201C72.5252 50.6113 72.5549 50.6995 72.6063 50.775L84.2875 68.5063C84.333 68.5759 84.3951 68.6331 84.4682 68.6727C84.5413 68.7123 84.6231 68.7331 84.7063 68.7331C84.7894 68.7331 84.8713 68.7123 84.9444 68.6727C85.0175 68.6331 85.0796 68.5759 85.125 68.5063L96.7938 50.775C96.8798 50.7741 96.964 50.751 97.0385 50.708C97.1129 50.665 97.175 50.6035 97.2188 50.5295C97.2626 50.4555 97.2865 50.3715 97.2883 50.2855C97.2901 50.1996 97.2697 50.1146 97.2291 50.0388C97.1885 49.9631 97.129 49.899 97.0564 49.853C96.9839 49.8069 96.9006 49.7803 96.8148 49.7757C96.7289 49.7712 96.6433 49.7889 96.5663 49.8271C96.4893 49.8653 96.4234 49.9227 96.375 49.9938H89.4313V49.9875Z"/>
</mask>
<path d="M67.1875 74.8313C61.3871 78.9735 54.2806 80.8701 47.1875 80.1688C46.8563 80.1375 46.5313 80.0813 46.1938 80.0375C45.5563 79.95 44.9188 79.8688 44.3 79.7438C43.9186 79.6666 43.5393 79.579 43.1625 79.4813C42.5549 79.3471 41.9525 79.1907 41.3563 79.0125C41.075 78.925 40.7938 78.825 40.5063 78.725C39.6694 78.4459 38.8456 78.1289 38.0375 77.775C37.2609 77.4361 36.4997 77.0628 35.7563 76.6563L35.6563 76.6063C32.3245 74.7501 29.3712 72.2844 26.95 69.3375C26.8313 69.1938 26.7188 69.0313 26.6 68.8813C22.341 63.5051 20.0259 56.8463 20.0313 49.9875H26.9813C27.0728 49.9876 27.1625 49.9626 27.2408 49.9152C27.319 49.8678 27.3827 49.7999 27.425 49.7188C27.4689 49.6395 27.4898 49.5495 27.4854 49.459C27.481 49.3684 27.4514 49.2809 27.4 49.2063L15.7313 31.4688C15.6861 31.3978 15.6238 31.3393 15.5501 31.2989C15.4763 31.2584 15.3935 31.2371 15.3094 31.2371C15.2253 31.2371 15.1425 31.2584 15.0688 31.2989C14.995 31.3393 14.9327 31.3978 14.8875 31.4688L3.21254 49.2063C3.11254 49.35 3.09379 49.55 3.18754 49.7188C3.28129 49.8875 3.45004 49.9875 3.63129 49.9875H10.5813C10.5813 58.3875 13.1688 66.1688 17.5563 72.6C17.6125 72.6938 17.65 72.7875 17.7063 72.875C18.1625 73.5313 18.6688 74.1438 19.1563 74.7688C19.3375 75 19.5125 75.2438 19.7 75.475C20.4188 76.3625 21.1813 77.1813 21.9688 78L22.1875 78.225C25.6255 81.7166 29.6928 84.5264 34.175 86.5063L34.9 86.8313C35.7313 87.1813 36.5938 87.4875 37.45 87.7813C37.8563 87.9188 38.2563 88.0625 38.6688 88.1875C39.425 88.4125 40.1938 88.6 40.9688 88.7875C41.4875 88.9125 41.9938 89.0438 42.525 89.1438C42.7375 89.1938 42.9438 89.2563 43.1625 89.2875C43.8938 89.4188 44.625 89.4938 45.3625 89.5813L46.15 89.6938C55.5358 90.6503 64.9483 88.1528 72.625 82.6688C73.6535 81.9323 74.3515 80.8214 74.569 79.5753C74.7864 78.3292 74.5058 77.0475 73.7875 76.0063C73.4354 75.4908 72.984 75.0507 72.4598 74.7118C71.9355 74.3729 71.3489 74.142 70.7343 74.0326C70.1197 73.9231 69.4895 73.9374 68.8805 74.0746C68.2714 74.2117 67.6959 74.469 67.1875 74.8313ZM89.4313 49.9875C89.4377 41.9396 87.0178 34.0767 82.4875 27.425C82.4188 27.3125 82.375 27.2 82.3125 27.1063C81.7631 26.337 81.1878 25.5866 80.5875 24.8563L80.3813 24.5875C76.4443 19.7319 71.3986 15.893 65.6688 13.3938C65.5114 13.3234 65.3551 13.2505 65.2 13.175C64.2877 12.8036 63.3643 12.4597 62.4313 12.1438C62.075 12.0313 61.7438 11.9063 61.3938 11.8063C60.5766 11.5611 59.7511 11.3443 58.9188 11.1563C58.4625 11.05 58 10.9313 57.5313 10.8375C57.3 10.7938 57.0875 10.725 56.8563 10.6813C56.2313 10.5688 55.6063 10.525 54.9813 10.4438C54.5563 10.3875 54.125 10.3188 53.6938 10.275C52.6545 10.1826 51.6121 10.1305 50.5688 10.1188C50.3813 10.1188 50.1938 10.0875 50 10.0875C41.8956 10.0738 33.9904 12.5981 27.3938 17.3063C26.3626 18.0419 25.6621 19.1536 25.4434 20.4012C25.2248 21.6489 25.5055 22.9325 26.225 23.975C26.5782 24.4893 27.0302 24.9282 27.5547 25.266C28.0792 25.6039 28.6658 25.8339 29.2801 25.9426C29.8944 26.0514 30.5243 26.0368 31.1329 25.8997C31.7415 25.7625 32.3168 25.5055 32.825 25.1438C38.638 21.003 45.7536 19.107 52.8563 19.8063L53.65 19.9188C54.3688 20 55.075 20.1063 55.7688 20.2438C56.075 20.3 56.3813 20.3813 56.6813 20.45C57.3625 20.6063 58.05 20.775 58.7125 20.975L59.3375 21.1938C60.1 21.4438 60.8438 21.7125 61.5813 22.025L61.8125 22.1313C66.2188 24.05 70.0875 27.0063 73.1063 30.7063L73.1625 30.7813C77.5764 36.2104 79.9806 42.9968 79.9688 49.9938H73.025C72.9337 49.9928 72.8438 50.0169 72.7652 50.0634C72.6865 50.1099 72.6221 50.177 72.579 50.2575C72.5358 50.3381 72.5155 50.4289 72.5204 50.5201C72.5252 50.6113 72.5549 50.6995 72.6063 50.775L84.2875 68.5063C84.333 68.5759 84.3951 68.6331 84.4682 68.6727C84.5413 68.7123 84.6231 68.7331 84.7063 68.7331C84.7894 68.7331 84.8713 68.7123 84.9444 68.6727C85.0175 68.6331 85.0796 68.5759 85.125 68.5063L96.7938 50.775C96.8798 50.7741 96.964 50.751 97.0385 50.708C97.1129 50.665 97.175 50.6035 97.2188 50.5295C97.2626 50.4555 97.2865 50.3715 97.2883 50.2855C97.2901 50.1996 97.2697 50.1146 97.2291 50.0388C97.1885 49.9631 97.129 49.899 97.0564 49.853C96.9839 49.8069 96.9006 49.7803 96.8148 49.7757C96.7289 49.7712 96.6433 49.7889 96.5663 49.8271C96.4893 49.8653 96.4234 49.9227 96.375 49.9938H89.4313V49.9875Z" fill="#F8D176"/>
<path d="M67.1875 74.8313C61.3871 78.9735 54.2806 80.8701 47.1875 80.1688C46.8563 80.1375 46.5313 80.0813 46.1938 80.0375C45.5563 79.95 44.9188 79.8688 44.3 79.7438C43.9186 79.6666 43.5393 79.579 43.1625 79.4813C42.5549 79.3471 41.9525 79.1907 41.3563 79.0125C41.075 78.925 40.7938 78.825 40.5063 78.725C39.6694 78.4459 38.8456 78.1289 38.0375 77.775C37.2609 77.4361 36.4997 77.0628 35.7563 76.6563L35.6563 76.6063C32.3245 74.7501 29.3712 72.2844 26.95 69.3375C26.8313 69.1938 26.7188 69.0313 26.6 68.8813C22.341 63.5051 20.0259 56.8463 20.0313 49.9875H26.9813C27.0728 49.9876 27.1625 49.9626 27.2408 49.9152C27.319 49.8678 27.3827 49.7999 27.425 49.7188C27.4689 49.6395 27.4898 49.5495 27.4854 49.459C27.481 49.3684 27.4514 49.2809 27.4 49.2063L15.7313 31.4688C15.6861 31.3978 15.6238 31.3393 15.5501 31.2989C15.4763 31.2584 15.3935 31.2371 15.3094 31.2371C15.2253 31.2371 15.1425 31.2584 15.0688 31.2989C14.995 31.3393 14.9327 31.3978 14.8875 31.4688L3.21254 49.2063C3.11254 49.35 3.09379 49.55 3.18754 49.7188C3.28129 49.8875 3.45004 49.9875 3.63129 49.9875H10.5813C10.5813 58.3875 13.1688 66.1688 17.5563 72.6C17.6125 72.6938 17.65 72.7875 17.7063 72.875C18.1625 73.5313 18.6688 74.1438 19.1563 74.7688C19.3375 75 19.5125 75.2438 19.7 75.475C20.4188 76.3625 21.1813 77.1813 21.9688 78L22.1875 78.225C25.6255 81.7166 29.6928 84.5264 34.175 86.5063L34.9 86.8313C35.7313 87.1813 36.5938 87.4875 37.45 87.7813C37.8563 87.9188 38.2563 88.0625 38.6688 88.1875C39.425 88.4125 40.1938 88.6 40.9688 88.7875C41.4875 88.9125 41.9938 89.0438 42.525 89.1438C42.7375 89.1938 42.9438 89.2563 43.1625 89.2875C43.8938 89.4188 44.625 89.4938 45.3625 89.5813L46.15 89.6938C55.5358 90.6503 64.9483 88.1528 72.625 82.6688C73.6535 81.9323 74.3515 80.8214 74.569 79.5753C74.7864 78.3292 74.5058 77.0475 73.7875 76.0063C73.4354 75.4908 72.984 75.0507 72.4598 74.7118C71.9355 74.3729 71.3489 74.142 70.7343 74.0326C70.1197 73.9231 69.4895 73.9374 68.8805 74.0746C68.2714 74.2117 67.6959 74.469 67.1875 74.8313ZM89.4313 49.9875C89.4377 41.9396 87.0178 34.0767 82.4875 27.425C82.4188 27.3125 82.375 27.2 82.3125 27.1063C81.7631 26.337 81.1878 25.5866 80.5875 24.8563L80.3813 24.5875C76.4443 19.7319 71.3986 15.893 65.6688 13.3938C65.5114 13.3234 65.3551 13.2505 65.2 13.175C64.2877 12.8036 63.3643 12.4597 62.4313 12.1438C62.075 12.0313 61.7438 11.9063 61.3938 11.8063C60.5766 11.5611 59.7511 11.3443 58.9188 11.1563C58.4625 11.05 58 10.9313 57.5313 10.8375C57.3 10.7938 57.0875 10.725 56.8563 10.6813C56.2313 10.5688 55.6063 10.525 54.9813 10.4438C54.5563 10.3875 54.125 10.3188 53.6938 10.275C52.6545 10.1826 51.6121 10.1305 50.5688 10.1188C50.3813 10.1188 50.1938 10.0875 50 10.0875C41.8956 10.0738 33.9904 12.5981 27.3938 17.3063C26.3626 18.0419 25.6621 19.1536 25.4434 20.4012C25.2248 21.6489 25.5055 22.9325 26.225 23.975C26.5782 24.4893 27.0302 24.9282 27.5547 25.266C28.0792 25.6039 28.6658 25.8339 29.2801 25.9426C29.8944 26.0514 30.5243 26.0368 31.1329 25.8997C31.7415 25.7625 32.3168 25.5055 32.825 25.1438C38.638 21.003 45.7536 19.107 52.8563 19.8063L53.65 19.9188C54.3688 20 55.075 20.1063 55.7688 20.2438C56.075 20.3 56.3813 20.3813 56.6813 20.45C57.3625 20.6063 58.05 20.775 58.7125 20.975L59.3375 21.1938C60.1 21.4438 60.8438 21.7125 61.5813 22.025L61.8125 22.1313C66.2188 24.05 70.0875 27.0063 73.1063 30.7063L73.1625 30.7813C77.5764 36.2104 79.9806 42.9968 79.9688 49.9938H73.025C72.9337 49.9928 72.8438 50.0169 72.7652 50.0634C72.6865 50.1099 72.6221 50.177 72.579 50.2575C72.5358 50.3381 72.5155 50.4289 72.5204 50.5201C72.5252 50.6113 72.5549 50.6995 72.6063 50.775L84.2875 68.5063C84.333 68.5759 84.3951 68.6331 84.4682 68.6727C84.5413 68.7123 84.6231 68.7331 84.7063 68.7331C84.7894 68.7331 84.8713 68.7123 84.9444 68.6727C85.0175 68.6331 85.0796 68.5759 85.125 68.5063L96.7938 50.775C96.8798 50.7741 96.964 50.751 97.0385 50.708C97.1129 50.665 97.175 50.6035 97.2188 50.5295C97.2626 50.4555 97.2865 50.3715 97.2883 50.2855C97.2901 50.1996 97.2697 50.1146 97.2291 50.0388C97.1885 49.9631 97.129 49.899 97.0564 49.853C96.9839 49.8069 96.9006 49.7803 96.8148 49.7757C96.7289 49.7712 96.6433 49.7889 96.5663 49.8271C96.4893 49.8653 96.4234 49.9227 96.375 49.9938H89.4313V49.9875Z" stroke="#5E4D2C" stroke-width="3" mask="url(#path-1-outside-1_1707_109)"/>
<path d="M49.776 31.6448C49.3643 31.6442 48.9528 31.6629 48.5429 31.7007C48.4837 31.4185 48.384 31.1454 48.2461 30.89L48.2461 30.89L48.2444 30.887C47.265 29.1032 44.8071 28.8937 42.8869 30.0654C40.9705 31.2349 39.9392 33.5404 40.9037 35.3009C40.987 35.453 41.084 35.5969 41.1933 35.7308C40.7736 36.4672 40.5477 37.3007 40.5401 38.1527L40.54 38.1527V38.1572C40.54 40.0291 41.6432 41.6691 43.3154 42.8198C44.9898 43.9719 47.2755 44.6685 49.7759 44.6685C52.2761 44.6685 54.5618 43.9728 56.2363 42.8211C57.9087 41.6707 59.0117 40.0306 59.0117 38.1572L59.0117 38.1543C59.0074 37.4177 58.8379 36.6935 58.5179 36.0343C58.7488 35.8243 58.9443 35.5771 59.0959 35.3019L59.0964 35.3009C60.0606 33.5409 59.0302 31.2307 57.1136 30.065C55.1956 28.8985 52.7364 29.1027 51.7556 30.8892L51.7539 30.8924C51.6082 31.1625 51.5052 31.4522 51.4475 31.7513C50.8934 31.68 50.3351 31.6444 49.776 31.6448ZM49.776 31.6448C49.7762 31.6448 49.7764 31.6448 49.7765 31.6448L49.7759 32.1448L49.7756 31.6448C49.7757 31.6448 49.7759 31.6448 49.776 31.6448Z" fill="#B4C55B" stroke="#555E4B"/>
<path d="M58.6579 35.0607C59.446 33.6221 58.6375 31.5771 56.8538 30.4922C55.07 29.4074 52.9831 29.6923 52.1939 31.1298C51.9962 31.4965 51.8927 31.9066 51.8929 32.3232C51.1935 32.204 50.4853 32.1443 49.7759 32.1448C49.2175 32.144 48.6597 32.1799 48.1061 32.2523C48.0958 31.859 47.9931 31.4738 47.8061 31.1276C47.018 29.6923 44.9322 29.4031 43.1474 30.4922C41.3626 31.5814 40.5541 33.6221 41.3422 35.0607C41.4669 35.2885 41.629 35.4939 41.8217 35.6681C41.3201 36.4019 41.048 37.2683 41.04 38.1572C41.04 41.4773 44.9515 44.1685 49.7759 44.1685C54.6002 44.1685 58.5117 41.4805 58.5117 38.1572C58.5071 37.3611 58.2875 36.581 57.8763 35.8993C58.2022 35.6887 58.4707 35.4005 58.6579 35.0607ZM42.5571 33.4479C42.5571 32.8394 42.7988 32.2558 43.2291 31.8255C43.6594 31.3952 44.243 31.1535 44.8515 31.1535C45.4601 31.1535 46.0437 31.3952 46.474 31.8255C46.9042 32.2558 47.146 32.8394 47.146 33.4479C47.146 34.0564 46.9042 34.64 46.474 35.0703C46.0437 35.5006 45.4601 35.7423 44.8515 35.7423C44.243 35.7423 43.6594 35.5006 43.2291 35.0703C42.7988 34.64 42.5571 34.0564 42.5571 33.4479ZM55.3937 39.7043C55.3077 39.7925 54.5002 40.5645 52.6939 40.5645C51.5112 40.5645 50.7005 39.9312 50.1672 39.5119C49.9941 39.3753 49.7587 39.1893 49.6597 39.1625C49.5522 39.1947 49.3082 39.4173 49.1437 39.5657C48.6738 39.9914 48.0416 40.5688 47.1535 40.5688C45.8246 40.5688 44.4924 39.8506 44.4365 39.8162C44.3727 39.7835 44.316 39.7383 44.2699 39.6834C44.2238 39.6284 44.1891 39.5648 44.168 39.4963C44.1468 39.4277 44.1396 39.3556 44.1467 39.2843C44.1538 39.2129 44.1752 39.1437 44.2095 39.0807C44.2438 39.0177 44.2903 38.9622 44.3464 38.9174C44.4025 38.8727 44.467 38.8396 44.536 38.8202C44.6051 38.8008 44.6773 38.7954 44.7485 38.8043C44.8197 38.8132 44.8883 38.8363 44.9505 38.8722C44.9773 38.8861 46.1095 39.4893 47.1535 39.4893C47.6266 39.4893 48.0309 39.1238 48.4222 38.7689C48.8136 38.4141 49.1748 38.0851 49.6587 38.0851C50.0887 38.0851 50.4522 38.3679 50.8328 38.6668C51.323 39.0517 51.8778 39.4893 52.6939 39.4893C54.0443 39.4893 54.6066 38.9657 54.6292 38.9431C54.7289 38.8438 54.8635 38.7874 55.0042 38.7862C55.1449 38.785 55.2805 38.839 55.3818 38.9367C55.4337 38.9859 55.4751 39.045 55.5038 39.1105C55.5325 39.176 55.5479 39.2465 55.549 39.318C55.5501 39.3895 55.5369 39.4605 55.5102 39.5268C55.4836 39.5932 55.4439 39.6535 55.3937 39.7043ZM57.544 33.449C57.5436 33.9027 57.4087 34.3461 57.1563 34.7231C56.9039 35.1001 56.5454 35.3939 56.1261 35.5672C55.7069 35.7405 55.2456 35.7857 54.8007 35.6969C54.3557 35.6081 53.9471 35.3894 53.6264 35.0685C53.3058 34.7475 53.0875 34.3387 52.9991 33.8936C52.9107 33.4486 52.9563 32.9874 53.13 32.5683C53.3037 32.1491 53.5978 31.7909 53.9751 31.5389C54.3524 31.2869 54.7959 31.1524 55.2496 31.1524C55.551 31.1525 55.8495 31.212 56.128 31.3275C56.4064 31.443 56.6594 31.6122 56.8725 31.8255C57.0855 32.0387 57.2545 32.2919 57.3697 32.5704C57.4849 32.849 57.5442 33.1475 57.544 33.449Z" fill="#B4C55B"/>
<circle cx="44.8496" cy="33.4739" r="2.32515" fill="#555E4B"/>
<circle cx="44.2677" cy="32.9023" r="0.906885" fill="white"/>
<circle cx="55.2719" cy="33.4739" r="2.32515" fill="#555E4B"/>
<path d="M44.6777 38.3482C45.5355 38.7514 46.4074 39.0654 47.298 39.0326C48.2229 38.9985 49.095 37.6061 49.6615 37.6061C50.228 37.6061 51.1792 38.9859 52.5357 39.0196C53.8922 39.0533 54.3858 38.7959 55.0128 38.3286" stroke="#555E4B" stroke-width="0.9" stroke-linecap="round" stroke-linejoin="round"/>
<circle cx="54.7665" cy="32.9023" r="0.906885" fill="white"/>
<path d="M44.1897 53.8948L44.3504 53.7613L44.3611 53.7533L44.4053 53.7201C44.4119 53.7151 44.4204 53.7087 44.4288 53.7022C44.4291 53.7021 44.4293 53.7019 44.4295 53.7018C44.4442 53.692 44.4614 53.6804 44.4763 53.6702L44.4991 53.6543L44.5028 53.6517L44.6184 53.577C44.6894 53.5338 44.7633 53.4951 44.8396 53.4611L44.8618 53.4512L44.883 53.4392C45.19 53.2648 45.4142 52.9759 45.5054 52.6345C45.5965 52.2934 45.5467 51.9314 45.372 51.6261L45.372 51.6261L45.3699 51.6224C45.2809 51.4698 45.1629 51.3359 45.0231 51.2281C44.8832 51.1203 44.7238 51.0403 44.5537 50.9927C44.3836 50.9451 44.2057 50.9307 44.0301 50.951C43.8632 50.9702 43.7013 51.0203 43.553 51.0993C42.4888 51.571 41.6407 52.541 41.0062 53.3118L41.0062 53.3118L41.0041 53.3144C40.4967 53.9391 40.0313 54.6121 39.5788 55.2665C39.3662 55.5739 39.1564 55.8773 38.9464 56.1696L38.9319 56.1898L38.9195 56.2113C38.7406 56.5212 38.6967 56.8891 38.7934 57.2325C38.8899 57.5754 39.1184 57.8661 39.4262 58.0438C39.7339 58.2215 40.1 58.274 40.4451 58.1862C40.7819 58.1005 41.072 57.8878 41.2522 57.5905C41.4735 57.2828 41.6908 56.9669 41.9065 56.6534C42.0046 56.5108 42.1024 56.3687 42.2 56.2281L42.2 56.2281L42.2032 56.2235C42.3328 56.0324 42.4668 55.842 42.6051 55.6525L42.6051 55.6525L42.6073 55.6494C42.7771 55.4132 42.8279 55.348 42.9926 55.1455L42.9926 55.1455L42.9948 55.1428C43.2877 54.7772 43.6051 54.4316 43.945 54.1081C44.0222 54.0355 44.102 53.9658 44.1845 53.8991L44.1845 53.8992L44.1897 53.8948Z" fill="#ADBF6D" stroke="#555E4B"/>
<path d="M37.0296 67.1365L37.0299 67.1363C38.8649 65.7958 39.541 63.389 38.2864 61.7117C37.0321 60.0349 34.4804 60.0015 32.6531 61.3364C31.7132 62.0229 31.0907 63.0158 30.8488 64.0365C30.6076 65.0545 30.7378 66.1442 31.3729 66.98C32.0139 67.8235 33.0011 68.1885 34.0196 68.1821C35.0348 68.1757 36.1139 67.8043 37.0296 67.1365Z" fill="#ADBF6D" stroke="#555E4B"/>
<path d="M39.1642 59.1829L39.1599 59.1898L39.1558 59.1969C38.6756 60.0286 38.8588 61.0457 39.2569 61.8735C39.6619 62.7154 40.3504 63.5011 41.1152 63.9426C41.9437 64.421 42.9924 64.4027 43.9028 64.0876C44.8182 63.7708 45.6835 63.1249 46.1412 62.2212L46.1412 62.2211C46.5552 61.4033 46.6779 60.5516 46.3526 59.7406C46.0329 58.9436 45.3188 58.2831 44.2687 57.7508L44.2688 57.7506L44.2577 57.7454C43.3697 57.3223 42.36 57.2324 41.4204 57.4961C40.4803 57.76 39.6762 58.3596 39.1642 59.1829Z" fill="#ADBF6D" stroke="#555E4B"/>
<path d="M37.0127 52.014L37.0047 52.0082L36.9964 52.0027C35.9417 51.3038 34.8289 51.411 33.9309 51.8266C33.0506 52.2341 32.3293 52.9539 31.9578 53.5974C31.3498 54.6505 31.0716 55.677 31.2296 56.6132C31.3909 57.5694 31.9911 58.3381 32.9418 58.8869C33.8772 59.427 34.9574 59.6607 35.91 59.6085C36.8387 59.5578 37.7639 59.2233 38.236 58.4878C38.9186 57.4768 39.1707 56.2366 38.9419 55.0296C38.7129 53.821 38.02 52.7407 37.0127 52.014Z" fill="#ADBF6D" stroke="#555E4B"/>
<mask id="mask0_1707_109" style="mask-type:alpha" maskUnits="userSpaceOnUse" x="31" y="60" width="8" height="8">
<path d="M36.735 66.7325C35.0552 67.9575 32.8201 68.0581 31.771 66.6774C30.7218 65.2968 31.2662 62.9687 32.948 61.7401C34.6299 60.5115 36.8468 60.6219 37.886 62.0112C38.9252 63.4006 38.4168 65.5039 36.735 66.7325Z" fill="#ADBF6D"/>
</mask>
<g mask="url(#mask0_1707_109)">
<path d="M33.6161 65.4025C34.3935 64.9302 35.7486 62.9968 37.5122 60.6238" stroke="#99AB57" stroke-linecap="round"/>
</g>
<mask id="mask1_1707_109" style="mask-type:alpha" maskUnits="userSpaceOnUse" x="39" y="57" width="8" height="7">
<path d="M39.5888 59.4469C40.0339 58.7312 40.734 58.2081 41.5555 57.9775C42.377 57.7469 43.2623 57.825 44.0426 58.1967C46.0246 59.2015 46.4322 60.539 45.6951 61.9953C44.92 63.526 42.6981 64.2792 41.3652 63.5096C40.0323 62.7401 38.8698 60.6923 39.5888 59.4469Z" fill="#ADBF6D"/>
</mask>
<g mask="url(#mask1_1707_109)">
<path d="M44.29 60.7232C43.2953 60.4498 40.8084 59.9919 38.8179 60.3477" stroke="#99AB57" stroke-linecap="round"/>
</g>
<mask id="mask2_1707_109" style="mask-type:alpha" maskUnits="userSpaceOnUse" x="31" y="51" width="8" height="9">
<path d="M32.3908 53.8474C33.0348 52.732 34.9706 51.2601 36.7202 52.4195C37.6254 53.0725 38.2458 54.0418 38.4507 55.1227C38.6555 56.2037 38.4287 57.3117 37.8182 58.213C37.126 59.3007 34.8912 59.4351 33.1918 58.4539C31.4923 57.4728 31.2404 55.84 32.3908 53.8474Z" fill="#ADBF6D"/>
</mask>
<g mask="url(#mask2_1707_109)">
<path d="M34.3598 54.4771C34.7527 55.4357 35.8233 58.5195 37.9675 59.7877" stroke="#99AB57" stroke-linecap="round"/>
</g>
<path d="M62.4368 68.7437L69.417 63.782C70.3527 63.1169 70.8333 61.981 70.6591 60.8463L69.9657 56.3282C69.7794 55.1148 68.8808 54.1329 67.6886 53.8401L59.0474 51.7174C58.1577 51.4989 57.2169 51.6937 56.4872 52.2476L55.6388 52.8915C54.9692 53.3997 54.5403 54.1627 54.4541 54.9989L53.5596 63.6762C53.4351 64.8841 54.0422 66.05 55.1031 66.6407L59.2005 68.9218C60.2234 69.4913 61.4826 69.4219 62.4368 68.7437Z" fill="#A7DBD7"/>
<path d="M54.9108 54.7289L57.5731 62.0436C57.0958 62.5961 56.097 63.736 55.9207 63.8759C55.7444 64.0158 54.444 64.7605 53.8157 65.1153L53.7881 61.5279L54.5275 56.1466L54.9108 54.7289Z" fill="#95C9C7"/>
<path d="M58.7368 52.6264L64.4158 57.565L67.3 56.5152L69.462 55.3024L69.1121 54.3411L63.9053 52.7808L59.2688 52.0069L58.7368 52.6264Z" fill="#94CBC8"/>
<path d="M64.6785 58.9368L67.4126 64.7579L64.4948 67.1454L63.4499 67.5257C62.6516 66.8064 61.0034 65.3299 60.7966 65.178C60.5899 65.026 59.4027 63.2555 58.8349 62.3892L62.0871 59.88L64.6785 58.9368Z" fill="#94CBC8"/>
<path fill-rule="evenodd" clip-rule="evenodd" d="M68.5255 64.5126L66.8358 65.1942L63.9364 58.0063L56.8518 52.6878L57.9457 51.2307L65.4362 56.854L68.5255 64.5126Z" fill="#68B2AD"/>
<path fill-rule="evenodd" clip-rule="evenodd" d="M58.8458 61.5732L63.9612 67.1695L62.6164 68.3987L57.2573 62.5358L54.2088 54.1602L55.9209 53.5371L58.8458 61.5732Z" fill="#68B2AD"/>
<path fill-rule="evenodd" clip-rule="evenodd" d="M53.4767 65.0242C57.587 60.7857 62.0941 58.2235 69.0851 54.7999L69.8864 56.4362C62.9229 59.8462 58.6612 62.2951 54.7846 66.2926L53.4767 65.0242Z" fill="#68B2AD"/>
<path d="M61.9034 69.1225L69.9377 63.4114C70.554 62.9734 70.8706 62.2252 70.7558 61.4779L69.8604 55.6438C69.7377 54.8446 69.1458 54.1979 68.3606 54.005L58.567 51.5993C57.981 51.4554 57.3614 51.5837 56.8807 51.9485L55.2802 53.1633C54.8392 53.498 54.5567 54.0006 54.4999 54.5513L53.4893 64.3556C53.4073 65.1512 53.8071 65.9191 54.5059 66.3082L59.7718 69.2398C60.4455 69.6149 61.2749 69.5692 61.9034 69.1225Z" stroke="#575E4D" stroke-width="1.2" stroke-linecap="round" stroke-linejoin="round"/>
</svg>
