<svg width="20" height="20" viewBox="0 0 20 20" fill="none" xmlns="http://www.w3.org/2000/svg">
<g id="Group 268">
<g id="Group 267">
<path id="Vector" d="M9.81347 5.45395C9.49218 5.45354 9.1711 5.46704 8.85114 5.4944C8.79899 5.27709 8.71872 5.06671 8.61179 4.86874L8.61181 4.86874L8.61014 4.86571C7.76206 3.32111 5.65177 3.15981 4.02912 4.15002C2.41022 5.13794 1.51365 7.1033 2.34666 8.624C2.40939 8.73856 2.48112 8.84769 2.56107 8.95041C2.22208 9.56416 2.03976 10.2545 2.03347 10.9598H2.03345V10.9643C2.03345 12.5595 2.97359 13.9491 4.38234 14.9185C5.79328 15.8893 7.71497 16.4737 9.8133 16.4737C11.9115 16.4737 13.8332 15.89 15.2442 14.9195C16.6531 13.9504 17.5932 12.5608 17.5932 10.9643L17.5931 10.9614C17.5896 10.3558 17.4547 9.76001 17.1998 9.21451C17.3793 9.04279 17.5323 8.84421 17.653 8.62507L17.6535 8.62409C18.4864 7.10383 17.5907 5.1345 15.9714 4.14964C14.3507 3.16394 12.2393 3.32062 11.3901 4.86753L11.3883 4.87079C11.2753 5.08022 11.1922 5.30338 11.1404 5.53381C10.7003 5.48039 10.2572 5.4537 9.81347 5.45395ZM9.81347 5.45395C9.81363 5.45395 9.8138 5.45395 9.81396 5.45395L9.8133 5.95395L9.81299 5.45395C9.81315 5.45395 9.81331 5.45395 9.81347 5.45395Z" fill="#B4C55B" stroke="#555E4B"/>
<path id="Vector_2" d="M17.215 8.38386C17.8718 7.18503 17.198 5.48088 15.7116 4.57683C14.2251 3.67278 12.486 3.91022 11.8284 5.10815C11.6635 5.41372 11.5773 5.7555 11.5775 6.10269C10.9947 6.00334 10.4045 5.95359 9.8133 5.95395C9.34802 5.95334 8.8832 5.98327 8.42184 6.04355C8.41328 5.71585 8.32764 5.39478 8.17186 5.10635C7.51511 3.91022 5.7769 3.6692 4.28957 4.57683C2.80224 5.48446 2.12846 7.18503 2.78522 8.38386C2.8892 8.57375 3.02427 8.74486 3.18483 8.89009C2.7668 9.50159 2.54006 10.2236 2.53345 10.9643C2.53345 13.7311 5.79303 15.9737 9.8133 15.9737C13.8336 15.9737 17.0932 13.7338 17.0932 10.9643C17.0893 10.3009 16.9064 9.65078 16.5636 9.08272C16.8352 8.90722 17.059 8.6671 17.215 8.38386ZM3.79768 7.03988C3.79768 6.53278 3.99912 6.04645 4.3577 5.68788C4.71627 5.3293 5.2026 5.12786 5.7097 5.12786C6.2168 5.12786 6.70314 5.3293 7.06171 5.68788C7.42028 6.04645 7.62173 6.53278 7.62173 7.03988C7.62173 7.54699 7.42028 8.03332 7.06171 8.39189C6.70314 8.75047 6.2168 8.95191 5.7097 8.95191C5.2026 8.95191 4.71627 8.75047 4.3577 8.39189C3.99912 8.03332 3.79768 7.54699 3.79768 7.03988ZM14.4948 12.2536C14.4231 12.3271 13.7502 12.9704 12.245 12.9704C11.2594 12.9704 10.5838 12.4427 10.1394 12.0932C9.99519 11.9794 9.79897 11.8244 9.71654 11.802C9.62694 11.8289 9.42355 12.0144 9.28646 12.138C8.89492 12.4928 8.36808 12.974 7.628 12.974C6.52057 12.974 5.41045 12.3755 5.36385 12.3468C5.31065 12.3195 5.26344 12.2819 5.225 12.2361C5.18656 12.1903 5.15768 12.1373 5.14004 12.0802C5.12241 12.0231 5.11639 11.963 5.12233 11.9035C5.12827 11.8441 5.14606 11.7864 5.17464 11.7339C5.20323 11.6814 5.24203 11.6351 5.28876 11.5978C5.3355 11.5606 5.38922 11.533 5.44676 11.5168C5.50431 11.5006 5.56451 11.4961 5.62383 11.5036C5.68314 11.511 5.74037 11.5302 5.79213 11.5601C5.81453 11.5718 6.758 12.0744 7.628 12.0744C8.02223 12.0744 8.35912 11.7698 8.68526 11.4741C9.0114 11.1784 9.31245 10.9043 9.71564 10.9043C10.074 10.9043 10.3769 11.1399 10.6941 11.389C11.1026 11.7097 11.5649 12.0744 12.245 12.0744C13.3703 12.0744 13.8389 11.6381 13.8578 11.6192C13.9408 11.5364 14.053 11.4895 14.1703 11.4885C14.2875 11.4875 14.4005 11.5325 14.485 11.6139C14.5281 11.6549 14.5627 11.7042 14.5866 11.7587C14.6105 11.8133 14.6233 11.8721 14.6242 11.9317C14.6252 11.9912 14.6142 12.0504 14.592 12.1057C14.5697 12.161 14.5367 12.2112 14.4948 12.2536ZM16.2868 7.04078C16.2864 7.41887 16.174 7.78836 15.9637 8.10256C15.7534 8.41675 15.4546 8.66154 15.1052 8.80598C14.7558 8.95043 14.3714 8.98804 14.0006 8.91406C13.6299 8.84008 13.2893 8.65783 13.0221 8.39036C12.7549 8.12289 12.573 7.7822 12.4993 7.41135C12.4257 7.0405 12.4637 6.65615 12.6084 6.30687C12.7532 5.9576 12.9983 5.65909 13.3127 5.44907C13.6271 5.23906 13.9967 5.12696 14.3747 5.12696C14.626 5.12708 14.8747 5.17668 15.1067 5.27292C15.3388 5.36916 15.5496 5.51016 15.7271 5.68788C15.9047 5.86559 16.0455 6.07654 16.1415 6.30867C16.2375 6.5408 16.2869 6.78957 16.2868 7.04078Z" fill="#B4C55B"/>
<circle id="Ellipse 30" cx="5.70789" cy="7.06165" r="1.93762" fill="#555E4B"/>
<circle id="Ellipse 32" cx="5.2231" cy="6.5853" r="0.755737" fill="white"/>
<circle id="Ellipse 31" cx="14.3932" cy="7.06165" r="1.93762" fill="#555E4B"/>
<path id="Vector 26" d="M5.5647 11.1235C6.27954 11.4594 7.0061 11.7212 7.74829 11.6938C8.51898 11.6654 9.24576 10.5051 9.71786 10.5051C10.1899 10.5051 10.9826 11.6549 12.113 11.683C13.2434 11.7111 13.6547 11.4966 14.1772 11.1072" stroke="#555E4B" stroke-width="0.9" stroke-linecap="round" stroke-linejoin="round"/>
<circle id="Ellipse 33" cx="13.9721" cy="6.5853" r="0.755737" fill="white"/>
</g>
</g>
</svg>
