<svg width="16" height="16" viewBox="0 0 16 16" fill="none" xmlns="http://www.w3.org/2000/svg">
<path d="M8 3.25907C7.4483 3.25907 6.9207 3.34922 6.41588 3.52944C5.91763 3.70489 5.45292 3.96398 5.04173 4.29558L11.7041 10.9591C12.0358 10.5471 12.2915 10.09 12.4712 9.58457C12.6514 9.08084 12.7413 8.55123 12.7408 8.00076C12.7408 7.35861 12.6157 6.74371 12.3644 6.15949C12.1134 5.57357 11.7768 5.06984 11.3545 4.64652C10.932 4.22475 10.4277 3.88679 9.84228 3.63728C9.25628 3.38622 8.64262 3.2607 8.00077 3.2607L8 3.25907ZM10.9589 11.7044L4.29659 5.04087C3.96698 5.45607 3.71222 5.91485 3.53107 6.4202C3.34954 6.92563 3.25916 7.45192 3.25916 8.00076C3.25916 8.64138 3.38453 9.25627 3.63574 9.84212C3.88664 10.4264 4.22321 10.9318 4.64568 11.3535C5.06814 11.7768 5.57234 12.1132 6.15819 12.3643C6.74388 12.6153 7.35738 12.7409 7.99938 12.7409C8.55093 12.7409 9.07861 12.6508 9.58334 12.4705C10.0879 12.2919 10.5462 12.0359 10.9574 11.7027L10.959 11.7044H10.9589ZM8 2.20642C8.78746 2.20642 9.53877 2.35937 10.2532 2.66512C10.9675 2.96932 11.5832 3.38136 12.1006 3.89969C12.6179 4.41632 13.0293 5.03276 13.335 5.74745C13.6412 6.46199 13.7936 7.21207 13.7936 7.99922C13.7936 8.78792 13.6412 9.53792 13.335 10.2525C13.0293 10.9672 12.6179 11.5837 12.1006 12.1003C11.5832 12.6186 10.9674 13.029 10.2532 13.3349C9.53877 13.6406 8.78746 13.7936 8 13.7936C7.21254 13.7936 6.46154 13.6406 5.7473 13.3349C5.03253 13.029 4.41695 12.6186 3.89939 12.1003C3.38245 11.5837 2.97103 10.9672 2.66512 10.2525C2.35922 9.53799 2.20643 8.78792 2.20643 7.99922C2.20643 7.21207 2.35915 6.46199 2.66512 5.74745C2.97103 5.03276 3.38245 4.41632 3.89939 3.89969C4.41695 3.38136 5.03261 2.96932 5.7473 2.66512C6.46154 2.35937 7.21254 2.20642 8 2.20642Z" fill="#555E4B"/>
</svg>
