<svg width="20" height="20" viewBox="0 0 20 20" fill="none" xmlns="http://www.w3.org/2000/svg">
<g id="Group 257">
<path id="Vector" d="M15.898 5.00266L16.3066 4.59411C16.7374 5.02496 16.736 5.72395 16.3033 6.15299L12.3062 10.1169C12.3484 10.2024 12.388 10.2893 12.4249 10.3776C12.6601 10.9398 12.7813 11.5432 12.7813 12.1527C12.7813 12.7622 12.6601 13.3656 12.4249 13.9279C12.1902 14.4889 11.8466 14.9977 11.4141 15.425C10.9867 15.8576 10.4779 16.2012 9.91692 16.4359C9.35466 16.6711 8.75124 16.7922 8.14175 16.7922C7.53227 16.7922 6.92885 16.6711 6.36658 16.4359C5.80561 16.2012 5.29676 15.8576 4.86944 15.425C4.43686 14.9977 4.09329 14.4889 3.85861 13.9279C3.62338 13.3656 3.50225 12.7622 3.50225 12.1527C3.50225 11.5432 3.62338 10.9398 3.85861 10.3776C4.09329 9.8166 4.43687 9.30774 4.86945 8.88043C5.29676 8.44785 5.80562 8.10427 6.36658 7.86959C6.92885 7.63436 7.53226 7.51323 8.14175 7.51323C8.75124 7.51323 9.35466 7.63436 9.91692 7.86959C9.98452 7.89786 10.0513 7.92772 10.1174 7.95913L10.3975 7.6813C10.0932 7.25049 10.1353 6.65018 10.5227 6.26629L11.0087 5.78469C11.2106 5.58464 11.4706 5.47883 11.7339 5.46715L11.4 5.11006M15.898 5.00266L11.4 5.11006M15.898 5.00266L16.3066 4.59411L15.689 3.97656C15.2774 3.56497 14.6205 3.54757 14.1882 3.92532L13.4557 3.15408C13.0321 2.70814 12.3252 2.69611 11.8868 3.12738L12.3075 3.55514M15.898 5.00266L12.3075 3.55514M11.4 5.11006C10.9925 4.67422 11.0067 3.99294 11.4321 3.57453M11.4 5.11006L11.4321 3.57453M11.4321 3.57453L11.8868 3.12738M11.4321 3.57453L11.8868 3.12738M12.3075 3.55514L11.8868 3.12738M12.3075 3.55514L11.8868 3.12738M7.05016 13.2595L7.04272 13.2518L7.03501 13.2443C6.88838 13.1028 6.77175 12.9333 6.6921 12.7457C6.61245 12.5582 6.57139 12.3565 6.57139 12.1527C6.57139 11.949 6.61245 11.7473 6.6921 11.5598C6.77175 11.3722 6.88838 11.2026 7.03501 11.0611L7.04272 11.0537L7.05016 11.046C7.19165 10.8994 7.36122 10.7827 7.54877 10.7031C7.73632 10.6234 7.93799 10.5824 8.14175 10.5824C8.34551 10.5824 8.54719 10.6234 8.73474 10.7031C8.92229 10.7827 9.09186 10.8994 9.23335 11.046L9.24079 11.0537L9.2485 11.0611C9.39513 11.2026 9.51176 11.3722 9.59141 11.5598C9.67106 11.7473 9.71212 11.949 9.71212 12.1527C9.71212 12.3565 9.67106 12.5582 9.59141 12.7457C9.51176 12.9333 9.39513 13.1028 9.2485 13.2443L9.24079 13.2518L9.23335 13.2595C9.09186 13.4061 8.92228 13.5227 8.73474 13.6024C8.54719 13.682 8.34552 13.7231 8.14175 13.7231C7.93799 13.7231 7.73632 13.682 7.54877 13.6024C7.36122 13.5227 7.19165 13.4061 7.05016 13.2595Z" fill="#E6B05D" stroke="#565F4E" stroke-width="1.2"/>
</g>
</svg>
