<svg width="24" height="24" viewBox="0 0 24 24" fill="none" xmlns="http://www.w3.org/2000/svg">
<g id="&#229;&#163;&#176;&#233;&#159;&#179; 1">
<path id="Vector" d="M10.5484 4.72969L10.5484 4.72967L10.545 4.7319L7.08199 7.00805H3.85714C3.13294 7.00805 2.6 7.64378 2.6 8.34481V15.6736C2.6 16.3654 3.12454 16.9919 3.84034 16.9919H7.08199L10.5438 19.2673C10.544 19.2675 10.5442 19.2676 10.5445 19.2677C10.8246 19.4529 11.1526 19.4311 11.3976 19.2803C11.6403 19.131 11.8034 18.8577 11.8034 18.5389V5.46107C11.8034 5.14615 11.6458 4.87174 11.4021 4.72054C11.1545 4.56691 10.8284 4.54972 10.5484 4.72969Z" fill="#565E4E" stroke="white" stroke-width="0.8"/>
<g id="Group 487">
<path id="Vector_2" d="M15.0804 16.3112L16.7574 14.0871L18.4358 16.313L18.4358 16.313L18.4377 16.3156C18.8475 16.85 19.6025 16.7473 20.0678 16.3907C20.543 16.0329 20.8368 15.3381 20.4446 14.8033L20.4447 14.8033L20.4414 14.799L18.331 12.0002L20.4415 9.20131L20.4415 9.20133L20.4446 9.19704C20.6395 8.93134 20.6565 8.60955 20.5769 8.33345C20.4973 8.05754 20.3171 7.80146 20.0696 7.6111C19.8187 7.41809 19.5191 7.31307 19.2295 7.31307C18.9415 7.31307 18.6327 7.42067 18.4344 7.68913L16.7574 9.91322L15.079 7.68732L15.079 7.68731L15.0771 7.68477C14.6673 7.15036 13.9124 7.253 13.4471 7.60961C12.9718 7.96735 12.6779 8.66218 13.0701 9.19703L13.0701 9.19706L13.0733 9.20131L15.1838 12.0002L13.0733 14.799L13.0733 14.799L13.0702 14.8033C12.8753 15.069 12.8583 15.3908 12.9379 15.6669C13.0175 15.9428 13.1977 16.1989 13.4452 16.3892C13.6961 16.5822 13.9957 16.6873 14.2853 16.6873C14.5733 16.6873 14.8821 16.5797 15.0804 16.3112Z" fill="#565E4E" stroke="white" stroke-width="0.8"/>
</g>
</g>
</svg>
