<svg width="20" height="20" viewBox="0 0 20 20" fill="none" xmlns="http://www.w3.org/2000/svg">
<g id="&#229;&#133;&#172;&#229;&#145;&#138; 1">
<path id="Vector" d="M9.63281 3.33007L6.49805 5.24804C6.08984 5.49609 5.61914 5.62695 5.14063 5.62499H3.58984C2.29688 5.62499 1.26367 6.63085 1.26367 7.85546V12.2891C1.26367 13.6406 2.39453 14.7402 3.78516 14.7402H5.59375C6.07812 14.7402 6.5293 14.8652 6.95117 15.1172L9.66406 16.7207C9.85938 16.8477 10.084 16.9102 10.3418 16.9102C11.0527 16.9102 11.6348 16.3437 11.6348 15.6523V4.39843C11.6348 4.17968 11.5703 3.92578 11.4395 3.73828C11.0215 3.14257 10.2461 2.95312 9.63281 3.33007ZM18.0645 9.39648H14.1875C13.8359 9.39257 13.5469 9.67382 13.541 10.0254C13.541 10.3711 13.832 10.6543 14.1875 10.6543H18.0645C18.4199 10.6543 18.7109 10.3711 18.7109 10.0254C18.7051 9.67382 18.416 9.39257 18.0645 9.39648ZM17.8066 14.7422L14.4453 12.8574C14.1445 12.6777 13.7539 12.7754 13.5723 13.0762C13.4844 13.2168 13.457 13.3887 13.5 13.5488C13.543 13.709 13.6504 13.8457 13.7969 13.9238L17.1582 15.8105C17.459 15.9902 17.8496 15.8926 18.0312 15.5918C18.2266 15.3086 18.1289 14.9316 17.8066 14.7422ZM14.4141 7.19726L17.7734 5.31054C18.0977 5.12304 18.1934 4.74609 18 4.46093C17.8066 4.14648 17.4199 4.05273 17.127 4.24218L13.7656 6.1289C13.4434 6.31835 13.3457 6.69531 13.5391 6.97851C13.7363 7.25976 14.123 7.38476 14.4141 7.19726Z" fill="#C15C46"/>
</g>
</svg>
