<svg width="21" height="20" viewBox="0 0 21 20" fill="none" xmlns="http://www.w3.org/2000/svg">
    <defs>
        <linearGradient id="svg-lxpsg1z4y92himgskhs-fill" x1="0.434893" y1="22.5796" x2="34.2364"
            y2="-15.5089" gradientUnits="userSpaceOnUse">
            <stop stop-color="#FDEB32"></stop>
            <stop offset="0.439058" stop-color="#FEBD04"></stop>
            <stop offset="1" stop-color="#D75902"></stop>
        </linearGradient>
        <linearGradient id="svg-lxpsg1z4y92himgskhs-stroke1" x1="22.5" y1="2.5" x2="8" y2="12.5"
            gradientUnits="userSpaceOnUse">
            <stop stop-color="#DB5A00"></stop>
            <stop offset="1" stop-color="#FF9145"></stop>
        </linearGradient>
        <linearGradient id="svg-lxpsg1z4y92himgskhs-stroke2" x1="24.5" y1="2" x2="11" y2="10.2302"
            gradientUnits="userSpaceOnUse">
            <stop stop-color="white" stop-opacity="0"></stop>
            <stop offset="0.395833" stop-color="white" stop-opacity="0.85"></stop>
            <stop offset="0.520833" stop-color="white"></stop>
            <stop offset="0.645833" stop-color="white" stop-opacity="0.85"></stop>
            <stop offset="1" stop-color="white" stop-opacity="0"></stop>
        </linearGradient>
    </defs>
    <path fill-rule="evenodd" clip-rule="evenodd"
        d="M10.5197 16.2049L6.46899 18.6864C6.04779 18.9444 5.49716 18.8121 5.23913 18.3909C5.11311 18.1852 5.07554 17.9373 5.13494 17.7035L5.762 15.2354C5.98835 14.3444 6.59803 13.5997 7.42671 13.2018L11.8459 11.0801C12.0519 10.9812 12.1387 10.734 12.0398 10.528C11.9597 10.3611 11.7786 10.2677 11.5962 10.2993L6.67709 11.1509C5.67715 11.324 4.65172 11.0479 3.87392 10.3961L2.31994 9.09382C1.94135 8.77655 1.89164 8.21245 2.20891 7.83386C2.36321 7.64972 2.58511 7.53541 2.82462 7.51667L7.5725 7.1451C7.90793 7.11885 8.20025 6.90658 8.32901 6.59574L10.1607 2.17427C10.3497 1.71792 10.8729 1.50123 11.3292 1.69028C11.5484 1.78105 11.7225 1.95514 11.8132 2.17427L13.6449 6.59574C13.7736 6.90658 14.066 7.11885 14.4014 7.1451L19.1754 7.51871C19.6678 7.55725 20.0358 7.9877 19.9972 8.48015C19.9787 8.71704 19.8666 8.93682 19.6858 9.09098L16.0449 12.1949C15.7886 12.4134 15.6768 12.7574 15.7556 13.0849L16.8749 17.7348C16.9905 18.215 16.6949 18.698 16.2147 18.8137C15.9839 18.8692 15.7406 18.8307 15.5382 18.7068L11.4541 16.2049C11.1674 16.0292 10.8064 16.0292 10.5197 16.2049Z"
        fill="url(#svg-lxpsg1z4y92himgskhs-fill)" stroke="url(#svg-lxpsg1z4y92himgskhs-stroke1)"></path>
    <path fill-rule="evenodd" clip-rule="evenodd"
        d="M10.5197 16.2049L6.46899 18.6864C6.04779 18.9444 5.49716 18.8121 5.23913 18.3909C5.11311 18.1852 5.07554 17.9373 5.13494 17.7035L5.762 15.2354C5.98835 14.3444 6.59803 13.5997 7.42671 13.2018L11.8459 11.0801C12.0519 10.9812 12.1387 10.734 12.0398 10.528C11.9597 10.3611 11.7786 10.2677 11.5962 10.2993L6.67709 11.1509C5.67715 11.324 4.65172 11.0479 3.87392 10.3961L2.31994 9.09382C1.94135 8.77655 1.89164 8.21245 2.20891 7.83386C2.36321 7.64972 2.58511 7.53541 2.82462 7.51667L7.5725 7.1451C7.90793 7.11885 8.20025 6.90658 8.32901 6.59574L10.1607 2.17427C10.3497 1.71792 10.8729 1.50123 11.3292 1.69028C11.5484 1.78105 11.7225 1.95514 11.8132 2.17427L13.6449 6.59574C13.7736 6.90658 14.066 7.11885 14.4014 7.1451L19.1754 7.51871C19.6678 7.55725 20.0358 7.9877 19.9972 8.48015C19.9787 8.71704 19.8666 8.93682 19.6858 9.09098L16.0449 12.1949C15.7886 12.4134 15.6768 12.7574 15.7556 13.0849L16.8749 17.7348C16.9905 18.215 16.6949 18.698 16.2147 18.8137C15.9839 18.8692 15.7406 18.8307 15.5382 18.7068L11.4541 16.2049C11.1674 16.0292 10.8064 16.0292 10.5197 16.2049Z"
        stroke="url(#svg-lxpsg1z4y92himgskhs-stroke2)" stroke-width="2"
        style="mix-blend-mode: soft-light;"></path>
</svg>