<svg width="24" height="24" viewBox="0 0 24 24" fill="none" xmlns="http://www.w3.org/2000/svg">
<g id="Mask group">
<mask id="mask0_145_1873" style="mask-type:alpha" maskUnits="userSpaceOnUse" x="0" y="0" width="24" height="24">
<rect id="Rectangle 61" width="24" height="24" fill="#D9D9D9"/>
</mask>
<g mask="url(#mask0_145_1873)">
<path id="Vector" d="M9.0252 18.9974L8.98808 19.532H9.524C9.83381 19.532 10.0863 19.4613 10.3071 19.3355C10.5025 19.224 10.6577 19.0759 10.7753 18.9636C10.7793 18.9598 10.7833 18.956 10.7873 18.9522L12.6958 17.1876L16.9592 20.1919L16.9856 20.2105L17.0142 20.2255C17.4947 20.4787 18.0292 20.6043 18.5151 20.3941C19.0097 20.1803 19.2778 19.6964 19.3999 19.1401C19.4 19.1397 19.4001 19.1393 19.4001 19.139L22.4161 5.59745C22.5963 4.9008 22.4881 4.25719 22.0533 3.85156C21.6206 3.44799 21.0059 3.41361 20.4695 3.63986L2.76006 10.1523L2.76005 10.1522L2.75305 10.1549C2.41919 10.2834 2.13811 10.4357 1.92746 10.6139C1.72189 10.7878 1.53641 11.0279 1.50461 11.3327C1.47037 11.6609 1.62647 11.9297 1.8333 12.1115C2.02943 12.2838 2.29037 12.4002 2.57267 12.4775L7.11562 13.8508L7.32813 13.915L7.5183 13.8004L15.6516 8.90098L9.5089 14.1777L9.35038 14.3139L9.33591 14.5224L9.0252 18.9974Z" fill="#565E4E" stroke="white"/>
</g>
</g>
</svg>
