<svg width="28" height="28" viewBox="0 0 28 28" fill="none" xmlns="http://www.w3.org/2000/svg">
<g id="Group 331">
<path id="Vector" d="M14 28C21.732 28 28 21.732 28 14C28 6.26801 21.732 0 14 0C6.26801 0 0 6.26801 0 14C0 21.732 6.26801 28 14 28Z" fill="#0098EA"/>
<path id="Vector_2" d="M18.7803 7.8141H9.21951C7.46158 7.8141 6.34739 9.71042 7.23176 11.2432L13.1323 21.4707C13.5174 22.1385 14.4824 22.1385 14.8675 21.4707L20.7692 11.2432C21.6524 9.71278 20.5382 7.8141 18.7815 7.8141H18.7803ZM13.1275 18.4036L11.8425 15.9166L8.74181 10.371C8.53726 10.016 8.78997 9.56114 9.21828 9.56114H13.1264V18.4049L13.1275 18.4036ZM19.2556 10.3697L16.1561 15.9178L14.871 18.4036V9.56001H18.7791C19.2075 9.56001 19.4602 10.0148 19.2556 10.3697Z" fill="white"/>
</g>
</svg>
