<svg width="23" height="23" viewBox="0 0 23 23" fill="none" xmlns="http://www.w3.org/2000/svg">
<g id="Frame">
<g id="Group 75">
<path id="Vector" d="M21.5651 9.1196C21.5651 9.11682 21.5652 9.11133 21.5652 9.10853C21.5652 8.76638 21.5138 8.43991 21.4185 8.12896L20.8911 4.56123C20.6735 3.08984 19.4107 2 17.9233 2H5.09429C3.604 2 2.33964 3.09398 2.12544 4.5688L1.62195 8.03537C1.50771 8.37295 1.44577 8.73215 1.44577 9.10833C1.44577 9.14914 1.44675 9.19388 1.44819 9.23433L1.42627 9.38965H1.45686C1.59578 11.0967 3.03896 12.4699 4.79898 12.4699C6.559 12.4699 8.0022 11.0967 8.14112 9.38965H8.16334C8.30226 11.0967 9.74544 12.4699 11.5055 12.4699C13.2655 12.4699 14.7087 11.0967 14.8476 9.38965H14.8698C15.0087 11.0967 16.4519 12.4699 18.2119 12.4699C19.9719 12.4699 21.4152 11.0967 21.5541 9.38965H21.6041L21.5651 9.1196Z" fill="#565F4E"/>
<path id="Vector_2" d="M18.2158 15.9814C18.2158 16.5337 17.7681 16.9814 17.2158 16.9814H5.78418C5.2319 16.9814 4.78418 16.5337 4.78418 15.9814V14.2695C4.78418 13.9934 4.56032 13.7695 4.28418 13.7695H3.73438C3.45823 13.7695 3.23438 13.9934 3.23438 14.2695V20.0724C3.23438 20.5631 3.42902 21.0272 3.7868 21.3806C4.14137 21.7308 4.60317 21.9229 5.09142 21.9229H17.978C18.4741 21.9229 18.9387 21.7232 19.28 21.3591C19.6055 21.012 19.7881 20.5556 19.7881 20.0724V14.2695C19.7881 13.9934 19.5642 13.7695 19.2881 13.7695H18.7158C18.4397 13.7695 18.2158 13.9934 18.2158 14.2695V15.9814Z" fill="#565F4E"/>
</g>
</g>
</svg>
