<svg width="12" height="12" viewBox="0 0 12 12" fill="none" xmlns="http://www.w3.org/2000/svg">
<g id="Frame" clip-path="url(#clip0_751_96)">
<path id="Vector" d="M10.1641 7.75212C10.5309 6.88157 10.6155 5.91795 10.4061 4.99681C10.1966 4.07566 9.7037 3.24335 8.9966 2.61696C8.28949 1.99057 7.4038 1.60162 6.46412 1.50482C5.52444 1.40802 4.57806 1.60825 3.75811 2.07734L3.19797 1.09654C4.05491 0.606763 5.0253 0.350269 6.01232 0.352647C6.99935 0.355025 7.96849 0.616191 8.82306 1.11009C11.3584 2.57367 12.3296 5.70751 11.1477 8.32073L11.9055 8.75777L9.55372 10.0079L9.46056 7.34613L10.1641 7.75212ZM1.83546 4.24787C1.46908 5.1184 1.38474 6.08186 1.5943 7.00281C1.80387 7.92375 2.29679 8.75585 3.00377 9.38214C3.71075 10.0084 4.59624 10.3974 5.53573 10.4943C6.47523 10.5913 7.42148 10.3914 8.24147 9.92265L8.8016 10.9035C7.94466 11.3932 6.97427 11.6497 5.98725 11.6473C5.00023 11.645 4.03108 11.3838 3.17651 10.8899C0.641213 9.42632 -0.329993 6.29249 0.85183 3.67927L0.0934982 3.24279L2.44529 1.99264L2.53845 4.65442L1.83489 4.24844L1.83546 4.24787ZM4.02349 7.12931H7.1291C7.20397 7.12931 7.27578 7.09956 7.32873 7.04661C7.38168 6.99367 7.41142 6.92186 7.41142 6.84698C7.41142 6.7721 7.38168 6.70029 7.32873 6.64734C7.27578 6.5944 7.20397 6.56465 7.1291 6.56465H4.87048C4.49609 6.56465 4.13703 6.41593 3.8723 6.15119C3.60757 5.88646 3.45884 5.5274 3.45884 5.15301C3.45884 4.77863 3.60757 4.41957 3.8723 4.15484C4.13703 3.8901 4.49609 3.74138 4.87048 3.74138H5.43513V3.17672H6.56444V3.74138H7.97608V4.87069H4.87048C4.7956 4.87069 4.72379 4.90043 4.67084 4.95338C4.6179 5.00633 4.58815 5.07814 4.58815 5.15301C4.58815 5.22789 4.6179 5.2997 4.67084 5.35265C4.72379 5.4056 4.7956 5.43534 4.87048 5.43534H7.1291C7.31447 5.43534 7.49804 5.47186 7.66931 5.5428C7.84057 5.61374 7.99619 5.71772 8.12727 5.8488C8.25836 5.97988 8.36234 6.1355 8.43328 6.30677C8.50422 6.47804 8.54073 6.6616 8.54073 6.84698C8.54073 7.03236 8.50422 7.21592 8.43328 7.38719C8.36234 7.55846 8.25836 7.71407 8.12727 7.84516C7.99619 7.97624 7.84057 8.08022 7.66931 8.15116C7.49804 8.2221 7.31447 8.25862 7.1291 8.25862H6.56444V8.82327H5.43513V8.25862H4.02349V7.12931Z" fill="#555E4B" fill-opacity="0.9"/>
</g>
<defs>
<clipPath id="clip0_751_96">
<rect width="12" height="12" fill="white" transform="translate(-0.000488281)"/>
</clipPath>
</defs>
</svg>
