<svg width="18" height="18" viewBox="0 0 18 18" fill="none" xmlns="http://www.w3.org/2000/svg">
<g id="&#232;&#173;&#166;&#229;&#145;&#138; 1">
<path id="Vector" d="M10.5 2.09999C10.5 2.17499 10.65 2.32499 10.875 2.69999C11.1 3.07499 11.325 3.44999 11.625 4.04999C11.925 4.64999 12.3 5.17499 12.675 5.84999C13.05 6.52499 13.5 7.19999 13.875 7.87499C14.25 8.54999 14.7 9.29999 15.075 9.97499C15.45 10.65 15.825 11.325 16.2 11.85C16.5 12.45 16.8 12.9 17.1 13.35C17.4 13.8 17.475 14.025 17.625 14.175C17.775 14.475 17.925 14.775 17.925 15.075C18 15.375 17.925 15.6 17.85 15.9C17.775 16.2 17.625 16.35 17.475 16.5C17.25 16.65 17.025 16.725 16.725 16.725H1.575C1.125 16.725 0.750003 16.65 0.525003 16.5C0.300003 16.35 0.150003 16.125 0.0750031 15.9C3.05101e-06 15.675 3.05101e-06 15.375 0.0750031 15.15C0.150003 14.85 0.225003 14.625 0.450003 14.325C0.525003 14.175 0.675003 13.95 0.900003 13.5C1.125 13.125 1.425 12.6 1.8 12.075C2.175 11.475 2.55 10.875 2.925 10.2C3.3 9.52499 3.75 8.77499 4.2 8.09999C4.65 7.42499 5.025 6.67499 5.4 5.99999C5.775 5.32499 6.15 4.72499 6.45 4.19999C6.75 3.67499 7.05 3.22499 7.275 2.84999L7.65 2.24999C7.8 2.02499 8.025 1.79999 8.325 1.64999C8.625 1.49999 8.85 1.42499 9.15 1.42499C9.45 1.42499 9.675 1.49999 9.975 1.57499C10.125 1.64999 10.35 1.87499 10.5 2.09999ZM10.05 5.54999C10.05 5.39999 10.05 5.24999 9.975 5.17499C9.9 5.02499 9.825 4.94999 9.75 4.87499C9.675 4.79999 9.525 4.72499 9.375 4.64999C9.225 4.57499 9.075 4.49999 8.925 4.49999C8.625 4.49999 8.4 4.57499 8.175 4.79999C7.95 5.02499 7.8 5.24999 7.8 5.54999V10.2C7.8 10.5 7.95 10.725 8.175 10.95C8.4 11.175 8.625 11.25 8.925 11.25C9.225 11.25 9.45 11.175 9.675 10.95C9.9 10.725 10.05 10.5 10.05 10.2V5.54999ZM8.925 12.3C8.625 12.3 8.325 12.375 8.175 12.6C8.025 12.825 7.875 13.05 7.875 13.35C7.875 13.65 7.95 13.95 8.175 14.1C8.4 14.325 8.625 14.4 8.925 14.4C9.225 14.4 9.525 14.325 9.675 14.1C9.9 13.875 9.975 13.65 9.975 13.35C9.975 13.05 9.9 12.75 9.675 12.6C9.525 12.375 9.225 12.3 8.925 12.3Z" fill="#5E4D2C"/>
</g>
</svg>
