<svg width="16" height="26" viewBox="0 0 16 26" fill="none" xmlns="http://www.w3.org/2000/svg">
<g id="Group 41" opacity="0.4">
<path id="Vector" d="M9.64353 11.7669L9.64352 11.7669L9.64085 11.7686C9.5933 11.7987 9.54545 11.829 9.49738 11.8593C8.85686 12.264 8.17706 12.6935 7.64999 13.2248C7.07412 13.8052 6.66549 14.5211 6.66549 15.4778V19.1701C6.66549 19.5195 6.78486 19.8296 7.01114 20.0526C7.23708 20.2753 7.54991 20.3917 7.90141 20.3917C8.22974 20.3917 8.53603 20.2317 8.76703 20.004C8.9995 19.7749 9.17388 19.4608 9.23242 19.1146L9.23592 19.0939V19.0729V15.3806C9.23592 15.1389 9.3537 14.9094 9.64711 14.6424C9.94481 14.3716 10.3905 14.0922 10.9838 13.7512L10.9845 13.7507C12.664 12.7771 15.0437 11.2607 15.2495 7.91414L15.25 7.90648V7.8988C15.25 3.96783 11.9797 0.75 8 0.75C4.0203 0.75 0.75 3.96783 0.75 7.8988C0.75 8.24821 0.869371 8.55831 1.09564 8.78131C1.32159 9.00399 1.63441 9.12046 1.98592 9.12046C2.33742 9.12046 2.65024 9.00399 2.87619 8.78131C3.10246 8.55831 3.22183 8.24821 3.22183 7.8988C3.22183 5.31964 5.37406 3.19332 8 3.19332C10.624 3.19332 12.775 5.31646 12.7782 7.89302C12.684 9.87686 11.2385 10.7845 9.64353 11.7669Z" fill="#666666" stroke="#666666" stroke-width="0.5"/>
<path id="Vector_2" d="M6.36972 23.7368C6.36972 24.1393 6.53199 24.5246 6.81963 24.808C7.10715 25.0914 7.49635 25.25 7.90141 25.25C8.30648 25.25 8.69567 25.0914 8.98319 24.808C9.27083 24.5246 9.4331 24.1393 9.4331 23.7368C9.4331 23.3343 9.27083 22.949 8.98319 22.6655C8.69567 22.3822 8.30648 22.2236 7.90141 22.2236C7.49635 22.2236 7.10715 22.3822 6.81963 22.6655C6.53199 22.949 6.36972 23.3343 6.36972 23.7368Z" fill="#666666" stroke="#666666" stroke-width="0.5"/>
</g>
</svg>
