<svg width="15" height="15" viewBox="0 0 15 15" fill="none" xmlns="http://www.w3.org/2000/svg">
<g id="Frame" opacity="0.75" clip-path="url(#clip0_159_150)">
<path id="Vector" d="M7.5 1.84375C6.75721 1.84375 6.02169 1.99005 5.33545 2.27431C4.6492 2.55856 4.02566 2.9752 3.50043 3.50043C2.9752 4.02566 2.55856 4.6492 2.27431 5.33545C1.99005 6.02169 1.84375 6.75721 1.84375 7.5C1.84375 8.24279 1.99005 8.9783 2.27431 9.66455C2.55856 10.3508 2.9752 10.9743 3.50043 11.4996C4.02566 12.0248 4.6492 12.4414 5.33545 12.7257C6.02169 13.0099 6.75721 13.1562 7.5 13.1562C9.00013 13.1562 10.4388 12.5603 11.4996 11.4996C12.5603 10.4388 13.1562 9.00013 13.1562 7.5C13.1562 5.99987 12.5603 4.56118 11.4996 3.50043C10.4388 2.43967 9.00013 1.84375 7.5 1.84375ZM0.65625 7.5C0.65625 3.72062 3.72 0.65625 7.5 0.65625C11.2794 0.65625 14.3437 3.72062 14.3437 7.5C14.3437 11.28 11.2794 14.3437 7.5 14.3437C3.72 14.3437 0.65625 11.28 0.65625 7.5ZM7.66687 4.98437C7.36871 4.93328 7.06207 4.98933 6.80127 5.14261C6.54046 5.2959 6.3423 5.53652 6.24187 5.82187L5.12125 5.42812C5.31474 4.8783 5.69654 4.41468 6.19904 4.11932C6.70155 3.82397 7.29235 3.71594 7.86686 3.81436C8.44136 3.91278 8.96252 4.2113 9.33806 4.65708C9.7136 5.10285 9.9193 5.66712 9.91875 6.25H9.325L9.91875 6.25062C9.91875 7.19 9.22125 7.81375 8.71687 8.15062C8.38976 8.36648 8.03839 8.54311 7.67 8.67687L7.64875 8.68437L7.64187 8.68687L7.63937 8.6875H7.63875C7.63875 8.6875 7.6375 8.68812 7.45 8.125L7.2625 7.56187L7.27187 7.55812C7.34935 7.52964 7.42585 7.49858 7.50125 7.465C7.6575 7.39625 7.86 7.29437 8.05812 7.16187C8.49125 6.87375 8.73125 6.56 8.73125 6.24937C8.73178 5.94679 8.6252 5.65377 8.43038 5.42224C8.23557 5.19071 7.9651 5.03559 7.66687 4.98437ZM7.5 9.40625C7.34253 9.40625 7.1915 9.4688 7.08015 9.58015C6.9688 9.6915 6.90625 9.84253 6.90625 10C6.90625 10.1575 6.9688 10.3085 7.08015 10.4198C7.1915 10.5312 7.34253 10.5937 7.5 10.5937H7.50625C7.66372 10.5937 7.81474 10.5312 7.92609 10.4198C8.03744 10.3085 8.1 10.1575 8.1 10C8.1 9.84253 8.03744 9.6915 7.92609 9.58015C7.81474 9.4688 7.66372 9.40625 7.50625 9.40625H7.5Z" fill="#555E4B"/>
</g>
<defs>
<clipPath id="clip0_159_150">
<rect width="15" height="15" fill="white"/>
</clipPath>
</defs>
</svg>
