<svg width="20" height="20" viewBox="0 0 20 20" fill="none" xmlns="http://www.w3.org/2000/svg">
<g id="Group 256">
<g id="Group 253">
<g id="Group 254">
<path id="Vector 16" d="M11.7646 2.71504L4.88446 4.61096C3.96219 4.86511 3.26209 5.61762 3.07507 6.5558L2.3304 10.2914C2.1304 11.2947 2.5542 12.3197 3.40432 12.8889L9.5661 17.0139C10.2005 17.4386 10.9927 17.5542 11.722 17.3285L12.5699 17.066C13.2391 16.8589 13.7925 16.3837 14.0983 15.7535L17.2719 9.21339C17.7136 8.30301 17.5706 7.21698 16.9081 6.45207L14.3497 3.49797C13.711 2.76048 12.7052 2.45586 11.7646 2.71504Z" fill="#A7DBD7"/>
<path id="Vector 23" d="M13.6638 15.8347V9.34795C14.1951 9.05136 15.3021 8.44337 15.48 8.38406C15.6579 8.32475 16.8885 8.11228 17.4816 8.01346L16.4808 10.8306L14.368 14.8338L13.6638 15.8347Z" fill="#95C9C7"/>
<path id="Vector 22" d="M10.0683 16.3906L7.02881 10.9047H4.47109L2.43242 11.2382V12.0908L6.06502 14.7966L9.47519 16.7241L10.0683 16.3906Z" fill="#94CBC8"/>
<path id="Vector 21" d="M7.2141 9.75564L6.73222 4.41796L9.69755 3.38004H10.6242C11.0443 4.1708 11.9142 5.79681 12.0328 5.97473C12.1514 6.15265 12.5764 7.8775 12.7741 8.71769L9.51221 9.75564H7.2141Z" fill="#94CBC8"/>
<path id="Vector 19 (Stroke)" fill-rule="evenodd" clip-rule="evenodd" d="M5.79071 4.29289L7.30809 4.24075L7.5299 10.6958L11.5618 16.8798L10.2899 17.7091L6.02705 11.1707L5.79071 4.29289Z" fill="#68B2AD"/>
<path id="Vector 20 (Stroke)" fill-rule="evenodd" clip-rule="evenodd" d="M12.533 9.35363L10.1223 3.51332L11.5257 2.93402L14.0513 9.05259V16.4801H12.533V9.35363Z" fill="#68B2AD"/>
<path id="Vector 18 (Stroke)" fill-rule="evenodd" clip-rule="evenodd" d="M17.7208 8.18145C13.2941 10.3289 9.03441 11.0508 2.58415 11.7392L2.42303 10.2295C8.84789 9.54382 12.8831 8.84081 17.0582 6.81543L17.7208 8.18145Z" fill="#68B2AD"/>
</g>
<path id="Vector 17" d="M12.0874 2.62624L4.56908 4.69799C3.84014 4.89886 3.2868 5.49363 3.13899 6.23514L2.26112 10.639C2.10304 11.432 2.438 12.2421 3.10991 12.6919L9.77632 17.1548C10.2777 17.4905 10.9039 17.5819 11.4803 17.4034L12.7898 16.9981C13.3187 16.8344 13.7561 16.4588 13.9978 15.9607L17.4245 8.89897C17.7737 8.17943 17.6606 7.32106 17.137 6.71649L14.1305 3.24504C13.6257 2.66215 12.8308 2.42139 12.0874 2.62624Z" stroke="#575E4D" stroke-width="1.2" stroke-linecap="round" stroke-linejoin="round"/>
</g>
</g>
</svg>
