<svg width="16" height="16" viewBox="0 0 16 16" fill="none" xmlns="http://www.w3.org/2000/svg">
<g id="&#229;&#164;&#141;&#229;&#136;&#182;&#230;&#150;&#135;&#228;&#187;&#182;" clip-path="url(#clip0_886_329)">
<path id="Vector" d="M9.97802 2.999C10.2971 2.999 10.5815 3.06813 10.8315 3.20638C11.0814 3.34463 11.2967 3.51479 11.4775 3.71685C11.6583 3.91891 11.7966 4.13692 11.8923 4.37089C11.988 4.60485 12.0358 4.81223 12.0358 4.99302V14.006C12.0358 14.3144 11.9747 14.5909 11.8524 14.8355C11.7301 15.0801 11.5706 15.2875 11.3738 15.4576C11.1771 15.6278 10.9564 15.7607 10.7118 15.8564C10.4672 15.9521 10.2226 16 9.97802 16H2.11361C1.91155 16 1.69088 15.9415 1.4516 15.8245C1.21232 15.7075 0.988986 15.5533 0.781609 15.3619C0.574231 15.1705 0.401416 14.9498 0.263164 14.6999C0.124912 14.45 0.0557861 14.1974 0.0557861 13.9422V5.05683C0.0557861 4.8335 0.10896 4.60219 0.215308 4.36291C0.321655 4.12363 0.459907 3.90296 0.630063 3.7009C0.800219 3.49884 0.996963 3.33134 1.22029 3.1984C1.44362 3.06547 1.67759 2.999 1.92219 2.999H9.97802ZM9.03684 12.9691C9.31335 12.9691 9.54997 12.8734 9.74671 12.682C9.94346 12.4905 10.0418 12.2566 10.0418 11.9801C10.0418 11.7036 9.94346 11.4669 9.74671 11.2702C9.54997 11.0734 9.31335 10.9751 9.03684 10.9751H3.05479C2.77829 10.9751 2.54166 11.0734 2.34492 11.2702C2.14818 11.4669 2.0498 11.7036 2.0498 11.9801C2.0498 12.2566 2.14818 12.4905 2.34492 12.682C2.54166 12.8734 2.77829 12.9691 3.05479 12.9691H9.03684ZM9.03684 8.98106C9.31335 8.98106 9.54997 8.88534 9.74671 8.69392C9.94346 8.50249 10.0418 8.26853 10.0418 7.99202C10.0418 7.71552 9.94346 7.4789 9.74671 7.28215C9.54997 7.08541 9.31335 6.98704 9.03684 6.98704H3.05479C2.77829 6.98704 2.54166 7.08541 2.34492 7.28215C2.14818 7.4789 2.0498 7.71552 2.0498 7.99202C2.0498 8.26853 2.14818 8.50249 2.34492 8.69392C2.54166 8.88534 2.77829 8.98106 3.05479 8.98106H9.03684ZM11.8604 0C12.3177 0 12.7377 0.135593 13.1206 0.40678C13.5034 0.677966 13.8358 1.01296 14.1176 1.41176C14.3994 1.81057 14.6201 2.24128 14.7796 2.70389C14.9391 3.1665 15.0189 3.58923 15.0189 3.97208V12.4427C15.0189 12.666 14.9524 12.8707 14.8195 13.0568C14.6866 13.2429 14.5244 13.4025 14.333 13.5354C14.1415 13.6683 13.9342 13.7747 13.7108 13.8544C13.4875 13.9342 13.2801 13.9741 13.0887 13.9741H13.0249V4.45065C12.9398 3.71685 12.7112 3.15321 12.3389 2.75972C11.9667 2.36623 11.4722 2.111 10.8554 1.99402H3.07074C3.08138 1.97275 3.08669 1.93553 3.08669 1.88235C3.08669 1.66966 3.1505 1.45165 3.27812 1.22832C3.40574 1.00499 3.57323 0.802925 3.78061 0.622134C3.98799 0.441343 4.2193 0.292456 4.47453 0.175474C4.72976 0.0584912 4.985 1.5625e-08 5.24023 1.5625e-08L11.8604 0Z" fill="#E6DDC0"/>
</g>
<defs>
<clipPath id="clip0_886_329">
<rect width="16" height="16" fill="white"/>
</clipPath>
</defs>
</svg>
