<svg width="11" height="11" viewBox="0 0 11 11" fill="none" xmlns="http://www.w3.org/2000/svg">
<g id="&#229;&#164;&#141;&#229;&#136;&#182;&#230;&#150;&#135;&#228;&#187;&#182;" clip-path="url(#clip0_897_69)">
<path id="Vector" d="M6.85987 2.06181C7.07921 2.06181 7.27479 2.10934 7.44661 2.20439C7.61842 2.29943 7.76648 2.41642 7.89077 2.55533C8.01507 2.69425 8.11012 2.84413 8.17592 3.00499C8.24172 3.16584 8.27462 3.30841 8.27462 3.4327V9.62911C8.27462 9.84114 8.23258 10.0312 8.1485 10.1994C8.06442 10.3676 7.95475 10.5101 7.81949 10.6271C7.68423 10.7441 7.53251 10.8355 7.36435 10.9013C7.19619 10.9671 7.02803 11 6.85987 11H1.45309C1.31417 11 1.16246 10.9598 0.997951 10.8794C0.833445 10.7989 0.679905 10.6929 0.537333 10.5613C0.394761 10.4297 0.275951 10.278 0.180902 10.1062C0.0858542 9.93436 0.0383301 9.76072 0.0383301 9.58524V3.47657C0.0383301 3.32303 0.0748871 3.16401 0.148001 2.9995C0.221115 2.835 0.316163 2.68328 0.433146 2.54437C0.550128 2.40545 0.685389 2.2903 0.838928 2.1989C0.992468 2.10751 1.15332 2.06181 1.32148 2.06181H6.85987ZM6.21281 8.91625C6.4029 8.91625 6.56558 8.85045 6.70084 8.71884C6.8361 8.58724 6.90373 8.42639 6.90373 8.23629C6.90373 8.0462 6.8361 7.88352 6.70084 7.74826C6.56558 7.61299 6.4029 7.54536 6.21281 7.54536H2.10014C1.91005 7.54536 1.74737 7.61299 1.61211 7.74826C1.47685 7.88352 1.40922 8.0462 1.40922 8.23629C1.40922 8.42639 1.47685 8.58724 1.61211 8.71884C1.74737 8.85045 1.91005 8.91625 2.10014 8.91625H6.21281ZM6.21281 6.17448C6.4029 6.17448 6.56558 6.10867 6.70084 5.97707C6.8361 5.84546 6.90373 5.68461 6.90373 5.49452C6.90373 5.30442 6.8361 5.14174 6.70084 5.00648C6.56558 4.87122 6.4029 4.80359 6.21281 4.80359H2.10014C1.91005 4.80359 1.74737 4.87122 1.61211 5.00648C1.47685 5.14174 1.40922 5.30442 1.40922 5.49452C1.40922 5.68461 1.47685 5.84546 1.61211 5.97707C1.74737 6.10867 1.91005 6.17448 2.10014 6.17448H6.21281ZM8.15398 0C8.46837 0 8.75717 0.0932203 9.02038 0.279661C9.28359 0.466102 9.51208 0.696411 9.70583 0.970588C9.89958 1.24477 10.0513 1.54088 10.161 1.85892C10.2706 2.17697 10.3255 2.4676 10.3255 2.73081V8.55434C10.3255 8.70788 10.2798 8.84862 10.1884 8.97657C10.097 9.10452 9.98549 9.21419 9.85388 9.30558C9.72228 9.39698 9.57971 9.47009 9.42617 9.52493C9.27263 9.57976 9.13005 9.60718 8.99845 9.60718H8.95458V3.05982C8.89609 2.55533 8.7389 2.16783 8.483 1.89731C8.2271 1.62679 7.88712 1.45131 7.46306 1.37089H2.11111C2.11842 1.35626 2.12208 1.33067 2.12208 1.29412C2.12208 1.14789 2.16595 0.998006 2.25368 0.844467C2.34142 0.690927 2.45658 0.552011 2.59915 0.427717C2.74172 0.303423 2.90074 0.201063 3.07622 0.120638C3.25169 0.0402127 3.42716 1.07422e-08 3.60264 1.07422e-08L8.15398 0Z" fill="#9C7B58" fill-opacity="0.75"/>
</g>
<defs>
<clipPath id="clip0_897_69">
<rect width="11" height="11" fill="white"/>
</clipPath>
</defs>
</svg>
