<svg width="24" height="24" viewBox="0 0 24 24" fill="none" xmlns="http://www.w3.org/2000/svg">
<g id="&#229;&#155;&#162;&#233;&#152;&#159;-4 1">
<path id="Vector" d="M14.5187 12.824C16.6654 11.4368 17.2811 8.57227 15.894 6.42563C14.5068 4.27898 11.6423 3.66324 9.49563 5.05041C7.34898 6.43757 6.73324 9.3021 8.1204 11.4487C8.47623 11.9994 8.94499 12.4681 9.49563 12.824C9.67376 12.9414 9.72277 13.1809 9.60539 13.3588C9.56295 13.4232 9.5022 13.4734 9.43096 13.5029C7.29194 14.387 5.75259 16.3024 5.34937 18.5817C5.26041 19.1078 5.61482 19.6066 6.14118 19.6955C6.19596 19.7048 6.25136 19.7093 6.30696 19.7091H17.7105C18.2443 19.7114 18.6786 19.2806 18.6811 18.747C18.6813 18.6916 18.6767 18.6364 18.6675 18.5819C18.2634 16.304 16.7241 14.3905 14.5859 13.5075C14.3884 13.4269 14.2937 13.2017 14.3742 13.0042C14.4042 12.9306 14.4561 12.8682 14.5229 12.8252L14.5187 12.824Z" fill="#9C7B58"/>
<path id="Vector_2" d="M4.72282 18.0135H3.334C3.29611 18.0135 3.25843 18.0098 3.22424 18.0059C2.87622 17.9453 2.64145 17.6199 2.7022 17.2717C2.96703 15.7698 3.98105 14.506 5.39251 13.9232C5.43802 13.9043 5.47962 13.874 5.50598 13.8287C5.58547 13.7113 5.55129 13.5563 5.43411 13.4768C5.07084 13.2422 4.7605 12.9358 4.52595 12.5725C3.61407 11.1573 4.01894 9.26935 5.43411 8.35356C5.84268 8.08873 6.29306 7.93737 6.74323 7.88815C6.46707 9.06877 6.65241 10.3513 7.3637 11.4487C7.71935 12.0013 8.18867 12.4704 8.73728 12.826C8.91891 12.9434 8.96813 13.1817 8.85075 13.3596C8.80524 13.4238 8.74469 13.4731 8.67282 13.5033C6.71687 14.3129 5.2601 15.9891 4.72282 18.0135ZM21.3262 17.3817C21.3225 17.7336 21.0387 18.0174 20.6868 18.0135H19.2942C18.757 15.9891 17.3002 14.3129 15.344 13.5068C15.1474 13.4273 15.0526 13.2004 15.1321 13.0035C15.1624 12.9317 15.2116 12.8672 15.2798 12.8256C16.9635 11.7321 17.7053 9.73043 17.2701 7.88403C18.148 7.98618 18.9728 8.46291 19.4874 9.26131C20.4032 10.6765 19.9983 12.5608 18.5869 13.4766C18.5413 13.5068 18.5074 13.5484 18.4884 13.5939C18.4355 13.7264 18.496 13.874 18.6245 13.9269C20.036 14.5097 21.05 15.7696 21.3148 17.2719C21.3225 17.3059 21.3262 17.3438 21.3262 17.3817Z" fill="#9C7B58"/>
</g>
</svg>
