<svg width="14" height="14" viewBox="0 0 14 14" fill="none" xmlns="http://www.w3.org/2000/svg">
<g id="&#232;&#175;&#180;&#230;&#152;&#142; 1" clip-path="url(#clip0_886_347)">
<path id="Vector" d="M7 0C3.136 0 0 3.136 0 7C0 10.864 3.136 14 7 14C10.864 14 14 10.864 14 7C14 3.136 10.864 0 7 0ZM6.909 10.99C6.496 10.99 6.167 10.661 6.167 10.248C6.167 9.835 6.496 9.506 6.909 9.506C7.322 9.506 7.651 9.835 7.651 10.248C7.651 10.654 7.322 10.99 6.909 10.99ZM9.107 6.531C9.107 6.538 9.1 6.538 9.1 6.545C8.813 6.881 8.505 7.196 8.169 7.483C7.987 7.63 7.805 7.812 7.7 8.022C7.588 8.246 7.504 8.484 7.504 8.75C7.504 8.834 7.434 8.904 7.35 8.904H6.475C6.391 8.904 6.321 8.834 6.321 8.75C6.321 8.316 6.398 7.952 6.545 7.665C6.685 7.371 7.084 6.909 7.798 6.265L7.812 6.251L7.938 6.104C8.134 5.859 8.239 5.6 8.239 5.32C8.239 4.963 8.134 4.676 7.931 4.459C7.728 4.256 7.427 4.151 7.049 4.151C6.58 4.151 6.23 4.298 6.013 4.592C5.845 4.816 5.712 5.131 5.684 5.544C5.684 5.558 5.684 5.565 5.677 5.579C5.649 5.908 5.362 6.153 5.033 6.125C4.732 6.104 4.501 5.859 4.487 5.565V5.53C4.515 4.781 4.753 4.193 5.201 3.766C5.677 3.304 6.328 3.073 7.133 3.073C7.861 3.073 8.442 3.269 8.876 3.661C9.317 4.046 9.541 4.578 9.541 5.25C9.534 5.789 9.38 6.174 9.107 6.531Z" fill="#555E4B" fill-opacity="0.4"/>
</g>
<defs>
<clipPath id="clip0_886_347">
<rect width="14" height="14" fill="white"/>
</clipPath>
</defs>
</svg>
