<svg width="25" height="21" viewBox="0 0 25 21" fill="none" xmlns="http://www.w3.org/2000/svg">
<g id="Vector">
<mask id="path-1-outside-1_1140_73" maskUnits="userSpaceOnUse" x="0.719238" y="0.320114" width="24" height="21" fill="black">
<rect fill="white" x="0.719238" y="0.320114" width="24" height="21"/>
<path d="M16.4533 16.2112C15.1192 17.1639 13.4847 17.6001 11.8533 17.4388C11.7771 17.4316 11.7023 17.4187 11.6247 17.4086C11.4781 17.3885 11.3315 17.3698 11.1892 17.3411C11.1014 17.3233 11.0142 17.3032 10.9275 17.2807C10.7878 17.2498 10.6492 17.2139 10.5121 17.1729C10.4474 17.1528 10.3827 17.1298 10.3166 17.1068C10.1241 17.0426 9.93465 16.9697 9.74879 16.8883C9.57016 16.8103 9.39509 16.7245 9.2241 16.6309L9.2011 16.6194C8.43479 16.1925 7.75553 15.6254 7.19866 14.9476C7.17135 14.9146 7.14547 14.8772 7.11816 14.8427C6.13857 13.6062 5.6061 12.0746 5.60735 10.4971H7.20585C7.22689 10.4971 7.24753 10.4914 7.26552 10.4805C7.28352 10.4696 7.29818 10.454 7.30791 10.4353C7.31801 10.4171 7.32281 10.3964 7.3218 10.3756C7.32078 10.3547 7.31398 10.3346 7.30216 10.3174L4.61835 6.23781C4.60796 6.22149 4.59363 6.20805 4.57666 6.19873C4.5597 6.18942 4.54067 6.18454 4.52132 6.18454C4.50197 6.18454 4.48293 6.18942 4.46597 6.19873C4.44901 6.20805 4.43467 6.22149 4.42429 6.23781L1.73904 10.3174C1.71604 10.3505 1.71172 10.3965 1.73329 10.4353C1.75485 10.4741 1.79366 10.4971 1.83535 10.4971H3.43385C3.43385 12.4291 4.02897 14.2188 5.0381 15.698C5.05104 15.7196 5.05966 15.7411 5.0726 15.7613C5.17754 15.9122 5.29397 16.0531 5.4061 16.1968C5.44779 16.25 5.48804 16.3061 5.53116 16.3593C5.69647 16.5634 5.87185 16.7517 6.05297 16.94L6.10329 16.9918C6.89401 17.7948 7.82949 18.4411 8.86041 18.8964L9.02716 18.9712C9.21835 19.0517 9.41672 19.1221 9.61366 19.1897C9.7071 19.2213 9.7991 19.2544 9.89397 19.2831C10.0679 19.3349 10.2447 19.378 10.423 19.4211C10.5423 19.4499 10.6587 19.4801 10.7809 19.5031C10.8298 19.5146 10.8772 19.5289 10.9275 19.5361C11.0957 19.5663 11.2639 19.5836 11.4335 19.6037L11.6147 19.6296C13.7734 19.8496 15.9383 19.2751 17.7039 18.0138C17.9404 17.8444 18.101 17.5889 18.151 17.3023C18.201 17.0157 18.1365 16.7209 17.9713 16.4814C17.8903 16.3629 17.7865 16.2617 17.6659 16.1837C17.5453 16.1058 17.4104 16.0527 17.269 16.0275C17.1277 16.0023 16.9827 16.0056 16.8427 16.0371C16.7026 16.0687 16.5702 16.1279 16.4533 16.2112ZM21.5693 10.4971C21.5708 8.64611 21.0143 6.83764 19.9723 5.30775C19.9565 5.28188 19.9464 5.256 19.932 5.23444C19.8057 5.05751 19.6733 4.88491 19.5353 4.71694L19.4878 4.65513C18.5823 3.53835 17.4218 2.65539 16.104 2.08056C16.0678 2.06438 16.0318 2.04761 15.9962 2.03025C15.7863 1.94482 15.5739 1.86572 15.3593 1.79306C15.2774 1.76719 15.2012 1.73844 15.1207 1.71544C14.9328 1.65904 14.7429 1.60918 14.5515 1.56594C14.4465 1.5415 14.3402 1.51419 14.2323 1.49263C14.1792 1.48256 14.1303 1.46675 14.0771 1.45669C13.9333 1.43081 13.7896 1.42075 13.6458 1.40206C13.5481 1.38913 13.4489 1.37331 13.3497 1.36325C13.1107 1.34199 12.8709 1.33001 12.631 1.32731C12.5878 1.32731 12.5447 1.32013 12.5002 1.32013C10.6361 1.31696 8.81793 1.89756 7.30072 2.98044C7.06355 3.14964 6.90243 3.40532 6.85214 3.69228C6.80184 3.97925 6.86642 4.27448 7.03191 4.51425C7.11313 4.63255 7.2171 4.73349 7.33774 4.81118C7.45837 4.88888 7.59328 4.94179 7.73457 4.96681C7.87587 4.99183 8.02073 4.98847 8.16072 4.95692C8.3007 4.92537 8.433 4.86627 8.54991 4.78306C9.88689 3.83069 11.5235 3.3946 13.1571 3.55544L13.3397 3.58131C13.505 3.6 13.6674 3.62444 13.827 3.65606C13.8974 3.669 13.9678 3.68769 14.0368 3.7035C14.1935 3.73944 14.3517 3.77825 14.504 3.82425L14.6478 3.87456C14.8232 3.93206 14.9942 3.99388 15.1638 4.06575L15.217 4.09019C16.2305 4.5315 17.1203 5.21144 17.8146 6.06244L17.8275 6.07969C18.8427 7.32838 19.3957 8.88927 19.393 10.4986H17.7959C17.7749 10.4983 17.7542 10.5039 17.7361 10.5146C17.7181 10.5253 17.7032 10.5407 17.6933 10.5592C17.6834 10.5777 17.6787 10.5986 17.6798 10.6196C17.6809 10.6406 17.6878 10.6609 17.6996 10.6783L20.3863 14.7564C20.3967 14.7725 20.411 14.7856 20.4278 14.7947C20.4447 14.8038 20.4635 14.8086 20.4826 14.8086C20.5017 14.8086 20.5205 14.8038 20.5374 14.7947C20.5542 14.7856 20.5685 14.7725 20.5789 14.7564L23.2627 10.6783C23.2825 10.678 23.3019 10.6727 23.319 10.6628C23.3361 10.653 23.3504 10.6388 23.3605 10.6218C23.3705 10.6048 23.376 10.5854 23.3765 10.5657C23.3769 10.5459 23.3722 10.5264 23.3628 10.5089C23.3535 10.4915 23.3398 10.4768 23.3231 10.4662C23.3064 10.4556 23.2873 10.4495 23.2675 10.4484C23.2478 10.4474 23.2281 10.4514 23.2104 10.4602C23.1927 10.469 23.1775 10.4822 23.1664 10.4986H21.5693V10.4971Z"/>
</mask>
<path d="M16.4533 16.2112C15.1192 17.1639 13.4847 17.6001 11.8533 17.4388C11.7771 17.4316 11.7023 17.4187 11.6247 17.4086C11.4781 17.3885 11.3315 17.3698 11.1892 17.3411C11.1014 17.3233 11.0142 17.3032 10.9275 17.2807C10.7878 17.2498 10.6492 17.2139 10.5121 17.1729C10.4474 17.1528 10.3827 17.1298 10.3166 17.1068C10.1241 17.0426 9.93465 16.9697 9.74879 16.8883C9.57016 16.8103 9.39509 16.7245 9.2241 16.6309L9.2011 16.6194C8.43479 16.1925 7.75553 15.6254 7.19866 14.9476C7.17135 14.9146 7.14547 14.8772 7.11816 14.8427C6.13857 13.6062 5.6061 12.0746 5.60735 10.4971H7.20585C7.22689 10.4971 7.24753 10.4914 7.26552 10.4805C7.28352 10.4696 7.29818 10.454 7.30791 10.4353C7.31801 10.4171 7.32281 10.3964 7.3218 10.3756C7.32078 10.3547 7.31398 10.3346 7.30216 10.3174L4.61835 6.23781C4.60796 6.22149 4.59363 6.20805 4.57666 6.19873C4.5597 6.18942 4.54067 6.18454 4.52132 6.18454C4.50197 6.18454 4.48293 6.18942 4.46597 6.19873C4.44901 6.20805 4.43467 6.22149 4.42429 6.23781L1.73904 10.3174C1.71604 10.3505 1.71172 10.3965 1.73329 10.4353C1.75485 10.4741 1.79366 10.4971 1.83535 10.4971H3.43385C3.43385 12.4291 4.02897 14.2188 5.0381 15.698C5.05104 15.7196 5.05966 15.7411 5.0726 15.7613C5.17754 15.9122 5.29397 16.0531 5.4061 16.1968C5.44779 16.25 5.48804 16.3061 5.53116 16.3593C5.69647 16.5634 5.87185 16.7517 6.05297 16.94L6.10329 16.9918C6.89401 17.7948 7.82949 18.4411 8.86041 18.8964L9.02716 18.9712C9.21835 19.0517 9.41672 19.1221 9.61366 19.1897C9.7071 19.2213 9.7991 19.2544 9.89397 19.2831C10.0679 19.3349 10.2447 19.378 10.423 19.4211C10.5423 19.4499 10.6587 19.4801 10.7809 19.5031C10.8298 19.5146 10.8772 19.5289 10.9275 19.5361C11.0957 19.5663 11.2639 19.5836 11.4335 19.6037L11.6147 19.6296C13.7734 19.8496 15.9383 19.2751 17.7039 18.0138C17.9404 17.8444 18.101 17.5889 18.151 17.3023C18.201 17.0157 18.1365 16.7209 17.9713 16.4814C17.8903 16.3629 17.7865 16.2617 17.6659 16.1837C17.5453 16.1058 17.4104 16.0527 17.269 16.0275C17.1277 16.0023 16.9827 16.0056 16.8427 16.0371C16.7026 16.0687 16.5702 16.1279 16.4533 16.2112ZM21.5693 10.4971C21.5708 8.64611 21.0143 6.83764 19.9723 5.30775C19.9565 5.28188 19.9464 5.256 19.932 5.23444C19.8057 5.05751 19.6733 4.88491 19.5353 4.71694L19.4878 4.65513C18.5823 3.53835 17.4218 2.65539 16.104 2.08056C16.0678 2.06438 16.0318 2.04761 15.9962 2.03025C15.7863 1.94482 15.5739 1.86572 15.3593 1.79306C15.2774 1.76719 15.2012 1.73844 15.1207 1.71544C14.9328 1.65904 14.7429 1.60918 14.5515 1.56594C14.4465 1.5415 14.3402 1.51419 14.2323 1.49263C14.1792 1.48256 14.1303 1.46675 14.0771 1.45669C13.9333 1.43081 13.7896 1.42075 13.6458 1.40206C13.5481 1.38913 13.4489 1.37331 13.3497 1.36325C13.1107 1.34199 12.8709 1.33001 12.631 1.32731C12.5878 1.32731 12.5447 1.32013 12.5002 1.32013C10.6361 1.31696 8.81793 1.89756 7.30072 2.98044C7.06355 3.14964 6.90243 3.40532 6.85214 3.69228C6.80184 3.97925 6.86642 4.27448 7.03191 4.51425C7.11313 4.63255 7.2171 4.73349 7.33774 4.81118C7.45837 4.88888 7.59328 4.94179 7.73457 4.96681C7.87587 4.99183 8.02073 4.98847 8.16072 4.95692C8.3007 4.92537 8.433 4.86627 8.54991 4.78306C9.88689 3.83069 11.5235 3.3946 13.1571 3.55544L13.3397 3.58131C13.505 3.6 13.6674 3.62444 13.827 3.65606C13.8974 3.669 13.9678 3.68769 14.0368 3.7035C14.1935 3.73944 14.3517 3.77825 14.504 3.82425L14.6478 3.87456C14.8232 3.93206 14.9942 3.99388 15.1638 4.06575L15.217 4.09019C16.2305 4.5315 17.1203 5.21144 17.8146 6.06244L17.8275 6.07969C18.8427 7.32838 19.3957 8.88927 19.393 10.4986H17.7959C17.7749 10.4983 17.7542 10.5039 17.7361 10.5146C17.7181 10.5253 17.7032 10.5407 17.6933 10.5592C17.6834 10.5777 17.6787 10.5986 17.6798 10.6196C17.6809 10.6406 17.6878 10.6609 17.6996 10.6783L20.3863 14.7564C20.3967 14.7725 20.411 14.7856 20.4278 14.7947C20.4447 14.8038 20.4635 14.8086 20.4826 14.8086C20.5017 14.8086 20.5205 14.8038 20.5374 14.7947C20.5542 14.7856 20.5685 14.7725 20.5789 14.7564L23.2627 10.6783C23.2825 10.678 23.3019 10.6727 23.319 10.6628C23.3361 10.653 23.3504 10.6388 23.3605 10.6218C23.3705 10.6048 23.376 10.5854 23.3765 10.5657C23.3769 10.5459 23.3722 10.5264 23.3628 10.5089C23.3535 10.4915 23.3398 10.4768 23.3231 10.4662C23.3064 10.4556 23.2873 10.4495 23.2675 10.4484C23.2478 10.4474 23.2281 10.4514 23.2104 10.4602C23.1927 10.469 23.1775 10.4822 23.1664 10.4986H21.5693V10.4971Z" fill="#ECD9AA"/>
<path d="M16.4533 16.2112C15.1192 17.1639 13.4847 17.6001 11.8533 17.4388C11.7771 17.4316 11.7023 17.4187 11.6247 17.4086C11.4781 17.3885 11.3315 17.3698 11.1892 17.3411C11.1014 17.3233 11.0142 17.3032 10.9275 17.2807C10.7878 17.2498 10.6492 17.2139 10.5121 17.1729C10.4474 17.1528 10.3827 17.1298 10.3166 17.1068C10.1241 17.0426 9.93465 16.9697 9.74879 16.8883C9.57016 16.8103 9.39509 16.7245 9.2241 16.6309L9.2011 16.6194C8.43479 16.1925 7.75553 15.6254 7.19866 14.9476C7.17135 14.9146 7.14547 14.8772 7.11816 14.8427C6.13857 13.6062 5.6061 12.0746 5.60735 10.4971H7.20585C7.22689 10.4971 7.24753 10.4914 7.26552 10.4805C7.28352 10.4696 7.29818 10.454 7.30791 10.4353C7.31801 10.4171 7.32281 10.3964 7.3218 10.3756C7.32078 10.3547 7.31398 10.3346 7.30216 10.3174L4.61835 6.23781C4.60796 6.22149 4.59363 6.20805 4.57666 6.19873C4.5597 6.18942 4.54067 6.18454 4.52132 6.18454C4.50197 6.18454 4.48293 6.18942 4.46597 6.19873C4.44901 6.20805 4.43467 6.22149 4.42429 6.23781L1.73904 10.3174C1.71604 10.3505 1.71172 10.3965 1.73329 10.4353C1.75485 10.4741 1.79366 10.4971 1.83535 10.4971H3.43385C3.43385 12.4291 4.02897 14.2188 5.0381 15.698C5.05104 15.7196 5.05966 15.7411 5.0726 15.7613C5.17754 15.9122 5.29397 16.0531 5.4061 16.1968C5.44779 16.25 5.48804 16.3061 5.53116 16.3593C5.69647 16.5634 5.87185 16.7517 6.05297 16.94L6.10329 16.9918C6.89401 17.7948 7.82949 18.4411 8.86041 18.8964L9.02716 18.9712C9.21835 19.0517 9.41672 19.1221 9.61366 19.1897C9.7071 19.2213 9.7991 19.2544 9.89397 19.2831C10.0679 19.3349 10.2447 19.378 10.423 19.4211C10.5423 19.4499 10.6587 19.4801 10.7809 19.5031C10.8298 19.5146 10.8772 19.5289 10.9275 19.5361C11.0957 19.5663 11.2639 19.5836 11.4335 19.6037L11.6147 19.6296C13.7734 19.8496 15.9383 19.2751 17.7039 18.0138C17.9404 17.8444 18.101 17.5889 18.151 17.3023C18.201 17.0157 18.1365 16.7209 17.9713 16.4814C17.8903 16.3629 17.7865 16.2617 17.6659 16.1837C17.5453 16.1058 17.4104 16.0527 17.269 16.0275C17.1277 16.0023 16.9827 16.0056 16.8427 16.0371C16.7026 16.0687 16.5702 16.1279 16.4533 16.2112ZM21.5693 10.4971C21.5708 8.64611 21.0143 6.83764 19.9723 5.30775C19.9565 5.28188 19.9464 5.256 19.932 5.23444C19.8057 5.05751 19.6733 4.88491 19.5353 4.71694L19.4878 4.65513C18.5823 3.53835 17.4218 2.65539 16.104 2.08056C16.0678 2.06438 16.0318 2.04761 15.9962 2.03025C15.7863 1.94482 15.5739 1.86572 15.3593 1.79306C15.2774 1.76719 15.2012 1.73844 15.1207 1.71544C14.9328 1.65904 14.7429 1.60918 14.5515 1.56594C14.4465 1.5415 14.3402 1.51419 14.2323 1.49263C14.1792 1.48256 14.1303 1.46675 14.0771 1.45669C13.9333 1.43081 13.7896 1.42075 13.6458 1.40206C13.5481 1.38913 13.4489 1.37331 13.3497 1.36325C13.1107 1.34199 12.8709 1.33001 12.631 1.32731C12.5878 1.32731 12.5447 1.32013 12.5002 1.32013C10.6361 1.31696 8.81793 1.89756 7.30072 2.98044C7.06355 3.14964 6.90243 3.40532 6.85214 3.69228C6.80184 3.97925 6.86642 4.27448 7.03191 4.51425C7.11313 4.63255 7.2171 4.73349 7.33774 4.81118C7.45837 4.88888 7.59328 4.94179 7.73457 4.96681C7.87587 4.99183 8.02073 4.98847 8.16072 4.95692C8.3007 4.92537 8.433 4.86627 8.54991 4.78306C9.88689 3.83069 11.5235 3.3946 13.1571 3.55544L13.3397 3.58131C13.505 3.6 13.6674 3.62444 13.827 3.65606C13.8974 3.669 13.9678 3.68769 14.0368 3.7035C14.1935 3.73944 14.3517 3.77825 14.504 3.82425L14.6478 3.87456C14.8232 3.93206 14.9942 3.99388 15.1638 4.06575L15.217 4.09019C16.2305 4.5315 17.1203 5.21144 17.8146 6.06244L17.8275 6.07969C18.8427 7.32838 19.3957 8.88927 19.393 10.4986H17.7959C17.7749 10.4983 17.7542 10.5039 17.7361 10.5146C17.7181 10.5253 17.7032 10.5407 17.6933 10.5592C17.6834 10.5777 17.6787 10.5986 17.6798 10.6196C17.6809 10.6406 17.6878 10.6609 17.6996 10.6783L20.3863 14.7564C20.3967 14.7725 20.411 14.7856 20.4278 14.7947C20.4447 14.8038 20.4635 14.8086 20.4826 14.8086C20.5017 14.8086 20.5205 14.8038 20.5374 14.7947C20.5542 14.7856 20.5685 14.7725 20.5789 14.7564L23.2627 10.6783C23.2825 10.678 23.3019 10.6727 23.319 10.6628C23.3361 10.653 23.3504 10.6388 23.3605 10.6218C23.3705 10.6048 23.376 10.5854 23.3765 10.5657C23.3769 10.5459 23.3722 10.5264 23.3628 10.5089C23.3535 10.4915 23.3398 10.4768 23.3231 10.4662C23.3064 10.4556 23.2873 10.4495 23.2675 10.4484C23.2478 10.4474 23.2281 10.4514 23.2104 10.4602C23.1927 10.469 23.1775 10.4822 23.1664 10.4986H21.5693V10.4971Z" stroke="#5E4D2C" stroke-width="2" mask="url(#path-1-outside-1_1140_73)"/>
</g>
</svg>
