<svg width="20" height="20" viewBox="0 0 20 20" fill="none" xmlns="http://www.w3.org/2000/svg">
<path d="M13.8891 7.49707C15.0857 8.35713 16.5225 8.81893 17.9961 8.81706V5.85832C17.7059 5.85832 17.4171 5.82832 17.1336 5.76757V8.09557C15.6599 8.09776 14.2228 7.63622 13.0259 6.77632V12.8123C13.0259 15.8318 10.5869 18.2791 7.57863 18.2791C6.4982 18.2807 5.44205 17.9586 4.54639 17.3543C5.05224 17.8755 5.65767 18.2897 6.32672 18.5724C6.99578 18.8551 7.71481 19.0004 8.44113 18.9998C11.4494 18.9998 13.8891 16.5526 13.8891 13.5323V7.49782V7.49707ZM14.9526 4.51357C14.3438 3.84698 13.9702 2.99921 13.8891 2.10007V1.71982H13.0716C13.1719 2.29129 13.3912 2.8353 13.7153 3.31658C14.0393 3.79786 14.4609 4.20567 14.9526 4.51357ZM6.44913 15.0383C6.11834 14.6029 5.93969 14.0709 5.94064 13.5241C5.94011 13.1316 6.03212 12.7446 6.2092 12.3944C6.38628 12.0442 6.64343 11.7407 6.95978 11.5085C7.27614 11.2764 7.64278 11.122 8.02995 11.0581C8.41713 10.9942 8.81392 11.0224 9.18813 11.1406V8.11732C8.90265 8.07791 8.61451 8.06111 8.32638 8.06707V10.4206C7.95217 10.3024 7.55538 10.2742 7.16821 10.3381C6.78103 10.402 6.41439 10.5564 6.09803 10.7885C5.78168 11.0207 5.52453 11.3242 5.34745 11.6744C5.17038 12.0246 5.07836 12.4116 5.07889 12.8041C5.07889 13.7806 5.63613 14.6266 6.44913 15.0383Z" fill="#FF004F"/>
<path d="M13.0259 6.77707C14.2228 7.63692 15.6599 8.09846 17.1336 8.09631V5.76832C16.2936 5.58775 15.531 5.14903 14.9527 4.51357C14.4609 4.20563 14.0394 3.79781 13.7153 3.31654C13.3913 2.83526 13.172 2.29127 13.0717 1.71982H10.9244V13.5323C10.9234 14.1929 10.6606 14.8262 10.1937 15.2935C9.72667 15.7608 9.09353 16.0239 8.43291 16.0253C8.04844 16.0254 7.66918 15.9363 7.32497 15.7651C6.98075 15.5938 6.68096 15.345 6.44916 15.0383C6.03631 14.8292 5.68958 14.5096 5.44753 14.1152C5.20548 13.7207 5.07762 13.2669 5.07816 12.8041C5.07764 12.4116 5.16965 12.0246 5.34673 11.6744C5.5238 11.3242 5.78095 11.0207 6.09731 10.7885C6.41366 10.5564 6.78031 10.402 7.16748 10.3381C7.55466 10.2742 7.95145 10.3024 8.32566 10.4206V8.06707C5.37066 8.12857 2.99316 10.5518 2.99316 13.5331C2.99316 15.0211 3.58566 16.3696 4.54641 17.3551C5.44208 17.9593 6.49822 18.2814 7.57866 18.2798C10.5877 18.2798 13.0259 15.8318 13.0259 12.8123V6.77782V6.77707Z" fill="black"/>
<path d="M17.1336 5.76849V5.1385C16.3623 5.13981 15.6062 4.92324 14.9526 4.51375C15.5308 5.14944 16.2934 5.58821 17.1336 5.76849ZM13.0716 1.72C13.052 1.60741 13.037 1.49406 13.0266 1.38025V1H10.0618V12.8125C10.061 13.4732 9.79835 14.1066 9.33132 14.5739C8.86428 15.0412 8.23103 15.3043 7.57035 15.3055C7.18079 15.306 6.79662 15.2145 6.4491 15.0385C6.68089 15.3452 6.98069 15.594 7.3249 15.7653C7.66912 15.9365 8.04838 16.0256 8.43284 16.0255C9.09333 16.0241 9.72636 15.7611 10.1933 15.2939C10.6603 14.8268 10.9232 14.1937 10.9243 13.5332V1.72H13.0716ZM8.32634 8.06724V7.39749C8.0788 7.36348 7.82922 7.34645 7.57935 7.34649C4.57035 7.34649 2.13135 9.79374 2.13135 12.8132C2.13031 13.7104 2.35007 14.5939 2.77123 15.386C3.1924 16.1781 3.80203 16.8544 4.54635 17.3552C3.54882 16.3334 2.99148 14.9613 2.99385 13.5332C2.99385 10.5527 5.37135 8.12874 8.32634 8.06724Z" fill="#00F2EA"/>
</svg>
