<svg width="20" height="20" viewBox="0 0 20 20" fill="none" xmlns="http://www.w3.org/2000/svg">
<path d="M12.0389 13.4957V15.6151C12.0389 16.0638 11.9083 16.2881 11.6471 16.2881C11.4931 16.2881 11.3425 16.2145 11.1951 16.0671V13.0437C11.3425 12.8963 11.4931 12.8227 11.6471 12.8227C11.9083 12.8227 12.0389 13.047 12.0389 13.4957ZM15.434 13.5057V13.9678H14.53V13.5057C14.53 13.0504 14.6807 12.8227 14.982 12.8227C15.2833 12.8227 15.434 13.0504 15.434 13.5057ZM5.73078 11.316H6.80557V10.3718H3.67161V11.316H4.72631V17.0314H5.73078V11.316ZM8.62367 17.0314H9.51766V12.0693H8.62367V15.8662C8.42278 16.1475 8.23193 16.2881 8.05112 16.2881C7.93058 16.2881 7.86027 16.2178 7.84018 16.0772C7.83349 16.0571 7.83014 15.9399 7.83014 15.7256V12.0693H6.93615V15.9968C6.93615 16.3249 6.96294 16.5694 7.01651 16.7301C7.09687 16.9779 7.29107 17.1017 7.59911 17.1017C7.92054 17.1017 8.26206 16.8975 8.62367 16.489V17.0314ZM12.9329 15.5448V13.566C12.9329 13.0771 12.9027 12.7457 12.8425 12.5716C12.7286 12.1966 12.4909 12.0091 12.1293 12.0091C11.7945 12.0091 11.4831 12.1899 11.1951 12.5515V10.3718H10.3011V17.0314H11.1951V16.5493C11.4965 16.9176 11.8079 17.1017 12.1293 17.1017C12.4909 17.1017 12.7286 16.9176 12.8425 16.5493C12.9027 16.3685 12.9329 16.0337 12.9329 15.5448ZM16.328 15.4444V15.3138H15.4139C15.4139 15.6553 15.4072 15.8595 15.3938 15.9265C15.347 16.1676 15.213 16.2881 14.9921 16.2881C14.684 16.2881 14.53 16.0571 14.53 15.595V14.7211H16.328V13.6865C16.328 13.1575 16.2376 12.7691 16.0568 12.5213C15.7956 12.1798 15.4407 12.0091 14.9921 12.0091C14.5367 12.0091 14.1784 12.1798 13.9173 12.5213C13.7298 12.7691 13.636 13.1575 13.636 13.6865V15.4243C13.636 15.9533 13.7331 16.3417 13.9273 16.5895C14.1885 16.931 14.5501 17.1017 15.0121 17.1017C15.4943 17.1017 15.8559 16.9243 16.097 16.5694C16.2175 16.3886 16.2878 16.2078 16.3079 16.027C16.3213 15.9667 16.328 15.7725 16.328 15.4444ZM10.2208 6.2735V4.1641C10.2208 3.70204 10.0768 3.47101 9.78887 3.47101C9.50092 3.47101 9.35694 3.70204 9.35694 4.1641V6.2735C9.35694 6.74225 9.50092 6.97663 9.78887 6.97663C10.0768 6.97663 10.2208 6.74225 10.2208 6.2735ZM17.443 13.8171C17.443 15.3841 17.3559 16.556 17.1818 17.3328C17.0881 17.7279 16.8939 18.0593 16.5992 18.3272C16.3046 18.5951 15.963 18.7491 15.5746 18.7893C14.3425 18.9299 12.4842 19.0002 9.99981 19.0002C7.5154 19.0002 5.65712 18.9299 4.42497 18.7893C4.03657 18.7491 3.69337 18.5951 3.39538 18.3272C3.09738 18.0593 2.90486 17.7279 2.8178 17.3328C2.6437 16.5828 2.55664 15.4109 2.55664 13.8171C2.55664 12.2501 2.6437 11.0782 2.8178 10.3014C2.91156 9.90635 3.10575 9.57487 3.4004 9.30701C3.69505 9.03915 4.03992 8.88179 4.43501 8.83491C5.66047 8.70098 7.5154 8.63401 9.99981 8.63401C12.4842 8.63401 14.3425 8.70098 15.5746 8.83491C15.963 8.88179 16.3062 9.03915 16.6042 9.30701C16.9022 9.57487 17.0948 9.90635 17.1818 10.3014C17.3559 11.0515 17.443 12.2233 17.443 13.8171ZM7.4183 1H8.44287L7.22745 5.00786V7.72999H6.22298V5.00786C6.12923 4.51232 5.92498 3.80249 5.61025 2.87837C5.36248 2.18863 5.14484 1.56251 4.95734 1H6.02208L6.73526 3.64177L7.4183 1ZM11.1349 4.3449V6.10274C11.1349 6.64515 11.0411 7.04025 10.8536 7.28802C10.6058 7.62954 10.2509 7.8003 9.78887 7.8003C9.3402 7.8003 8.98863 7.62954 8.73417 7.28802C8.54666 7.03355 8.45291 6.63846 8.45291 6.10274V4.3449C8.45291 3.80918 8.54666 3.41744 8.73417 3.16967C8.98863 2.82815 9.3402 2.65738 9.78887 2.65738C10.2509 2.65738 10.6058 2.82815 10.8536 3.16967C11.0411 3.41744 11.1349 3.80918 11.1349 4.3449ZM14.4999 2.71765V7.72999H13.5858V7.17752C13.2309 7.59271 12.886 7.8003 12.5512 7.8003C12.2431 7.8003 12.0456 7.67641 11.9585 7.42864C11.905 7.26793 11.8782 7.01681 11.8782 6.67529V2.71765H12.7922V6.40408C12.7922 6.62506 12.7956 6.74225 12.8023 6.75564C12.8224 6.90297 12.8927 6.97663 13.0132 6.97663C13.194 6.97663 13.3849 6.83265 13.5858 6.5447V2.71765H14.4999Z" fill="#F80205"/>
<path d="M10.2219 6.2735V4.1641C10.2219 3.70204 10.078 3.47101 9.79002 3.47101C9.50207 3.47101 9.3581 3.70204 9.3581 4.1641V6.2735C9.3581 6.74225 9.50207 6.97663 9.79002 6.97663C10.078 6.97663 10.2219 6.74225 10.2219 6.2735ZM7.41946 1H8.44403L7.22861 5.00786V7.72999H6.22414V5.00786C6.13038 4.51232 5.92614 3.80249 5.61141 2.87837C5.36363 2.18863 5.146 1.56251 4.9585 1H6.02324L6.73642 3.64177L7.41946 1ZM11.136 4.3449V6.10274C11.136 6.64515 11.0423 7.04025 10.8548 7.28802C10.607 7.62954 10.2521 7.8003 9.79002 7.8003C9.34136 7.8003 8.98979 7.62954 8.73532 7.28802C8.54782 7.03355 8.45407 6.63846 8.45407 6.10274V4.3449C8.45407 3.80918 8.54782 3.41744 8.73532 3.16967C8.98979 2.82815 9.34136 2.65738 9.79002 2.65738C10.2521 2.65738 10.607 2.82815 10.8548 3.16967C11.0423 3.41744 11.136 3.80918 11.136 4.3449ZM14.501 2.71765V7.72999H13.5869V7.17753C13.232 7.59271 12.8872 7.8003 12.5523 7.8003C12.2443 7.8003 12.0467 7.67641 11.9597 7.42864C11.9061 7.26793 11.8793 7.01681 11.8793 6.67529V2.71765H12.7934V6.40408C12.7934 6.62506 12.7968 6.74225 12.8035 6.75565C12.8235 6.90297 12.8939 6.97663 13.0144 6.97663C13.1952 6.97663 13.386 6.83265 13.5869 6.54471V2.71765H14.501Z" fill="#2D2D2D"/>
</svg>
