<svg width="119" height="89" viewBox="0 0 119 89" fill="none" xmlns="http://www.w3.org/2000/svg">
<g id="Group 289">
<g id="Group 273">
<path id="Vector 16" d="M51.6828 36.7067L41.5361 41.6042C40.176 42.2607 39.3024 43.628 39.2783 45.1381L39.1823 51.1509C39.1565 52.7658 40.1056 54.2373 41.5874 54.8798L52.3275 59.5368C53.4333 60.0163 54.6964 59.9709 55.7649 59.4133L57.0072 58.765C57.9876 58.2534 58.7121 57.3583 59.0081 56.2927L62.0801 45.2352C62.5077 43.696 61.9773 42.05 60.7313 41.0502L55.9196 37.1888C54.7183 36.2248 53.0699 36.0372 51.6828 36.7067Z" fill="#A7DBD7"/>
<path id="Vector 23" d="M58.3565 56.5419L56.5151 46.4681C57.2559 45.8567 58.8025 44.5982 59.062 44.4556C59.3215 44.313 61.1723 43.6337 62.0653 43.3119L61.3107 47.9709L59.1659 54.7876L58.3565 56.5419Z" fill="#95C9C7"/>
<path id="Vector 22" d="M52.9302 58.426L46.6525 50.7693L42.6804 51.4953L39.6091 52.592L39.8511 53.916L46.2606 57.087L52.1037 59.1123L52.9302 58.426Z" fill="#94CBC8"/>
<path id="Vector 21" d="M46.6141 48.932L44.3505 40.7795L48.661 38.3258L50.1001 38.0628C50.977 39.1716 52.7894 41.4498 53.0241 41.6924C53.2588 41.9351 54.4086 44.4931 54.9541 45.7418L50.183 48.2797L46.6141 48.932Z" fill="#94CBC8"/>
<path id="Vector 19 (Stroke)" fill-rule="evenodd" clip-rule="evenodd" d="M42.8531 40.8526L45.1947 40.3408L47.3716 50.3025L55.3885 58.7616L53.6488 60.4104L45.1725 51.4666L42.8531 40.8526Z" fill="#68B2AD"/>
<path id="Vector 20 (Stroke)" fill-rule="evenodd" clip-rule="evenodd" d="M54.7603 46.798L49.3585 38.4124L51.3736 37.1144L57.0327 45.8995L59.1412 57.4343L56.7833 57.8653L54.7603 46.798Z" fill="#68B2AD"/>
<path id="Vector 18 (Stroke)" fill-rule="evenodd" clip-rule="evenodd" d="M62.4844 43.5048C56.2193 48.0964 49.809 50.4267 39.9873 53.3268L39.3085 51.028C49.0916 48.1393 55.1586 45.9021 61.0675 41.5715L62.4844 43.5048Z" fill="#68B2AD"/>
<path id="Vector 17 (Stroke)" fill-rule="evenodd" clip-rule="evenodd" d="M55.4194 37.8117C54.4584 37.0405 53.1396 36.8905 52.0299 37.4261L41.8833 42.3235C40.7952 42.8487 40.0963 43.9426 40.077 45.1507L39.981 51.1634C39.9603 52.4553 40.7196 53.6326 41.9051 54.1466L52.6452 58.8036C53.5298 59.1872 54.5403 59.1509 55.3951 58.7048L56.6374 58.0565C57.4217 57.6472 58.0013 56.9311 58.2381 56.0787L61.3101 45.0212C61.6522 43.7898 61.2279 42.473 60.2311 41.6731L55.4194 37.8117ZM51.3353 35.987C52.9998 35.1836 54.978 35.4087 56.4195 36.5655L61.2312 40.4269C62.7264 41.6267 63.3629 43.6018 62.8498 45.4489L59.7778 56.5064C59.4226 57.7851 58.5532 58.8592 57.3767 59.4732L56.1344 60.1214C54.8522 60.7905 53.3364 60.845 52.0095 60.2696L41.2694 55.6126C39.4912 54.8416 38.3523 53.0758 38.3832 51.1379L38.4792 45.1252C38.5082 43.3131 39.5565 41.6722 41.1887 40.8844L51.3353 35.987Z" fill="#575E4D"/>
</g>
<g id="Group 274">
<path id="Vector 16_2" d="M76.2838 50.1409L68.2607 42.2308C67.1853 41.1705 65.6038 40.8073 64.1735 41.2922L58.4783 43.2228C56.9487 43.7414 55.8818 45.1299 55.7748 46.7414L54.9988 58.422C54.9189 59.6246 55.3862 60.799 56.2705 61.6179L57.2986 62.57C58.11 63.3214 59.1966 63.7028 60.2996 63.6235L71.7464 62.8C73.3398 62.6854 74.7117 61.6325 75.2345 60.123L77.2539 54.2933C77.758 52.8379 77.3806 51.2223 76.2838 50.1409Z" fill="#A7DBD7"/>
<path id="Vector 23_2" d="M59.8458 63.0934L68.7145 57.973C69.5394 58.4653 71.2445 59.4989 71.466 59.6953C71.6875 59.8917 72.9494 61.4065 73.5527 62.1394L68.9111 62.9948L61.7701 63.2661L59.8458 63.0934Z" fill="#95C9C7"/>
<path id="Vector 22_2" d="M56.2475 58.6162L61.3487 50.1302L59.3297 46.6332L57.2645 44.1092L56.0989 44.7822L55.2668 51.8846L55.3233 58.0685L56.2475 58.6162Z" fill="#94CBC8"/>
<path id="Vector 21_2" d="M63.0662 49.4765L69.9835 44.6043L73.7433 47.8392L74.4748 49.1062C73.7252 50.3048 72.1888 52.7775 72.0391 53.0801C71.8895 53.3827 69.8668 55.3254 68.8741 56.2589L64.8802 52.6185L63.0662 49.4765Z" fill="#94CBC8"/>
<path id="Vector 19 (Stroke)_2" fill-rule="evenodd" clip-rule="evenodd" d="M69.4111 43.2185L70.6802 45.2519L62.0299 50.6505L56.7576 61.0444L54.62 59.9601L60.1943 48.9707L69.4111 43.2185Z" fill="#68B2AD"/>
<path id="Vector 20 (Stroke)_2" fill-rule="evenodd" clip-rule="evenodd" d="M67.814 56.4314L73.896 48.5253L75.7958 49.9868L69.424 58.2696L59.269 64.1326L58.0706 62.0568L67.814 56.4314Z" fill="#68B2AD"/>
<path id="Vector 18 (Stroke)_2" fill-rule="evenodd" clip-rule="evenodd" d="M73.512 62.5991C67.0816 58.2419 62.7323 52.9879 56.6996 44.7124L58.6365 43.3004C64.6454 51.5433 68.7918 56.5054 74.8566 60.6148L73.512 62.5991Z" fill="#68B2AD"/>
<path id="Vector 17 (Stroke)_2" fill-rule="evenodd" clip-rule="evenodd" d="M76.499 54.0315C76.9023 52.8672 76.6003 51.5747 75.7229 50.7097L67.6998 42.7996C66.8395 41.9513 65.5743 41.6608 64.43 42.0486L58.7348 43.9793C57.5112 44.3941 56.6577 45.5049 56.572 46.7941L55.796 58.4747C55.7321 59.4368 56.106 60.3763 56.8134 61.0315L57.8415 61.9835C58.4906 62.5847 59.3599 62.8898 60.2423 62.8263L71.6891 62.0028C72.9638 61.9111 74.0613 61.0688 74.4796 59.8612L76.499 54.0315ZM76.8448 49.5717C78.1609 50.8694 78.6139 52.8081 78.0089 54.5545L75.9895 60.3843C75.3621 62.1957 73.7158 63.4591 71.8037 63.5967L60.357 64.4202C59.0334 64.5154 57.7295 64.0577 56.7558 63.156L55.7277 62.2039C54.6665 61.2212 54.1057 59.8119 54.2016 58.3688L54.9776 46.6882C55.106 44.7544 56.3863 43.0881 58.2218 42.4659L63.917 40.5353C65.6334 39.9534 67.5312 40.3893 68.8217 41.6617L76.8448 49.5717Z" fill="#575E4D"/>
</g>
</g>
</svg>
