<svg width="119" height="89" viewBox="0 0 119 89" fill="none" xmlns="http://www.w3.org/2000/svg">
<g id="Group 290">
<g id="Group 277">
<path id="Vector 16" d="M69.7454 39.2558L60.1954 33.2778C58.9153 32.4764 57.2927 32.4655 56.0019 33.2495L50.8622 36.3714C49.4818 37.2098 48.742 38.797 48.9876 40.3933L50.7679 51.9635C50.9512 53.1547 51.6625 54.1995 52.7036 54.8067L53.914 55.5127C54.8692 56.0699 56.0127 56.2061 57.0722 55.889L68.0666 52.5983C69.597 52.1403 70.7074 50.8145 70.8899 49.2274L71.5944 43.0982C71.7703 41.5681 71.0509 40.0731 69.7454 39.2558Z" fill="#A7DBD7"/>
<path id="Vector 23" d="M56.514 55.4702L64.0585 48.5453C64.9706 48.8466 66.8595 49.485 67.1184 49.6287C67.3774 49.7723 68.9382 50.9768 69.6863 51.561L65.3414 53.4044L58.4299 55.2207L56.514 55.4702Z" fill="#95C9C7"/>
<path id="Vector 22" d="M52.029 51.8817L55.1646 42.4901L52.4342 39.5153L49.8699 37.5003L48.8784 38.4104L49.6092 45.524L51.0079 51.5479L52.029 51.8817Z" fill="#94CBC8"/>
<path id="Vector 21" d="M56.6991 41.4789L62.3927 35.2202L66.7655 37.5611L67.7547 38.6388C67.2835 39.9716 66.3209 42.7191 66.2406 43.047C66.1603 43.3749 64.608 45.7106 63.8418 46.8374L59.1524 44.1517L56.6991 41.4789Z" fill="#94CBC8"/>
<path id="Vector 19 (Stroke)" fill-rule="evenodd" clip-rule="evenodd" d="M61.5331 33.9919L63.2136 35.701L55.9428 42.85L53.0546 54.141L50.7325 53.547L53.7862 41.6091L61.5331 33.9919Z" fill="#68B2AD"/>
<path id="Vector 20 (Stroke)" fill-rule="evenodd" clip-rule="evenodd" d="M62.8448 47.2361L67.0638 38.1975L69.2357 39.2113L64.8157 48.6806L56.177 56.6098L54.5562 54.844L62.8448 47.2361Z" fill="#68B2AD"/>
<path id="Vector 18 (Stroke)" fill-rule="evenodd" clip-rule="evenodd" d="M69.7464 52.0186C62.523 49.1626 57.1361 44.979 49.4496 38.2118L51.0334 36.4127C58.6897 43.1533 63.8151 47.096 70.6278 49.7896L69.7464 52.0186Z" fill="#68B2AD"/>
<path id="Vector 17 (Stroke)" fill-rule="evenodd" clip-rule="evenodd" d="M70.8007 43.0067C70.9414 41.7826 70.3659 40.5866 69.3214 39.9328L59.7715 33.9547C58.7474 33.3137 57.4493 33.3049 56.4166 33.9321L51.2769 37.054C50.1726 37.7247 49.5808 38.9945 49.7773 40.2715L51.5576 51.8417C51.7042 52.7947 52.2733 53.6305 53.1061 54.1163L54.3165 54.8223C55.0807 55.268 55.9955 55.377 56.8431 55.1233L67.8375 51.8326C69.0619 51.4662 69.9502 50.4056 70.0961 49.1359L70.8007 43.0067ZM70.1693 38.5784C71.7359 39.559 72.5993 41.353 72.3882 43.1892L71.6836 49.3184C71.4647 51.2229 70.1322 52.8138 68.2957 53.3635L57.3013 56.6542C56.03 57.0347 54.6578 56.8712 53.5114 56.2026L52.301 55.4966C51.0517 54.7679 50.1982 53.5142 49.9782 52.0847L48.198 40.5145C47.9032 38.599 48.7909 36.6944 50.4474 35.6882L55.5871 32.5664C57.1361 31.6256 59.0832 31.6387 60.6193 32.6003L70.1693 38.5784Z" fill="#575E4D"/>
</g>
<g id="Group 278">
<path id="Vector 16_2" d="M41.639 48.4716L36.7321 57.5901C36.0744 58.8124 36.1621 60.3011 36.959 61.4377L40.1318 65.9631C40.9839 67.1786 42.4841 67.7613 43.9332 67.4398L54.4369 65.1098C55.5183 64.87 56.4336 64.1547 56.9278 63.1633L57.5023 62.0107C57.9557 61.101 58.0117 60.0441 57.6571 59.0916L53.9765 49.207C53.4642 47.8311 52.1814 46.8926 50.7149 46.821L45.0514 46.5442C43.6375 46.4751 42.3098 47.225 41.639 48.4716Z" fill="#A7DBD7"/>
<path id="Vector 23_2" d="M57.3066 59.6288L50.5011 53.1271C50.7225 52.2725 51.1942 50.5017 51.3103 50.2556C51.4264 50.0095 52.4369 48.5054 52.9277 47.7842L54.8801 51.6577L56.9623 57.8868L57.3066 59.6288Z" fill="#95C9C7"/>
<path id="Vector 22_2" d="M54.2859 63.9584L45.4839 61.6488L42.9203 64.3322L41.2269 66.8053L42.1213 67.6598L48.6011 66.5608L54.0413 64.915L54.2859 63.9584Z" fill="#94CBC8"/>
<path id="Vector 21_2" d="M44.4641 60.3023L38.3812 55.4579L40.2644 51.3065L41.1932 50.3343C42.4438 50.6862 45.0216 51.4033 45.3271 51.4572C45.6327 51.5111 47.8683 52.794 48.9479 53.4287L46.7675 57.8912L44.4641 60.3023Z" fill="#94CBC8"/>
<path id="Vector 19 (Stroke)_2" fill-rule="evenodd" clip-rule="evenodd" d="M37.3067 56.3205L38.7728 54.6763L45.7673 60.9135L56.2964 62.8818L55.8916 65.0472L44.7593 62.9662L37.3067 56.3205Z" fill="#68B2AD"/>
<path id="Vector 20 (Stroke)_2" fill-rule="evenodd" clip-rule="evenodd" d="M49.3735 54.3192L40.8299 50.9947L41.6288 48.9417L50.5794 52.4246L58.3719 59.8693L56.8502 61.4621L49.3735 54.3192Z" fill="#68B2AD"/>
<path id="Vector 18 (Stroke)_2" fill-rule="evenodd" clip-rule="evenodd" d="M53.344 47.7015C51.16 54.4982 47.6479 59.6907 41.905 67.1478L40.1597 65.8037C45.8799 58.3759 49.1869 53.4378 51.2466 47.0276L53.344 47.7015Z" fill="#68B2AD"/>
<path id="Vector 17 (Stroke)_2" fill-rule="evenodd" clip-rule="evenodd" d="M45.0152 47.2775C43.8841 47.2222 42.822 47.8221 42.2853 48.8194L37.3784 57.9379C36.8522 58.9157 36.9224 60.1067 37.5599 61.016L40.7327 65.5414C41.4144 66.5138 42.6145 66.98 43.7739 66.7228L54.2775 64.3928C55.1427 64.2009 55.8749 63.6287 56.2702 62.8355L56.8447 61.6829C57.2075 60.9552 57.2523 60.1097 56.9686 59.3477L53.2881 49.4631C52.8782 48.3623 51.852 47.6116 50.6788 47.5543L45.0152 47.2775ZM40.9921 48.1234C41.797 46.6276 43.3902 45.7277 45.0869 45.8106L50.7505 46.0874C52.5102 46.1734 54.0496 47.2995 54.6644 48.9506L58.3449 58.8352C58.7705 59.9782 58.7032 61.2465 58.1592 62.3381L57.5847 63.4907C56.9917 64.6804 55.8933 65.5387 54.5956 65.8266L44.0919 68.1566C42.3529 68.5423 40.5527 67.843 39.5302 66.3845L36.3574 61.8591C35.4012 60.4952 35.2958 58.7087 36.0852 57.242L40.9921 48.1234Z" fill="#575E4D"/>
</g>
<g id="Group 275">
<path id="Vector 16_3" d="M57.9057 44.0044L47.759 48.9019C46.3989 49.5584 45.5253 50.9257 45.5012 52.4358L45.4052 58.4486C45.3794 60.0634 46.3285 61.535 47.8103 62.1775L58.5504 66.8345C59.6562 67.314 60.9193 67.2686 61.9878 66.711L63.2301 66.0627C64.2105 65.5511 64.935 64.656 65.231 63.5904L68.303 52.5329C68.7306 50.9937 68.2002 49.3477 66.9542 48.3479L62.1425 44.4865C60.9412 43.5225 59.2928 43.3349 57.9057 44.0044Z" fill="#A7DBD7"/>
<path id="Vector 23_3" d="M64.5791 63.8396L62.7377 53.7658C63.4786 53.1544 65.0252 51.8959 65.2846 51.7533C65.5441 51.6107 67.3949 50.9314 68.2879 50.6095L67.5334 55.2685L65.3886 62.0853L64.5791 63.8396Z" fill="#95C9C7"/>
<path id="Vector 22_3" d="M59.1531 65.7237L52.8754 58.067L48.9033 58.793L45.832 59.8897L46.074 61.2137L52.4835 64.3847L58.3266 66.41L59.1531 65.7237Z" fill="#94CBC8"/>
<path id="Vector 21_3" d="M52.837 56.2297L50.5734 48.0772L54.8839 45.6235L56.323 45.3605C57.1999 46.4692 59.0123 48.7475 59.247 48.9901C59.4817 49.2328 60.6315 51.7908 61.177 53.0394L56.4059 55.5773L52.837 56.2297Z" fill="#94CBC8"/>
<path id="Vector 19 (Stroke)_3" fill-rule="evenodd" clip-rule="evenodd" d="M49.0758 48.1502L51.4175 47.6385L53.5944 57.6001L61.6113 66.0593L59.8716 67.7081L51.3953 58.7642L49.0758 48.1502Z" fill="#68B2AD"/>
<path id="Vector 20 (Stroke)_3" fill-rule="evenodd" clip-rule="evenodd" d="M60.9832 54.0956L55.5814 45.7101L57.5965 44.412L63.2556 53.1971L65.3641 64.732L63.0062 65.163L60.9832 54.0956Z" fill="#68B2AD"/>
<path id="Vector 18 (Stroke)_3" fill-rule="evenodd" clip-rule="evenodd" d="M68.7073 50.8025C62.4422 55.3941 56.0319 57.7244 46.2102 60.6245L45.5314 58.3256C55.3145 55.437 61.3815 53.1998 67.2904 48.8692L68.7073 50.8025Z" fill="#68B2AD"/>
<path id="Vector 17 (Stroke)_3" fill-rule="evenodd" clip-rule="evenodd" d="M61.6421 45.1094C60.6811 44.3382 59.3624 44.1882 58.2527 44.7238L48.1061 49.6212C47.018 50.1464 46.3191 51.2403 46.2998 52.4484L46.2038 58.4611C46.1831 59.753 46.9424 60.9303 48.1279 61.4443L58.868 66.1013C59.7526 66.4848 60.7631 66.4485 61.6179 66.0025L62.8602 65.3542C63.6445 64.9449 64.2241 64.2288 64.4609 63.3764L67.5329 52.3188C67.875 51.0875 67.4506 49.7707 66.4539 48.9708L61.6421 45.1094ZM57.5581 43.2847C59.2226 42.4813 61.2008 42.7063 62.6423 43.8631L67.454 47.7245C68.9491 48.9244 69.5857 50.8995 69.0726 52.7466L66.0006 63.8041C65.6453 65.0827 64.776 66.1569 63.5995 66.7709L62.3572 67.4191C61.075 68.0882 59.5592 68.1427 58.2323 67.5673L47.4922 62.9103C45.714 62.1393 44.5751 60.3735 44.606 58.4356L44.702 52.4229C44.731 50.6108 45.7793 48.9699 47.4115 48.1821L57.5581 43.2847Z" fill="#575E4D"/>
</g>
<g id="Group 276">
<path id="Vector 16_4" d="M82.5067 57.4386L74.4836 49.5285C73.4082 48.4682 71.8267 48.105 70.3964 48.5899L64.7012 50.5205C63.1716 51.039 62.1047 52.4276 61.9977 54.0391L61.2217 65.7197C61.1418 66.9223 61.6091 68.0967 62.4934 68.9156L63.5215 69.8677C64.3329 70.6191 65.4195 71.0005 66.5225 70.9212L77.9693 70.0977C79.5627 69.983 80.9346 68.9302 81.4574 67.4207L83.4768 61.5909C83.9809 60.1355 83.6035 58.52 82.5067 57.4386Z" fill="#A7DBD7"/>
<path id="Vector 23_4" d="M66.0687 70.3911L74.9374 65.2707C75.7623 65.7629 77.4674 66.7965 77.6889 66.993C77.9104 67.1894 79.1723 68.7042 79.7756 69.4371L75.134 70.2924L67.993 70.5638L66.0687 70.3911Z" fill="#95C9C7"/>
<path id="Vector 22_4" d="M62.4704 65.9139L67.5716 57.4278L65.5526 53.9309L63.4874 51.4069L62.3218 52.0798L61.4897 59.1823L61.5462 65.3662L62.4704 65.9139Z" fill="#94CBC8"/>
<path id="Vector 21_4" d="M69.2888 56.7741L76.2062 51.902L79.9659 55.1369L80.6974 56.4038C79.9479 57.6024 78.4114 60.0751 78.2618 60.3778C78.1122 60.6804 76.0894 62.623 75.0968 63.5565L71.1029 59.9161L69.2888 56.7741Z" fill="#94CBC8"/>
<path id="Vector 19 (Stroke)_4" fill-rule="evenodd" clip-rule="evenodd" d="M75.634 50.5162L76.9031 52.5496L68.2528 57.9482L62.9805 68.342L60.8429 67.2577L66.4172 56.2683L75.634 50.5162Z" fill="#68B2AD"/>
<path id="Vector 20 (Stroke)_4" fill-rule="evenodd" clip-rule="evenodd" d="M74.0369 63.7291L80.1189 55.823L82.0187 57.2844L75.6469 65.5672L65.4919 71.4302L64.2935 69.3544L74.0369 63.7291Z" fill="#68B2AD"/>
<path id="Vector 18 (Stroke)_4" fill-rule="evenodd" clip-rule="evenodd" d="M79.7349 69.8968C73.3045 65.5396 68.9552 60.2856 62.9225 52.0101L64.8594 50.5981C70.8683 58.841 75.0147 63.8031 81.0795 67.9125L79.7349 69.8968Z" fill="#68B2AD"/>
<path id="Vector 17 (Stroke)_4" fill-rule="evenodd" clip-rule="evenodd" d="M82.7219 61.3292C83.1252 60.1649 82.8232 58.8724 81.9458 58.0073L73.9227 50.0972C73.0624 49.249 71.7972 48.9584 70.6529 49.3463L64.9577 51.2769C63.7341 51.6918 62.8806 52.8026 62.7949 54.0918L62.0189 65.7724C61.955 66.7345 62.3289 67.674 63.0363 68.3291L64.0644 69.2812C64.7135 69.8823 65.5828 70.1875 66.4652 70.124L77.912 69.3005C79.1867 69.2088 80.2842 68.3665 80.7025 67.1589L82.7219 61.3292ZM83.0677 56.8694C84.3838 58.167 84.8368 60.1057 84.2318 61.8522L82.2124 67.6819C81.585 69.4933 79.9387 70.7568 78.0266 70.8943L66.5799 71.7178C65.2563 71.813 63.9524 71.3553 62.9787 70.4536L61.9506 69.5016C60.8894 68.5189 60.3286 67.1096 60.4245 65.6665L61.2005 53.9859C61.3289 52.0521 62.6092 50.3858 64.4447 49.7636L70.1399 47.833C71.8563 47.2511 73.7541 47.6869 75.0446 48.9593L83.0677 56.8694Z" fill="#575E4D"/>
</g>
</g>
</svg>
