<svg width="119" height="89" viewBox="0 0 119 89" fill="none" xmlns="http://www.w3.org/2000/svg">
<g id="Group 288">
<g id="Group 283">
<path id="Vector 16" d="M69.1559 41.748L62.9672 32.7459C62.1377 31.5392 60.6985 30.9035 59.2478 31.1029L53.4715 31.897C51.9201 32.1103 50.6497 33.2367 50.2524 34.7514L47.3722 45.7303C47.0757 46.8607 47.3053 48.0645 47.9971 49.0063L48.8015 50.1013C49.4362 50.9654 50.4008 51.5278 51.4656 51.6545L62.5151 52.9689C64.0532 53.1519 65.5524 52.4009 66.3269 51.0596L69.3183 45.8793C70.0651 44.586 70.0019 42.9786 69.1559 41.748Z" fill="#A7DBD7"/>
<path id="Vector 23" d="M51.1309 51.0668L60.5136 47.8175C61.2087 48.4374 62.6426 49.7341 62.8176 49.9617C62.9925 50.1893 63.9162 51.8629 64.3562 52.6713L59.7802 52.6348L52.9314 51.584L51.1309 51.0668Z" fill="#95C9C7"/>
<path id="Vector 22" d="M48.5257 46.1442L54.9382 38.9998L53.657 35.3002L52.1535 32.5185L50.9203 32.9455L48.826 39.5553L47.7462 45.4533L48.5257 46.1442Z" fill="#94CBC8"/>
<path id="Vector 21" d="M56.6933 38.6922L64.1725 35.3215L67.1592 39.0908L67.6234 40.4312C66.69 41.4349 64.7738 43.5075 64.5759 43.7682C64.3779 44.0289 62.0959 45.5077 60.9797 46.2145L57.8444 42.0163L56.6933 38.6922Z" fill="#94CBC8"/>
<path id="Vector 19 (Stroke)" fill-rule="evenodd" clip-rule="evenodd" d="M63.8819 33.8973L64.7173 36.066L55.4916 39.6202L48.5664 48.5497L46.7299 47.1254L54.052 37.6843L63.8819 33.8973Z" fill="#68B2AD"/>
<path id="Vector 20 (Stroke)" fill-rule="evenodd" clip-rule="evenodd" d="M59.9386 46.1848L67.1787 39.7724L68.7196 41.5122L61.1346 48.2301L50.3911 51.9507L49.6306 49.7546L59.9386 46.1848Z" fill="#68B2AD"/>
<path id="Vector 18 (Stroke)" fill-rule="evenodd" clip-rule="evenodd" d="M64.2328 53.1015C58.9092 47.7741 55.7314 41.9744 51.5047 32.9893L53.6077 32C57.8177 40.9497 60.8558 46.4343 65.8767 51.4587L64.2328 53.1015Z" fill="#68B2AD"/>
<path id="Vector 17 (Stroke)" fill-rule="evenodd" clip-rule="evenodd" d="M68.6477 45.4919C69.2451 44.4573 69.1946 43.1714 68.5177 42.1869L62.3291 33.1848C61.6654 32.2194 60.5141 31.7108 59.3535 31.8704L53.5772 32.6645C52.3361 32.8351 51.3198 33.7362 51.0019 34.948L48.1217 45.9269C47.8845 46.8312 48.0682 47.7943 48.6217 48.5477L49.426 49.6427C49.9338 50.334 50.7055 50.7839 51.5573 50.8852L62.6068 52.1997C63.8373 52.346 65.0366 51.7453 65.6563 50.6722L68.6477 45.4919ZM69.7945 41.3091C70.8097 42.7859 70.8856 44.7148 69.9894 46.2667L66.998 51.447C66.0685 53.0566 64.2695 53.9577 62.4238 53.7382L51.3743 52.4237C50.0966 52.2717 48.9391 51.5969 48.1773 50.5599L47.373 49.4649C46.5428 48.3348 46.2673 46.8902 46.6231 45.5338L49.5033 34.5549C49.9801 32.7372 51.5045 31.3855 53.3662 31.1296L59.1425 30.3355C60.8834 30.0961 62.6103 30.859 63.6058 32.307L69.7945 41.3091Z" fill="#575E4D"/>
</g>
<g id="Group 285">
<path id="Vector 16_2" d="M73.7367 47.1561L63.2585 44.0669C61.8539 43.6528 60.3359 44.0662 59.3352 45.1352L55.3508 49.3921C54.2807 50.5354 54.0042 52.2106 54.6503 53.6371L59.3332 63.9765C59.8153 65.041 60.7523 65.8309 61.8829 66.1262L63.1975 66.4694C64.235 66.7403 65.3383 66.569 66.2448 65.9964L75.6523 60.0534C76.9618 59.2261 77.6525 57.6983 77.4086 56.1687L76.4665 50.2613C76.2313 48.7866 75.1692 47.5784 73.7367 47.1561Z" fill="#A7DBD7"/>
<path id="Vector 23_2" d="M65.6144 65.7511L70.8515 57.3151C71.7819 57.3584 73.7124 57.4615 73.9917 57.528C74.271 57.5945 76.0429 58.3117 76.894 58.662L73.318 61.5176L67.3383 65.0179L65.6144 65.7511Z" fill="#95C9C7"/>
<path id="Vector 22_2" d="M60.4895 63.5709L60.9658 53.9826L57.6395 51.9176L54.719 50.7053L54.0307 51.8141L56.5702 58.2659L59.4489 63.5258L60.4895 63.5709Z" fill="#94CBC8"/>
<path id="Vector 21_2" d="M62.1345 52.6378L65.8173 45.3072L70.5116 46.3514L71.7167 47.0996C71.6246 48.4672 71.4431 51.284 71.4537 51.6112C71.4643 51.9383 70.6244 54.5246 70.2032 55.7769L65.1232 54.4932L62.1345 52.6378Z" fill="#94CBC8"/>
<path id="Vector 19 (Stroke)_2" fill-rule="evenodd" clip-rule="evenodd" d="M64.6942 44.3845L66.7096 45.5417L61.7865 54.1155L62.0371 65.4129L59.7137 65.4644L59.4487 53.5197L64.6942 44.3845Z" fill="#68B2AD"/>
<path id="Vector 20 (Stroke)_2" fill-rule="evenodd" clip-rule="evenodd" d="M69.3765 56.4098L70.9566 46.8683L73.2494 47.248L71.594 57.2441L65.5973 66.9035L63.6228 65.6777L69.3765 56.4098Z" fill="#68B2AD"/>
<path id="Vector 18 (Stroke)_2" fill-rule="evenodd" clip-rule="evenodd" d="M77.0695 59.0738C69.5787 58.2925 63.4563 55.7922 54.5121 51.4797L55.5215 49.3863C64.4304 53.6818 70.2457 56.0254 77.3105 56.7623L77.0695 59.0738Z" fill="#68B2AD"/>
<path id="Vector 17 (Stroke)_2" fill-rule="evenodd" clip-rule="evenodd" d="M75.7015 50.3833C75.5133 49.2035 74.6637 48.2369 73.5177 47.8991L63.0395 44.8099C61.9158 44.4786 60.7014 44.8093 59.9009 45.6646L55.9164 49.9214C55.0603 50.8361 54.8392 52.1762 55.3561 53.3174L60.0389 63.6568C60.4246 64.5084 61.1742 65.1403 62.0787 65.3765L63.3933 65.7198C64.2233 65.9365 65.1059 65.7995 65.8312 65.3414L75.2386 59.3984C76.2862 58.7366 76.8388 57.5143 76.6436 56.2906L75.7015 50.3833ZM73.9559 46.413C75.6748 46.9197 76.9493 48.3696 77.2315 50.1393L78.1737 56.0466C78.4664 57.8821 77.6375 59.7155 76.0661 60.7083L66.6586 66.6512C65.5708 67.3385 64.2468 67.544 63.0018 67.2189L61.6873 66.8756C60.3305 66.5213 59.2061 65.5734 58.6276 64.296L53.9447 53.9566C53.1694 52.2449 53.5011 50.2346 54.7853 48.8627L58.7697 44.6058C59.9705 43.3229 61.7921 42.8268 63.4776 43.3237L73.9559 46.413Z" fill="#575E4D"/>
</g>
<g id="Group 284">
<path id="Vector 16_3" d="M54.2884 38.9726L44.0231 42.7089C42.6471 43.2098 41.6711 44.4438 41.5008 45.8982L40.8226 51.6893C40.6404 53.2447 41.4127 54.7567 42.7796 55.5208L52.687 61.0594C53.707 61.6296 54.93 61.7088 56.0151 61.275L57.2766 60.7706C58.2722 60.3725 59.0583 59.5795 59.4476 58.5805L63.4881 48.2126C64.0505 46.7694 63.699 45.1298 62.5945 44.044L58.3287 39.8503C57.2637 38.8033 55.6918 38.4618 54.2884 38.9726Z" fill="#A7DBD7"/>
<path id="Vector 23_3" d="M58.7948 58.7574L57.9996 48.8599C58.7738 48.3422 60.3883 47.2788 60.6525 47.1665C60.9167 47.0542 62.7684 46.5792 63.6612 46.3557L62.4795 50.7767L59.7466 57.1438L58.7948 58.7574Z" fill="#95C9C7"/>
<path id="Vector 22_3" d="M53.3766 60.0464L48.0664 52.0486L44.1638 52.3622L41.0941 53.1211L41.1986 54.4219L47.073 58.1051L52.5125 60.628L53.3766 60.0464Z" fill="#94CBC8"/>
<path id="Vector 21_3" d="M48.2082 50.2726L46.8185 42.1874L51.2158 40.2402L52.6297 40.1266C53.3676 41.2816 54.8942 43.656 55.097 43.9129C55.2997 44.1698 56.1597 46.7495 56.5644 48.0072L51.7146 49.9908L48.2082 50.2726Z" fill="#94CBC8"/>
<path id="Vector 19 (Stroke)_3" fill-rule="evenodd" clip-rule="evenodd" d="M45.367 42.1119L47.6758 41.8464L48.8057 51.6682L55.7157 60.6095L53.8768 62.0306L46.5708 52.5771L45.367 42.1119Z" fill="#68B2AD"/>
<path id="Vector 20 (Stroke)_3" fill-rule="evenodd" clip-rule="evenodd" d="M56.275 49.0074L51.8806 40.3919L53.9509 39.3359L58.5546 48.362L59.4653 59.6949L57.1487 59.8811L56.275 49.0074Z" fill="#68B2AD"/>
<path id="Vector 18 (Stroke)_3" fill-rule="evenodd" clip-rule="evenodd" d="M64.0467 46.5828C57.5556 50.4022 51.1447 52.0259 41.3873 53.867L40.9564 51.5832C50.6754 49.7494 56.7461 48.182 62.8681 44.5798L64.0467 46.5828Z" fill="#68B2AD"/>
<path id="Vector 17 (Stroke)_3" fill-rule="evenodd" clip-rule="evenodd" d="M57.7856 40.4026C56.9337 39.565 55.6761 39.2918 54.5534 39.7005L44.2881 43.4368C43.1873 43.8375 42.4065 44.8247 42.2703 45.9882L41.5921 51.7793C41.4463 53.0236 42.0642 54.2332 43.1577 54.8445L53.0651 60.3831C53.8811 60.8392 54.8594 60.9026 55.7275 60.5556L56.989 60.0512C57.7855 59.7327 58.4144 59.0983 58.7259 58.2991L62.7663 47.9312C63.2162 46.7766 62.9351 45.465 62.0514 44.5963L57.7856 40.4026ZM54.0235 38.2445C55.7075 37.6316 57.5939 38.0414 58.8718 39.2977L63.1376 43.4914C64.4631 44.7945 64.8848 46.7619 64.2099 48.4937L60.1695 58.8617C59.7023 60.0605 58.759 61.0121 57.5642 61.4898L56.3027 61.9942C55.0006 62.5148 53.5331 62.4197 52.309 61.7354L42.4017 56.1969C40.7614 55.2799 39.8346 53.4655 40.0532 51.5991L40.7314 45.808C40.9358 44.0627 42.107 42.5819 43.7582 41.9809L54.0235 38.2445Z" fill="#575E4D"/>
</g>
<g id="Group 286">
<path id="Vector 16_4" d="M37.5953 54.787L32.2383 64.6987C31.5202 66.0273 31.6127 67.6473 32.4775 68.8855L35.9207 73.8157C36.8454 75.1399 38.4765 75.7769 40.0539 75.43L51.487 72.9157C52.6641 72.6568 53.6615 71.8803 54.2011 70.8026L54.8285 69.5497C55.3236 68.5609 55.3867 67.411 55.0027 66.3739L51.0177 55.6117C50.4629 54.1136 49.0691 53.09 47.4736 53.0091L41.312 52.6967C39.7737 52.6188 38.3276 53.432 37.5953 54.787Z" fill="#A7DBD7"/>
<path id="Vector 23_4" d="M54.6203 66.9576L47.2284 59.87C47.471 58.9405 47.9877 57.0147 48.1145 56.7472C48.2413 56.4796 49.3438 54.8451 49.8792 54.0614L51.9959 58.2798L54.2491 65.0615L54.6203 66.9576Z" fill="#95C9C7"/>
<path id="Vector 22_4" d="M51.325 71.6624L41.7526 69.1319L38.958 72.0465L37.1105 74.734L38.082 75.6655L45.1345 74.4826L51.057 72.7027L51.325 71.6624Z" fill="#94CBC8"/>
<path id="Vector 21_4" d="M40.6457 67.6651L34.0367 62.3821L36.094 57.869L37.1065 56.813C38.4666 57.1983 41.2699 57.9837 41.6022 58.043C41.9346 58.1022 44.3645 59.5025 45.5379 60.1952L43.1566 65.0463L40.6457 67.6651Z" fill="#94CBC8"/>
<path id="Vector 19 (Stroke)_4" fill-rule="evenodd" clip-rule="evenodd" d="M32.8656 63.3182L34.4641 61.5322L42.0621 68.3324L53.5143 70.4948L53.0696 72.8501L40.9612 70.5638L32.8656 63.3182Z" fill="#68B2AD"/>
<path id="Vector 20 (Stroke)_4" fill-rule="evenodd" clip-rule="evenodd" d="M45.9993 61.1648L36.7101 57.5307L37.5833 55.2985L47.3151 59.1058L55.779 67.2214L54.1201 68.9515L45.9993 61.1648Z" fill="#68B2AD"/>
<path id="Vector 18 (Stroke)_4" fill-rule="evenodd" clip-rule="evenodd" d="M50.3321 53.9722C47.9424 61.363 44.1108 67.0058 37.8474 75.1081L35.951 73.6422C42.1897 65.5717 45.7976 60.2054 48.0514 53.2348L50.3321 53.9722Z" fill="#68B2AD"/>
<path id="Vector 17 (Stroke)_4" fill-rule="evenodd" clip-rule="evenodd" d="M41.2712 53.4946C40.0406 53.4323 38.8838 54.0829 38.2979 55.1669L32.9409 65.0785C32.3664 66.1414 32.4404 67.4374 33.1322 68.428L36.5754 73.3582C37.3152 74.4175 38.6201 74.9271 39.882 74.6496L51.3151 72.1353C52.2568 71.9282 53.0547 71.307 53.4864 70.4449L54.1138 69.1919C54.5099 68.4008 54.5603 67.481 54.2531 66.6513L50.2681 55.8891C49.8243 54.6906 48.7092 53.8717 47.4329 53.807L41.2712 53.4946ZM36.8921 54.4071C37.7709 52.7811 39.5062 51.8052 41.3521 51.8987L47.5138 52.2111C49.4283 52.3082 51.101 53.5365 51.7666 55.3342L55.7516 66.0964C56.2124 67.3409 56.1367 68.7208 55.5426 69.9074L54.9152 71.1603C54.2677 72.4535 53.0709 73.3853 51.6583 73.6959L40.2252 76.2103C38.3323 76.6266 36.375 75.8621 35.2653 74.2731L31.8221 69.3429C30.7844 67.8571 30.6734 65.9131 31.5351 64.3188L36.8921 54.4071Z" fill="#575E4D"/>
</g>
<g id="Group 287">
<path id="Vector 16_5" d="M61.3727 50.5276L70.3949 56.4159C71.6042 57.2052 72.2651 58.609 72.1029 60.044L71.4568 65.758C71.2833 67.2926 70.2028 68.5718 68.7188 68.9994L57.9626 72.0993C56.8552 72.4184 55.6629 72.2206 54.7179 71.5608L53.6193 70.7937C52.7522 70.1883 52.1749 69.2506 52.0248 68.2039L50.467 57.3409C50.2501 55.8288 50.955 54.3329 52.2591 53.5374L57.2957 50.4654C58.5531 49.6984 60.1393 49.7226 61.3727 50.5276Z" fill="#A7DBD7"/>
<path id="Vector 23_5" d="M52.6125 68.5199L55.5937 59.1922C54.9661 58.5215 53.6537 57.1385 53.4251 56.9714C53.1965 56.8044 51.5245 55.9333 50.7171 55.5186L50.8616 60.0295L52.0599 66.757L52.6125 68.5199Z" fill="#95C9C7"/>
<path id="Vector 22_5" d="M57.5274 70.972L64.4194 64.4803L68.0973 65.6558L70.8755 67.0723L70.4837 68.2982L64.0166 70.5197L58.227 71.7241L57.5274 70.972Z" fill="#94CBC8"/>
<path id="Vector 21_5" d="M64.6812 62.7426L67.8272 55.2887L64.0402 52.4333L62.7076 52.0075C61.7401 52.9515 59.7421 54.8899 59.4897 55.0912C59.2374 55.2925 57.8335 57.5775 57.1631 58.6948L61.3766 61.6864L64.6812 62.7426Z" fill="#94CBC8"/>
<path id="Vector 19 (Stroke)_5" fill-rule="evenodd" clip-rule="evenodd" d="M69.238 55.5416L67.08 54.7692L63.7944 63.9494L55.1547 70.9888L56.6024 72.7657L65.7372 65.3229L69.238 55.5416Z" fill="#68B2AD"/>
<path id="Vector 20 (Stroke)_5" fill-rule="evenodd" clip-rule="evenodd" d="M57.2171 59.7202L63.3678 52.43L61.616 50.952L55.1722 58.5895L51.7587 69.2701L53.9419 69.9679L57.2171 59.7202Z" fill="#68B2AD"/>
<path id="Vector 18 (Stroke)_5" fill-rule="evenodd" clip-rule="evenodd" d="M50.2956 55.6506C55.6742 60.7731 61.4677 63.7688 70.4266 67.723L71.3521 65.6262C62.4285 61.6875 56.9491 58.8221 51.8763 53.9908L50.2956 55.6506Z" fill="#68B2AD"/>
<path id="Vector 17 (Stroke)_5" fill-rule="evenodd" clip-rule="evenodd" d="M57.6938 51.1175C58.6997 50.504 59.9688 50.5233 60.9555 51.1673L69.9776 57.0556C70.9451 57.687 71.4738 58.8101 71.344 59.9581L70.698 65.672C70.5592 66.8997 69.6948 67.9231 68.5076 68.2652L57.7514 71.3651C56.8654 71.6204 55.9116 71.4621 55.1556 70.9343L54.057 70.1672C53.3633 69.6829 52.9015 68.9327 52.7814 68.0953L51.2236 57.2324C51.0501 56.0227 51.614 54.826 52.6573 54.1896L57.6938 51.1175ZM61.7906 49.8877C60.3106 48.9217 58.407 48.8927 56.8982 49.813L51.8616 52.8851C50.2966 53.8397 49.4508 55.6348 49.711 57.4493L51.2688 68.3122C51.449 69.5683 52.1418 70.6936 53.1822 71.4201L54.2809 72.1871C55.4148 72.9788 56.8456 73.2163 58.1745 72.8333L68.9307 69.7335C70.7115 69.2203 72.0081 67.6853 72.2163 65.8437L72.8624 60.1298C73.0571 58.4078 72.264 56.7231 70.8127 55.776L61.7906 49.8877Z" fill="#575E4D"/>
</g>
<g id="Group 282">
<path id="Vector 16_6" d="M66.5574 60.2845L72.6953 51.4302C73.518 50.2433 74.9398 49.6219 76.3697 49.8242L82.0634 50.6294C83.5925 50.8457 84.8411 51.9615 85.2271 53.4569L88.0255 64.2954C88.3136 65.4113 88.0825 66.5977 87.3966 67.5239L86.5992 68.6006C85.9698 69.4505 85.0164 70.0014 83.9658 70.1222L73.0636 71.3761C71.5461 71.5507 70.0704 70.8044 69.3117 69.4785L66.3814 64.3582C65.6498 63.0799 65.7183 61.4949 66.5574 60.2845Z" fill="#A7DBD7"/>
<path id="Vector 23_6" d="M84.2982 69.5436L75.0573 66.3032C74.3694 66.9119 72.9503 68.1852 72.7769 68.409C72.6035 68.6328 71.6861 70.2798 71.2491 71.0753L75.7622 71.0569L82.5205 70.0468L84.2982 69.5436Z" fill="#95C9C7"/>
<path id="Vector 22_6" d="M86.8864 64.699L80.5896 57.6285L81.8673 53.9848L83.3609 51.2472L84.5754 51.6731L86.6155 58.1997L87.6578 64.0206L86.8864 64.699Z" fill="#94CBC8"/>
<path id="Vector 21_6" d="M78.8599 57.3184L71.4967 53.9655L68.5367 57.6713L68.0738 58.9914C68.9905 59.9849 70.8723 62.0363 71.0665 62.2942C71.2607 62.552 73.5056 64.0192 74.6037 64.7205L77.7119 60.5922L78.8599 57.3184Z" fill="#94CBC8"/>
<path id="Vector 19 (Stroke)_6" fill-rule="evenodd" clip-rule="evenodd" d="M71.7889 52.5621L70.9566 54.6977L80.0415 58.2383L86.837 67.0712L88.6536 65.6736L81.4687 56.3346L71.7889 52.5621Z" fill="#68B2AD"/>
<path id="Vector 20 (Stroke)_6" fill-rule="evenodd" clip-rule="evenodd" d="M75.6304 64.6951L68.5147 58.3433L66.9884 60.0531L74.4431 66.7076L85.0242 70.418L85.7826 68.2551L75.6304 64.6951Z" fill="#68B2AD"/>
<path id="Vector 18 (Stroke)_6" fill-rule="evenodd" clip-rule="evenodd" d="M71.3692 71.5001C76.6398 66.2667 79.7961 60.5591 83.9989 51.7141L81.9287 50.7304C77.7425 59.5405 74.7252 64.9378 69.7542 69.8737L71.3692 71.5001Z" fill="#68B2AD"/>
<path id="Vector 17 (Stroke)_6" fill-rule="evenodd" clip-rule="evenodd" d="M67.0444 63.9784C66.4591 62.9557 66.5139 61.6878 67.1852 60.7194L73.3231 51.8652C73.9813 50.9157 75.1187 50.4185 76.2626 50.5803L81.9563 51.3856C83.1796 51.5586 84.1784 52.4513 84.4873 53.6476L87.2856 64.4861C87.5161 65.3789 87.3313 66.3279 86.7825 67.0689L85.9851 68.1456C85.4816 68.8255 84.7189 69.2662 83.8784 69.3629L72.9762 70.6168C71.7622 70.7565 70.5817 70.1594 69.9747 69.0987L67.0444 63.9784ZM65.9294 59.8489C64.9225 61.3014 64.8403 63.2034 65.7182 64.7373L68.6485 69.8577C69.559 71.4487 71.3297 72.3443 73.1508 72.1348L84.053 70.8809C85.3137 70.7359 86.4578 70.0748 87.2131 69.055L88.0105 67.9782C88.8336 66.8668 89.1109 65.4432 88.7651 64.1041L85.9668 53.2656C85.5035 51.4711 84.0053 50.1322 82.1703 49.8727L76.4766 49.0674C74.7607 48.8247 73.0546 49.5704 72.0673 50.9947L65.9294 59.8489Z" fill="#575E4D"/>
</g>
</g>
</svg>
