<svg width="24" height="24" viewBox="0 0 24 24" fill="none" xmlns="http://www.w3.org/2000/svg">
<rect x="1" y="1" width="22" height="22" rx="3" stroke="#565F4E" stroke-width="2"/>
<mask id="mask0_951_205" style="mask-type:alpha" maskUnits="userSpaceOnUse" x="5" y="6" width="15" height="14">
<rect x="5" y="6" width="15" height="14" fill="#D9D9D9"/>
</mask>
<g mask="url(#mask0_951_205)">
<path d="M16.98 15.52C17.0333 15.6133 17.06 15.7133 17.06 15.82C17.06 16.18 16.9533 16.4867 16.74 16.74C16.54 16.9933 16.26 17.12 15.9 17.12H15.82C15.7267 17.0533 15.64 17.02 15.56 17.02L15.14 16.88C14.94 16.8267 14.7867 16.76 14.68 16.68C14.5733 16.6133 14.4667 16.46 14.36 16.22C14.2933 16.0467 14.26 15.88 14.26 15.72C13.5 14.9333 12.8267 14.2733 12.24 13.74C12.0133 14.02 11.8 14.2933 11.6 14.56C10.8533 15.4933 10.2733 16.18 9.86 16.62C9.67333 16.82 9.4 16.92 9.04 16.92C8.77333 16.92 8.54667 16.78 8.36 16.5C8.17333 16.22 8.08 15.94 8.08 15.66C8.08 15.4333 8.12 15.2333 8.2 15.06C8.32 14.82 8.92 14.08 10 12.84C10.1333 12.6933 10.3067 12.4933 10.52 12.24C9.98667 11.7867 9.44 11.3867 8.88 11.04H8.9C8.59333 10.9067 8.33333 10.7333 8.12 10.52C7.90667 10.2933 7.8 10.04 7.8 9.76C7.8 9.46667 7.90667 9.20667 8.12 8.98C8.34667 8.74 8.60667 8.62 8.9 8.62C9.14 8.62 9.58 8.84 10.22 9.28C10.8733 9.70667 11.4467 10.1133 11.94 10.5L13.92 8.1C14.0667 7.91333 14.2933 7.82 14.6 7.82C14.9067 7.82 15.16 7.95333 15.36 8.22C15.5733 8.47333 15.68 8.76 15.68 9.08C15.68 9.28 15.6467 9.44 15.58 9.56C15.5267 9.68 15.42 9.84667 15.26 10.06C14.9133 10.4867 14.7267 10.7133 14.7 10.74C14.3667 11.1667 14.04 11.5733 13.72 11.96C15.84 13.88 16.9267 15.0667 16.98 15.52Z" fill="#555E4B"/>
</g>
</svg>
