<svg width="60" height="60" viewBox="0 0 60 60" fill="none" xmlns="http://www.w3.org/2000/svg">
<g id="Frame">
<path id="Vector" d="M30 3.82559C15.5445 3.82559 3.82568 15.5444 3.82568 29.9999C3.82568 44.4555 15.5445 56.1744 30 56.1744C44.4556 56.1744 56.1744 44.4555 56.1744 29.9999C56.1744 15.5444 44.4556 3.82559 30 3.82559ZM42.0017 37.3743C42.4004 37.7739 42.4004 38.4206 42.0017 38.8201L38.8202 42.0017C38.4206 42.4004 37.7739 42.4013 37.3743 42.0017L30 34.6274L22.6257 42.0017C22.2261 42.4004 21.5786 42.4004 21.1798 42.0017L17.9983 38.8201C17.5996 38.4214 17.5996 37.7739 17.9983 37.3743L25.3735 29.9999L17.9983 22.6257C17.5996 22.2261 17.5996 21.5785 17.9983 21.1798L21.1798 17.9982C21.5795 17.5996 22.2261 17.5996 22.6257 17.9982L30 25.3735L37.3743 17.9982C37.7739 17.5996 38.4206 17.5996 38.8202 17.9982L42.0017 21.1798C42.4004 21.5785 42.4004 22.2261 42.0017 22.6257L34.6274 29.9999L42.0017 37.3743Z" fill="#B98075"/>
</g>
</svg>
