<svg width="56" height="56" viewBox="0 0 56 56" fill="none" xmlns="http://www.w3.org/2000/svg">
<g id="&#229;&#136;&#183;&#230;&#150;&#176; 1">
<g id="Vector">
<mask id="path-1-outside-1_972_104" maskUnits="userSpaceOnUse" x="-0.249268" y="3.64897" width="57" height="49" fill="black">
<rect fill="white" x="-0.249268" y="3.64897" width="57" height="49"/>
<path d="M37.6249 41.9055C34.3767 44.2252 30.397 45.2872 26.4249 44.8945C26.2394 44.877 26.0574 44.8455 25.8684 44.821C25.5114 44.772 25.1544 44.7265 24.8079 44.6565C24.5943 44.6133 24.3819 44.5642 24.1709 44.5095C23.8307 44.4344 23.4933 44.3468 23.1594 44.247C23.0019 44.198 22.8444 44.142 22.6834 44.086C22.2148 43.9297 21.7535 43.7522 21.3009 43.554C20.866 43.3642 20.4398 43.1552 20.0234 42.9275L19.9674 42.8995C18.1016 41.86 16.4478 40.4793 15.0919 38.829C15.0254 38.7485 14.9624 38.6575 14.8959 38.5735C12.5108 35.5629 11.2144 31.8339 11.2174 27.993H15.1094C15.1607 27.993 15.2109 27.979 15.2547 27.9525C15.2985 27.926 15.3342 27.8879 15.3579 27.8425C15.3825 27.7981 15.3942 27.7477 15.3917 27.697C15.3893 27.6463 15.3727 27.5973 15.3439 27.5555L8.80943 17.6225C8.78415 17.5828 8.74924 17.55 8.70794 17.5274C8.66665 17.5047 8.6203 17.4928 8.57319 17.4928C8.52607 17.4928 8.47972 17.5047 8.43843 17.5274C8.39713 17.55 8.36222 17.5828 8.33694 17.6225L1.79894 27.5555C1.74294 27.636 1.73244 27.748 1.78494 27.8425C1.83744 27.937 1.93194 27.993 2.03344 27.993H5.92544C5.92544 32.697 7.37443 37.0545 9.83144 40.656C9.86294 40.7085 9.88393 40.761 9.91543 40.81C10.1709 41.1775 10.4544 41.5205 10.7274 41.8705C10.8289 42 10.9269 42.1365 11.0319 42.266C11.4344 42.763 11.8614 43.2215 12.3024 43.68L12.4249 43.806C14.3502 45.7613 16.6279 47.3348 19.1379 48.4435L19.5439 48.6255C20.0094 48.8215 20.4924 48.993 20.9719 49.1575C21.1994 49.2345 21.4234 49.315 21.6544 49.385C22.0779 49.511 22.5084 49.616 22.9424 49.721C23.2329 49.791 23.5164 49.8645 23.8139 49.9205C23.9329 49.9485 24.0484 49.9835 24.1709 50.001C24.5804 50.0745 24.9899 50.1165 25.4029 50.1655L25.8439 50.2285C31.0999 50.7642 36.371 49.3655 40.6699 46.2945C41.2458 45.8821 41.6368 45.26 41.7585 44.5622C41.8803 43.8643 41.7231 43.1466 41.3209 42.5635C41.1238 42.2748 40.871 42.0284 40.5774 41.8386C40.2838 41.6488 39.9553 41.5195 39.6111 41.4582C39.267 41.397 38.914 41.405 38.573 41.4818C38.2319 41.5586 37.9096 41.7026 37.6249 41.9055ZM50.0814 27.993C50.085 23.4862 48.7299 19.083 46.1929 15.358C46.1544 15.295 46.1299 15.232 46.0949 15.1795C45.7872 14.7487 45.4651 14.3285 45.1289 13.9195L45.0134 13.769C42.8087 11.0499 39.9831 8.90009 36.7744 7.5005C36.6863 7.46111 36.5988 7.42027 36.5119 7.378C36.001 7.17 35.4839 6.97741 34.9614 6.8005C34.7619 6.7375 34.5764 6.6675 34.3804 6.6115C33.9228 6.47418 33.4605 6.35278 32.9944 6.2475C32.7389 6.188 32.4799 6.1215 32.2174 6.069C32.0879 6.0445 31.9689 6.006 31.8394 5.9815C31.4894 5.9185 31.1394 5.894 30.7894 5.8485C30.5514 5.817 30.3099 5.7785 30.0684 5.754C29.4864 5.70224 28.9027 5.67305 28.3184 5.6665C28.2134 5.6665 28.1084 5.649 27.9999 5.649C23.4615 5.6413 19.0345 7.05494 15.3404 9.6915C14.763 10.1035 14.3707 10.726 14.2482 11.4247C14.1258 12.1234 14.283 12.8422 14.6859 13.426C14.8837 13.714 15.1368 13.9598 15.4306 14.149C15.7243 14.3381 16.0527 14.467 16.3968 14.5279C16.7408 14.5888 17.0935 14.5806 17.4343 14.5038C17.7752 14.427 18.0973 14.2831 18.3819 14.0805C21.6372 11.7617 25.622 10.6999 29.5994 11.0915L30.0439 11.1545C30.4464 11.2 30.8419 11.2595 31.2304 11.3365C31.4019 11.368 31.5734 11.4135 31.7414 11.452C32.1229 11.5395 32.5079 11.634 32.8789 11.746L33.2289 11.8685C33.6559 12.0085 34.0724 12.159 34.4854 12.334L34.6149 12.3935C37.0824 13.468 39.2489 15.1235 40.9394 17.1955L40.9709 17.2375C43.4427 20.2778 44.789 24.0782 44.7824 27.9965H40.8939C40.8428 27.996 40.7924 28.0094 40.7484 28.0355C40.7044 28.0615 40.6683 28.0991 40.6441 28.1442C40.62 28.1893 40.6086 28.2402 40.6113 28.2912C40.614 28.3423 40.6306 28.3917 40.6594 28.434L47.2009 38.3635C47.2264 38.4025 47.2611 38.4345 47.3021 38.4567C47.343 38.4789 47.3889 38.4905 47.4354 38.4905C47.482 38.4905 47.5278 38.4789 47.5688 38.4567C47.6097 38.4345 47.6445 38.4025 47.6699 38.3635L54.2044 28.434C54.2526 28.4335 54.2998 28.4206 54.3415 28.3965C54.3832 28.3724 54.4179 28.338 54.4424 28.2965C54.4669 28.2551 54.4804 28.208 54.4814 28.1599C54.4824 28.1118 54.471 28.0642 54.4482 28.0217C54.4255 27.9793 54.3922 27.9435 54.3515 27.9176C54.3109 27.8918 54.2643 27.8769 54.2162 27.8744C54.1681 27.8719 54.1202 27.8818 54.077 27.9032C54.0339 27.9245 53.997 27.9567 53.9699 27.9965H50.0814V27.993Z"/>
</mask>
<path d="M37.6249 41.9055C34.3767 44.2252 30.397 45.2872 26.4249 44.8945C26.2394 44.877 26.0574 44.8455 25.8684 44.821C25.5114 44.772 25.1544 44.7265 24.8079 44.6565C24.5943 44.6133 24.3819 44.5642 24.1709 44.5095C23.8307 44.4344 23.4933 44.3468 23.1594 44.247C23.0019 44.198 22.8444 44.142 22.6834 44.086C22.2148 43.9297 21.7535 43.7522 21.3009 43.554C20.866 43.3642 20.4398 43.1552 20.0234 42.9275L19.9674 42.8995C18.1016 41.86 16.4478 40.4793 15.0919 38.829C15.0254 38.7485 14.9624 38.6575 14.8959 38.5735C12.5108 35.5629 11.2144 31.8339 11.2174 27.993H15.1094C15.1607 27.993 15.2109 27.979 15.2547 27.9525C15.2985 27.926 15.3342 27.8879 15.3579 27.8425C15.3825 27.7981 15.3942 27.7477 15.3917 27.697C15.3893 27.6463 15.3727 27.5973 15.3439 27.5555L8.80943 17.6225C8.78415 17.5828 8.74924 17.55 8.70794 17.5274C8.66665 17.5047 8.6203 17.4928 8.57319 17.4928C8.52607 17.4928 8.47972 17.5047 8.43843 17.5274C8.39713 17.55 8.36222 17.5828 8.33694 17.6225L1.79894 27.5555C1.74294 27.636 1.73244 27.748 1.78494 27.8425C1.83744 27.937 1.93194 27.993 2.03344 27.993H5.92544C5.92544 32.697 7.37443 37.0545 9.83144 40.656C9.86294 40.7085 9.88393 40.761 9.91543 40.81C10.1709 41.1775 10.4544 41.5205 10.7274 41.8705C10.8289 42 10.9269 42.1365 11.0319 42.266C11.4344 42.763 11.8614 43.2215 12.3024 43.68L12.4249 43.806C14.3502 45.7613 16.6279 47.3348 19.1379 48.4435L19.5439 48.6255C20.0094 48.8215 20.4924 48.993 20.9719 49.1575C21.1994 49.2345 21.4234 49.315 21.6544 49.385C22.0779 49.511 22.5084 49.616 22.9424 49.721C23.2329 49.791 23.5164 49.8645 23.8139 49.9205C23.9329 49.9485 24.0484 49.9835 24.1709 50.001C24.5804 50.0745 24.9899 50.1165 25.4029 50.1655L25.8439 50.2285C31.0999 50.7642 36.371 49.3655 40.6699 46.2945C41.2458 45.8821 41.6368 45.26 41.7585 44.5622C41.8803 43.8643 41.7231 43.1466 41.3209 42.5635C41.1238 42.2748 40.871 42.0284 40.5774 41.8386C40.2838 41.6488 39.9553 41.5195 39.6111 41.4582C39.267 41.397 38.914 41.405 38.573 41.4818C38.2319 41.5586 37.9096 41.7026 37.6249 41.9055ZM50.0814 27.993C50.085 23.4862 48.7299 19.083 46.1929 15.358C46.1544 15.295 46.1299 15.232 46.0949 15.1795C45.7872 14.7487 45.4651 14.3285 45.1289 13.9195L45.0134 13.769C42.8087 11.0499 39.9831 8.90009 36.7744 7.5005C36.6863 7.46111 36.5988 7.42027 36.5119 7.378C36.001 7.17 35.4839 6.97741 34.9614 6.8005C34.7619 6.7375 34.5764 6.6675 34.3804 6.6115C33.9228 6.47418 33.4605 6.35278 32.9944 6.2475C32.7389 6.188 32.4799 6.1215 32.2174 6.069C32.0879 6.0445 31.9689 6.006 31.8394 5.9815C31.4894 5.9185 31.1394 5.894 30.7894 5.8485C30.5514 5.817 30.3099 5.7785 30.0684 5.754C29.4864 5.70224 28.9027 5.67305 28.3184 5.6665C28.2134 5.6665 28.1084 5.649 27.9999 5.649C23.4615 5.6413 19.0345 7.05494 15.3404 9.6915C14.763 10.1035 14.3707 10.726 14.2482 11.4247C14.1258 12.1234 14.283 12.8422 14.6859 13.426C14.8837 13.714 15.1368 13.9598 15.4306 14.149C15.7243 14.3381 16.0527 14.467 16.3968 14.5279C16.7408 14.5888 17.0935 14.5806 17.4343 14.5038C17.7752 14.427 18.0973 14.2831 18.3819 14.0805C21.6372 11.7617 25.622 10.6999 29.5994 11.0915L30.0439 11.1545C30.4464 11.2 30.8419 11.2595 31.2304 11.3365C31.4019 11.368 31.5734 11.4135 31.7414 11.452C32.1229 11.5395 32.5079 11.634 32.8789 11.746L33.2289 11.8685C33.6559 12.0085 34.0724 12.159 34.4854 12.334L34.6149 12.3935C37.0824 13.468 39.2489 15.1235 40.9394 17.1955L40.9709 17.2375C43.4427 20.2778 44.789 24.0782 44.7824 27.9965H40.8939C40.8428 27.996 40.7924 28.0094 40.7484 28.0355C40.7044 28.0615 40.6683 28.0991 40.6441 28.1442C40.62 28.1893 40.6086 28.2402 40.6113 28.2912C40.614 28.3423 40.6306 28.3917 40.6594 28.434L47.2009 38.3635C47.2264 38.4025 47.2611 38.4345 47.3021 38.4567C47.343 38.4789 47.3889 38.4905 47.4354 38.4905C47.482 38.4905 47.5278 38.4789 47.5688 38.4567C47.6097 38.4345 47.6445 38.4025 47.6699 38.3635L54.2044 28.434C54.2526 28.4335 54.2998 28.4206 54.3415 28.3965C54.3832 28.3724 54.4179 28.338 54.4424 28.2965C54.4669 28.2551 54.4804 28.208 54.4814 28.1599C54.4824 28.1118 54.471 28.0642 54.4482 28.0217C54.4255 27.9793 54.3922 27.9435 54.3515 27.9176C54.3109 27.8918 54.2643 27.8769 54.2162 27.8744C54.1681 27.8719 54.1202 27.8818 54.077 27.9032C54.0339 27.9245 53.997 27.9567 53.9699 27.9965H50.0814V27.993Z" fill="#F8D176"/>
<path d="M37.6249 41.9055C34.3767 44.2252 30.397 45.2872 26.4249 44.8945C26.2394 44.877 26.0574 44.8455 25.8684 44.821C25.5114 44.772 25.1544 44.7265 24.8079 44.6565C24.5943 44.6133 24.3819 44.5642 24.1709 44.5095C23.8307 44.4344 23.4933 44.3468 23.1594 44.247C23.0019 44.198 22.8444 44.142 22.6834 44.086C22.2148 43.9297 21.7535 43.7522 21.3009 43.554C20.866 43.3642 20.4398 43.1552 20.0234 42.9275L19.9674 42.8995C18.1016 41.86 16.4478 40.4793 15.0919 38.829C15.0254 38.7485 14.9624 38.6575 14.8959 38.5735C12.5108 35.5629 11.2144 31.8339 11.2174 27.993H15.1094C15.1607 27.993 15.2109 27.979 15.2547 27.9525C15.2985 27.926 15.3342 27.8879 15.3579 27.8425C15.3825 27.7981 15.3942 27.7477 15.3917 27.697C15.3893 27.6463 15.3727 27.5973 15.3439 27.5555L8.80943 17.6225C8.78415 17.5828 8.74924 17.55 8.70794 17.5274C8.66665 17.5047 8.6203 17.4928 8.57319 17.4928C8.52607 17.4928 8.47972 17.5047 8.43843 17.5274C8.39713 17.55 8.36222 17.5828 8.33694 17.6225L1.79894 27.5555C1.74294 27.636 1.73244 27.748 1.78494 27.8425C1.83744 27.937 1.93194 27.993 2.03344 27.993H5.92544C5.92544 32.697 7.37443 37.0545 9.83144 40.656C9.86294 40.7085 9.88393 40.761 9.91543 40.81C10.1709 41.1775 10.4544 41.5205 10.7274 41.8705C10.8289 42 10.9269 42.1365 11.0319 42.266C11.4344 42.763 11.8614 43.2215 12.3024 43.68L12.4249 43.806C14.3502 45.7613 16.6279 47.3348 19.1379 48.4435L19.5439 48.6255C20.0094 48.8215 20.4924 48.993 20.9719 49.1575C21.1994 49.2345 21.4234 49.315 21.6544 49.385C22.0779 49.511 22.5084 49.616 22.9424 49.721C23.2329 49.791 23.5164 49.8645 23.8139 49.9205C23.9329 49.9485 24.0484 49.9835 24.1709 50.001C24.5804 50.0745 24.9899 50.1165 25.4029 50.1655L25.8439 50.2285C31.0999 50.7642 36.371 49.3655 40.6699 46.2945C41.2458 45.8821 41.6368 45.26 41.7585 44.5622C41.8803 43.8643 41.7231 43.1466 41.3209 42.5635C41.1238 42.2748 40.871 42.0284 40.5774 41.8386C40.2838 41.6488 39.9553 41.5195 39.6111 41.4582C39.267 41.397 38.914 41.405 38.573 41.4818C38.2319 41.5586 37.9096 41.7026 37.6249 41.9055ZM50.0814 27.993C50.085 23.4862 48.7299 19.083 46.1929 15.358C46.1544 15.295 46.1299 15.232 46.0949 15.1795C45.7872 14.7487 45.4651 14.3285 45.1289 13.9195L45.0134 13.769C42.8087 11.0499 39.9831 8.90009 36.7744 7.5005C36.6863 7.46111 36.5988 7.42027 36.5119 7.378C36.001 7.17 35.4839 6.97741 34.9614 6.8005C34.7619 6.7375 34.5764 6.6675 34.3804 6.6115C33.9228 6.47418 33.4605 6.35278 32.9944 6.2475C32.7389 6.188 32.4799 6.1215 32.2174 6.069C32.0879 6.0445 31.9689 6.006 31.8394 5.9815C31.4894 5.9185 31.1394 5.894 30.7894 5.8485C30.5514 5.817 30.3099 5.7785 30.0684 5.754C29.4864 5.70224 28.9027 5.67305 28.3184 5.6665C28.2134 5.6665 28.1084 5.649 27.9999 5.649C23.4615 5.6413 19.0345 7.05494 15.3404 9.6915C14.763 10.1035 14.3707 10.726 14.2482 11.4247C14.1258 12.1234 14.283 12.8422 14.6859 13.426C14.8837 13.714 15.1368 13.9598 15.4306 14.149C15.7243 14.3381 16.0527 14.467 16.3968 14.5279C16.7408 14.5888 17.0935 14.5806 17.4343 14.5038C17.7752 14.427 18.0973 14.2831 18.3819 14.0805C21.6372 11.7617 25.622 10.6999 29.5994 11.0915L30.0439 11.1545C30.4464 11.2 30.8419 11.2595 31.2304 11.3365C31.4019 11.368 31.5734 11.4135 31.7414 11.452C32.1229 11.5395 32.5079 11.634 32.8789 11.746L33.2289 11.8685C33.6559 12.0085 34.0724 12.159 34.4854 12.334L34.6149 12.3935C37.0824 13.468 39.2489 15.1235 40.9394 17.1955L40.9709 17.2375C43.4427 20.2778 44.789 24.0782 44.7824 27.9965H40.8939C40.8428 27.996 40.7924 28.0094 40.7484 28.0355C40.7044 28.0615 40.6683 28.0991 40.6441 28.1442C40.62 28.1893 40.6086 28.2402 40.6113 28.2912C40.614 28.3423 40.6306 28.3917 40.6594 28.434L47.2009 38.3635C47.2264 38.4025 47.2611 38.4345 47.3021 38.4567C47.343 38.4789 47.3889 38.4905 47.4354 38.4905C47.482 38.4905 47.5278 38.4789 47.5688 38.4567C47.6097 38.4345 47.6445 38.4025 47.6699 38.3635L54.2044 28.434C54.2526 28.4335 54.2998 28.4206 54.3415 28.3965C54.3832 28.3724 54.4179 28.338 54.4424 28.2965C54.4669 28.2551 54.4804 28.208 54.4814 28.1599C54.4824 28.1118 54.471 28.0642 54.4482 28.0217C54.4255 27.9793 54.3922 27.9435 54.3515 27.9176C54.3109 27.8918 54.2643 27.8769 54.2162 27.8744C54.1681 27.8719 54.1202 27.8818 54.077 27.9032C54.0339 27.9245 53.997 27.9567 53.9699 27.9965H50.0814V27.993Z" stroke="#5E4D2C" stroke-width="3" mask="url(#path-1-outside-1_972_104)"/>
</g>
<g id="Group 368">
<g id="Group 253">
<g id="Group 254">
<path id="Vector 16" d="M29.7647 20.7151L22.8845 22.611C21.9622 22.8651 21.2621 23.6176 21.0751 24.5558L20.3304 28.2914C20.1304 29.2947 20.5542 30.3198 21.4044 30.8889L27.5661 35.014C28.2005 35.4387 28.9928 35.5542 29.7221 35.3285L30.57 35.0661C31.2391 34.8589 31.7925 34.3837 32.0983 33.7535L35.2719 27.2134C35.7137 26.303 35.5706 25.217 34.9082 24.4521L32.3497 21.498C31.711 20.7605 30.7052 20.4559 29.7647 20.7151Z" fill="#A7DBD7"/>
<path id="Vector 23" d="M31.6638 33.8347V27.348C32.1951 27.0514 33.3021 26.4434 33.48 26.3841C33.6579 26.3248 34.8886 26.1123 35.4816 26.0135L34.4808 28.8306L32.368 32.8338L31.6638 33.8347Z" fill="#95C9C7"/>
<path id="Vector 22" d="M28.0683 34.3907L25.0288 28.9047H22.471L20.4324 29.2382V30.0908L24.065 32.7967L27.4751 34.7241L28.0683 34.3907Z" fill="#94CBC8"/>
<path id="Vector 21" d="M25.2141 27.7557L24.7322 22.418L27.6975 21.3801H28.6242C29.0443 22.1708 29.9141 23.7968 30.0327 23.9748C30.1513 24.1527 30.5764 25.8775 30.7741 26.7177L27.5122 27.7557H25.2141Z" fill="#94CBC8"/>
<path id="Vector 19 (Stroke)" fill-rule="evenodd" clip-rule="evenodd" d="M23.7908 22.2929L25.3081 22.2408L25.53 28.6958L29.5618 34.8799L28.29 35.7091L24.0271 29.1707L23.7908 22.2929Z" fill="#68B2AD"/>
<path id="Vector 20 (Stroke)" fill-rule="evenodd" clip-rule="evenodd" d="M30.5331 27.3536L28.1223 21.5133L29.5257 20.934L32.0513 27.0526V34.4801H30.5331V27.3536Z" fill="#68B2AD"/>
<path id="Vector 18 (Stroke)" fill-rule="evenodd" clip-rule="evenodd" d="M35.7209 26.1815C31.2941 28.329 27.0345 29.0508 20.5842 29.7392L20.4231 28.2295C26.848 27.5439 30.8832 26.8408 35.0582 24.8155L35.7209 26.1815Z" fill="#68B2AD"/>
</g>
<path id="Vector 17" d="M30.0874 20.6262L22.5691 22.698C21.8401 22.8989 21.2868 23.4936 21.139 24.2351L20.2611 28.639C20.103 29.432 20.438 30.2421 21.1099 30.6919L27.7763 35.1548C28.2777 35.4905 28.9039 35.5819 29.4803 35.4034L30.7898 34.9981C31.3187 34.8344 31.7561 34.4588 31.9978 33.9607L35.4245 26.899C35.7737 26.1794 35.6606 25.3211 35.137 24.7165L32.1305 21.245C31.6257 20.6621 30.8308 20.4214 30.0874 20.6262Z" stroke="#575E4D" stroke-width="1.2" stroke-linecap="round" stroke-linejoin="round"/>
</g>
</g>
</g>
</svg>
