<svg width="68" height="56" viewBox="0 0 68 56" fill="none" xmlns="http://www.w3.org/2000/svg">
<g id="Group 288">
<g id="Group 283">
<path id="Vector 16" d="M43.1559 14.748L36.9672 5.7459C36.1377 4.53921 34.6985 3.90349 33.2478 4.10292L27.4715 4.89701C25.9201 5.11028 24.6497 6.23672 24.2524 7.75145L21.3722 18.7303C21.0757 19.8607 21.3053 21.0645 21.9971 22.0063L22.8015 23.1013C23.4362 23.9654 24.4008 24.5278 25.4656 24.6545L36.5151 25.9689C38.0532 26.1519 39.5524 25.4009 40.3269 24.0596L43.3183 18.8793C44.0651 17.586 44.0019 15.9786 43.1559 14.748Z" fill="#A7DBD7"/>
<path id="Vector 23" d="M25.1309 24.0668L34.5136 20.8175C35.2087 21.4374 36.6426 22.7341 36.8176 22.9617C36.9925 23.1893 37.9162 24.8629 38.3562 25.6713L33.7802 25.6348L26.9314 24.584L25.1309 24.0668Z" fill="#95C9C7"/>
<path id="Vector 22" d="M22.5257 19.1442L28.9382 11.9998L27.657 8.30022L26.1535 5.51848L24.9203 5.94552L22.826 12.5553L21.7462 18.4533L22.5257 19.1442Z" fill="#94CBC8"/>
<path id="Vector 21" d="M30.6933 11.6922L38.1725 8.32154L41.1592 12.0908L41.6234 13.4312C40.69 14.4349 38.7738 16.5075 38.5759 16.7682C38.3779 17.0289 36.0959 18.5077 34.9797 19.2145L31.8444 15.0163L30.6933 11.6922Z" fill="#94CBC8"/>
<path id="Vector 19 (Stroke)" fill-rule="evenodd" clip-rule="evenodd" d="M37.8819 6.89733L38.7173 9.066L29.4916 12.6202L22.5664 21.5497L20.7299 20.1254L28.052 10.6843L37.8819 6.89733Z" fill="#68B2AD"/>
<path id="Vector 20 (Stroke)" fill-rule="evenodd" clip-rule="evenodd" d="M33.9386 19.1848L41.1787 12.7724L42.7196 14.5122L35.1346 21.2301L24.3911 24.9507L23.6306 22.7546L33.9386 19.1848Z" fill="#68B2AD"/>
<path id="Vector 18 (Stroke)" fill-rule="evenodd" clip-rule="evenodd" d="M38.2328 26.1015C32.9092 20.7741 29.7314 14.9744 25.5047 5.98928L27.6077 5.00002C31.8177 13.9497 34.8558 19.4343 39.8767 24.4587L38.2328 26.1015Z" fill="#68B2AD"/>
<path id="Vector 17 (Stroke)" fill-rule="evenodd" clip-rule="evenodd" d="M42.6477 18.4919C43.2451 17.4573 43.1946 16.1714 42.5177 15.1869L36.3291 6.18478C35.6654 5.21942 34.5141 4.71085 33.3535 4.87039L27.5772 5.66448C26.3361 5.8351 25.3198 6.73625 25.0019 7.94803L22.1217 18.9269C21.8845 19.8312 22.0682 20.7943 22.6217 21.5477L23.426 22.6427C23.9338 23.334 24.7055 23.7839 25.5573 23.8852L36.6068 25.1997C37.8373 25.346 39.0366 24.7453 39.6563 23.6722L42.6477 18.4919ZM43.7945 14.3091C44.8097 15.7859 44.8856 17.7148 43.9894 19.2667L40.998 24.447C40.0685 26.0566 38.2695 26.9577 36.4238 26.7382L25.3743 25.4237C24.0966 25.2717 22.9391 24.5969 22.1773 23.5599L21.373 22.4649C20.5428 21.3348 20.2673 19.8902 20.6231 18.5338L23.5033 7.55488C23.9801 5.73721 25.5045 4.38548 27.3662 4.12955L33.1425 3.33546C34.8834 3.09615 36.6103 3.85901 37.6058 5.30704L43.7945 14.3091Z" fill="#575E4D"/>
</g>
<g id="Group 285">
<path id="Vector 16_2" d="M47.7367 20.1561L37.2585 17.0669C35.8539 16.6528 34.3359 17.0662 33.3352 18.1352L29.3508 22.3921C28.2807 23.5354 28.0042 25.2106 28.6503 26.6371L33.3332 36.9765C33.8153 38.041 34.7523 38.8309 35.8829 39.1262L37.1975 39.4694C38.235 39.7403 39.3383 39.569 40.2448 38.9964L49.6523 33.0534C50.9618 32.2261 51.6525 30.6983 51.4086 29.1687L50.4665 23.2613C50.2313 21.7866 49.1692 20.5784 47.7367 20.1561Z" fill="#A7DBD7"/>
<path id="Vector 23_2" d="M39.6144 38.7511L44.8515 30.3151C45.7819 30.3584 47.7124 30.4615 47.9917 30.528C48.271 30.5945 50.0429 31.3117 50.894 31.662L47.318 34.5176L41.3383 38.0179L39.6144 38.7511Z" fill="#95C9C7"/>
<path id="Vector 22_2" d="M34.4895 36.5709L34.9658 26.9826L31.6395 24.9176L28.719 23.7053L28.0307 24.8141L30.5702 31.2659L33.4489 36.5258L34.4895 36.5709Z" fill="#94CBC8"/>
<path id="Vector 21_2" d="M36.1345 25.6378L39.8173 18.3072L44.5116 19.3514L45.7167 20.0996C45.6246 21.4672 45.4431 24.284 45.4537 24.6112C45.4643 24.9383 44.6244 27.5246 44.2032 28.7769L39.1232 27.4932L36.1345 25.6378Z" fill="#94CBC8"/>
<path id="Vector 19 (Stroke)_2" fill-rule="evenodd" clip-rule="evenodd" d="M38.6942 17.3845L40.7096 18.5417L35.7865 27.1155L36.0371 38.4129L33.7137 38.4644L33.4487 26.5197L38.6942 17.3845Z" fill="#68B2AD"/>
<path id="Vector 20 (Stroke)_2" fill-rule="evenodd" clip-rule="evenodd" d="M43.3765 29.4098L44.9566 19.8683L47.2494 20.248L45.594 30.2441L39.5973 39.9035L37.6228 38.6777L43.3765 29.4098Z" fill="#68B2AD"/>
<path id="Vector 18 (Stroke)_2" fill-rule="evenodd" clip-rule="evenodd" d="M51.0695 32.0738C43.5787 31.2925 37.4563 28.7922 28.5121 24.4797L29.5215 22.3863C38.4304 26.6818 44.2457 29.0254 51.3105 29.7623L51.0695 32.0738Z" fill="#68B2AD"/>
<path id="Vector 17 (Stroke)_2" fill-rule="evenodd" clip-rule="evenodd" d="M49.7015 23.3833C49.5133 22.2035 48.6637 21.2369 47.5177 20.8991L37.0395 17.8099C35.9158 17.4786 34.7014 17.8093 33.9009 18.6646L29.9164 22.9214C29.0603 23.8361 28.8392 25.1762 29.3561 26.3174L34.0389 36.6568C34.4246 37.5084 35.1742 38.1403 36.0787 38.3765L37.3933 38.7198C38.2233 38.9365 39.1059 38.7995 39.8312 38.3414L49.2386 32.3984C50.2862 31.7366 50.8388 30.5143 50.6436 29.2906L49.7015 23.3833ZM47.9559 19.413C49.6748 19.9197 50.9493 21.3696 51.2315 23.1393L52.1737 29.0466C52.4664 30.8821 51.6375 32.7155 50.0661 33.7083L40.6586 39.6512C39.5708 40.3385 38.2468 40.544 37.0018 40.2189L35.6873 39.8756C34.3305 39.5213 33.2061 38.5734 32.6276 37.296L27.9447 26.9566C27.1694 25.2449 27.5011 23.2346 28.7853 21.8627L32.7697 17.6058C33.9705 16.3229 35.7921 15.8268 37.4776 16.3237L47.9559 19.413Z" fill="#575E4D"/>
</g>
<g id="Group 284">
<path id="Vector 16_3" d="M28.2884 11.9726L18.0231 15.7089C16.6471 16.2098 15.6711 17.4438 15.5008 18.8982L14.8226 24.6893C14.6404 26.2447 15.4127 27.7567 16.7796 28.5208L26.687 34.0594C27.707 34.6296 28.93 34.7088 30.0151 34.275L31.2766 33.7706C32.2722 33.3725 33.0583 32.5795 33.4476 31.5805L37.4881 21.2126C38.0505 19.7694 37.699 18.1298 36.5945 17.044L32.3287 12.8503C31.2637 11.8033 29.6918 11.4618 28.2884 11.9726Z" fill="#A7DBD7"/>
<path id="Vector 23_3" d="M32.7948 31.7574L31.9996 21.8599C32.7738 21.3422 34.3883 20.2788 34.6525 20.1665C34.9167 20.0542 36.7684 19.5792 37.6612 19.3557L36.4795 23.7767L33.7466 30.1438L32.7948 31.7574Z" fill="#95C9C7"/>
<path id="Vector 22_3" d="M27.3766 33.0464L22.0664 25.0486L18.1638 25.3622L15.0941 26.1211L15.1986 27.4219L21.073 31.1051L26.5125 33.628L27.3766 33.0464Z" fill="#94CBC8"/>
<path id="Vector 21_3" d="M22.2082 23.2726L20.8185 15.1874L25.2158 13.2402L26.6297 13.1266C27.3676 14.2816 28.8942 16.656 29.097 16.9129C29.2997 17.1698 30.1597 19.7495 30.5644 21.0072L25.7146 22.9908L22.2082 23.2726Z" fill="#94CBC8"/>
<path id="Vector 19 (Stroke)_3" fill-rule="evenodd" clip-rule="evenodd" d="M19.367 15.1119L21.6758 14.8464L22.8057 24.6682L29.7157 33.6095L27.8768 35.0306L20.5708 25.5771L19.367 15.1119Z" fill="#68B2AD"/>
<path id="Vector 20 (Stroke)_3" fill-rule="evenodd" clip-rule="evenodd" d="M30.275 22.0074L25.8806 13.3919L27.9509 12.3359L32.5546 21.362L33.4653 32.6949L31.1487 32.8811L30.275 22.0074Z" fill="#68B2AD"/>
<path id="Vector 18 (Stroke)_3" fill-rule="evenodd" clip-rule="evenodd" d="M38.0467 19.5828C31.5556 23.4022 25.1447 25.0259 15.3873 26.867L14.9564 24.5832C24.6754 22.7494 30.7461 21.182 36.8681 17.5798L38.0467 19.5828Z" fill="#68B2AD"/>
<path id="Vector 17 (Stroke)_3" fill-rule="evenodd" clip-rule="evenodd" d="M31.7856 13.4026C30.9337 12.565 29.6761 12.2918 28.5534 12.7005L18.2881 16.4368C17.1873 16.8375 16.4065 17.8247 16.2703 18.9882L15.5921 24.7793C15.4463 26.0236 16.0642 27.2332 17.1577 27.8445L27.0651 33.3831C27.8811 33.8392 28.8594 33.9026 29.7275 33.5556L30.989 33.0512C31.7855 32.7327 32.4144 32.0983 32.7259 31.2991L36.7663 20.9312C37.2162 19.7766 36.9351 18.465 36.0514 17.5963L31.7856 13.4026ZM28.0235 11.2445C29.7075 10.6316 31.5939 11.0414 32.8718 12.2977L37.1376 16.4914C38.4631 17.7945 38.8848 19.7619 38.2099 21.4937L34.1695 31.8617C33.7023 33.0605 32.759 34.0121 31.5642 34.4898L30.3027 34.9942C29.0006 35.5148 27.5331 35.4197 26.309 34.7354L16.4017 29.1969C14.7614 28.2799 13.8346 26.4655 14.0532 24.5991L14.7314 18.808C14.9358 17.0627 16.107 15.5819 17.7582 14.9809L28.0235 11.2445Z" fill="#575E4D"/>
</g>
<g id="Group 286">
<path id="Vector 16_4" d="M11.5953 27.787L6.23827 37.6987C5.52018 39.0273 5.61273 40.6473 6.47746 41.8855L9.92065 46.8157C10.8454 48.1399 12.4765 48.7769 14.0539 48.43L25.487 45.9157C26.6641 45.6568 27.6615 44.8803 28.2011 43.8026L28.8285 42.5497C29.3236 41.5609 29.3867 40.411 29.0027 39.3739L25.0177 28.6117C24.4629 27.1136 23.0691 26.09 21.4736 26.0091L15.312 25.6967C13.7737 25.6188 12.3276 26.432 11.5953 27.787Z" fill="#A7DBD7"/>
<path id="Vector 23_4" d="M28.6203 39.9576L21.2284 32.87C21.471 31.9405 21.9877 30.0147 22.1145 29.7472C22.2413 29.4796 23.3438 27.8451 23.8792 27.0614L25.9959 31.2798L28.2491 38.0615L28.6203 39.9576Z" fill="#95C9C7"/>
<path id="Vector 22_4" d="M25.325 44.6624L15.7526 42.1319L12.958 45.0465L11.1105 47.734L12.082 48.6655L19.1345 47.4826L25.057 45.7027L25.325 44.6624Z" fill="#94CBC8"/>
<path id="Vector 21_4" d="M14.6457 40.6651L8.03675 35.3821L10.094 30.869L11.1065 29.813C12.4666 30.1983 15.2699 30.9837 15.6022 31.043C15.9346 31.1022 18.3645 32.5025 19.5379 33.1952L17.1566 38.0463L14.6457 40.6651Z" fill="#94CBC8"/>
<path id="Vector 19 (Stroke)_4" fill-rule="evenodd" clip-rule="evenodd" d="M6.86557 36.3182L8.46408 34.5322L16.0621 41.3324L27.5143 43.4948L27.0696 45.8501L14.9612 43.5638L6.86557 36.3182Z" fill="#68B2AD"/>
<path id="Vector 20 (Stroke)_4" fill-rule="evenodd" clip-rule="evenodd" d="M19.9993 34.1648L10.7101 30.5307L11.5833 28.2985L21.3151 32.1058L29.779 40.2214L28.1201 41.9515L19.9993 34.1648Z" fill="#68B2AD"/>
<path id="Vector 18 (Stroke)_4" fill-rule="evenodd" clip-rule="evenodd" d="M24.3321 26.9722C21.9424 34.363 18.1108 40.0058 11.8474 48.1081L9.95105 46.6422C16.1897 38.5717 19.7976 33.2054 22.0514 26.2348L24.3321 26.9722Z" fill="#68B2AD"/>
<path id="Vector 17 (Stroke)_4" fill-rule="evenodd" clip-rule="evenodd" d="M15.2712 26.4946C14.0406 26.4323 12.8838 27.0829 12.2979 28.1669L6.94086 38.0785C6.36639 39.1414 6.44043 40.4374 7.13222 41.428L10.5754 46.3582C11.3152 47.4175 12.6201 47.9271 13.882 47.6496L25.3151 45.1353C26.2568 44.9282 27.0547 44.307 27.4864 43.4449L28.1138 42.1919C28.5099 41.4008 28.5603 40.481 28.2531 39.6513L24.2681 28.8891C23.8243 27.6906 22.7092 26.8717 21.4329 26.807L15.2712 26.4946ZM10.8921 27.4071C11.7709 25.7811 13.5062 24.8052 15.3521 24.8987L21.5138 25.2111C23.4283 25.3082 25.101 26.5365 25.7666 28.3342L29.7516 39.0964C30.2124 40.3409 30.1367 41.7208 29.5426 42.9074L28.9152 44.1603C28.2677 45.4535 27.0709 46.3853 25.6583 46.6959L14.2252 49.2103C12.3323 49.6266 10.375 48.8621 9.26532 47.2731L5.82213 42.3429C4.78445 40.8571 4.67339 38.9131 5.5351 37.3188L10.8921 27.4071Z" fill="#575E4D"/>
</g>
<g id="Group 287">
<path id="Vector 16_5" d="M35.3727 23.5276L44.3949 29.4159C45.6042 30.2052 46.2651 31.609 46.1029 33.044L45.4568 38.758C45.2833 40.2926 44.2028 41.5718 42.7188 41.9994L31.9626 45.0993C30.8552 45.4184 29.6629 45.2206 28.7179 44.5608L27.6193 43.7937C26.7522 43.1883 26.1749 42.2506 26.0248 41.2039L24.467 30.3409C24.2501 28.8288 24.955 27.3329 26.2591 26.5374L31.2957 23.4654C32.5531 22.6984 34.1393 22.7226 35.3727 23.5276Z" fill="#A7DBD7"/>
<path id="Vector 23_5" d="M26.6125 41.5199L29.5937 32.1922C28.9661 31.5215 27.6537 30.1385 27.4251 29.9714C27.1965 29.8044 25.5245 28.9333 24.7171 28.5186L24.8616 33.0295L26.0599 39.757L26.6125 41.5199Z" fill="#95C9C7"/>
<path id="Vector 22_5" d="M31.5274 43.972L38.4194 37.4803L42.0973 38.6558L44.8755 40.0723L44.4837 41.2982L38.0166 43.5197L32.227 44.7241L31.5274 43.972Z" fill="#94CBC8"/>
<path id="Vector 21_5" d="M38.6812 35.7426L41.8272 28.2887L38.0402 25.4333L36.7076 25.0075C35.7401 25.9515 33.7421 27.8899 33.4897 28.0912C33.2374 28.2925 31.8335 30.5775 31.1631 31.6948L35.3766 34.6864L38.6812 35.7426Z" fill="#94CBC8"/>
<path id="Vector 19 (Stroke)_5" fill-rule="evenodd" clip-rule="evenodd" d="M43.238 28.5416L41.08 27.7692L37.7944 36.9494L29.1547 43.9888L30.6024 45.7657L39.7372 38.3229L43.238 28.5416Z" fill="#68B2AD"/>
<path id="Vector 20 (Stroke)_5" fill-rule="evenodd" clip-rule="evenodd" d="M31.2171 32.7202L37.3678 25.43L35.616 23.952L29.1722 31.5895L25.7587 42.2701L27.9419 42.9679L31.2171 32.7202Z" fill="#68B2AD"/>
<path id="Vector 18 (Stroke)_5" fill-rule="evenodd" clip-rule="evenodd" d="M24.2956 28.6506C29.6742 33.7731 35.4677 36.7688 44.4266 40.723L45.3521 38.6262C36.4285 34.6875 30.9491 31.8221 25.8763 26.9908L24.2956 28.6506Z" fill="#68B2AD"/>
<path id="Vector 17 (Stroke)_5" fill-rule="evenodd" clip-rule="evenodd" d="M31.6938 24.1175C32.6997 23.504 33.9688 23.5233 34.9555 24.1673L43.9776 30.0556C44.9451 30.687 45.4738 31.8101 45.344 32.9581L44.698 38.672C44.5592 39.8997 43.6948 40.9231 42.5076 41.2652L31.7514 44.3651C30.8654 44.6204 29.9116 44.4621 29.1556 43.9343L28.057 43.1672C27.3633 42.6829 26.9015 41.9327 26.7814 41.0953L25.2236 30.2324C25.0501 29.0227 25.614 27.826 26.6573 27.1896L31.6938 24.1175ZM35.7906 22.8877C34.3106 21.9217 32.407 21.8927 30.8982 22.813L25.8616 25.8851C24.2966 26.8397 23.4508 28.6348 23.711 30.4493L25.2688 41.3122C25.449 42.5683 26.1418 43.6936 27.1822 44.4201L28.2809 45.1871C29.4148 45.9788 30.8456 46.2163 32.1745 45.8333L42.9307 42.7335C44.7115 42.2203 46.0081 40.6853 46.2163 38.8437L46.8624 33.1298C47.0571 31.4078 46.264 29.7231 44.8127 28.776L35.7906 22.8877Z" fill="#575E4D"/>
</g>
<g id="Group 282">
<path id="Vector 16_6" d="M40.5574 33.2845L46.6953 24.4302C47.518 23.2433 48.9398 22.6219 50.3697 22.8242L56.0634 23.6294C57.5925 23.8457 58.8411 24.9615 59.2271 26.4569L62.0255 37.2954C62.3136 38.4113 62.0825 39.5977 61.3966 40.5239L60.5992 41.6006C59.9698 42.4505 59.0164 43.0014 57.9658 43.1222L47.0636 44.3761C45.5461 44.5507 44.0704 43.8044 43.3117 42.4785L40.3814 37.3582C39.6498 36.0799 39.7183 34.4949 40.5574 33.2845Z" fill="#A7DBD7"/>
<path id="Vector 23_6" d="M58.2982 42.5436L49.0573 39.3032C48.3694 39.9119 46.9503 41.1852 46.7769 41.409C46.6035 41.6328 45.6861 43.2798 45.2491 44.0753L49.7622 44.0569L56.5205 43.0468L58.2982 42.5436Z" fill="#95C9C7"/>
<path id="Vector 22_6" d="M60.8864 37.699L54.5896 30.6285L55.8673 26.9848L57.3609 24.2472L58.5754 24.6731L60.6155 31.1997L61.6578 37.0206L60.8864 37.699Z" fill="#94CBC8"/>
<path id="Vector 21_6" d="M52.8599 30.3184L45.4967 26.9655L42.5367 30.6713L42.0738 31.9914C42.9905 32.9849 44.8723 35.0363 45.0665 35.2942C45.2607 35.552 47.5056 37.0192 48.6037 37.7205L51.7119 33.5922L52.8599 30.3184Z" fill="#94CBC8"/>
<path id="Vector 19 (Stroke)_6" fill-rule="evenodd" clip-rule="evenodd" d="M45.7889 25.5621L44.9566 27.6977L54.0415 31.2383L60.837 40.0712L62.6536 38.6736L55.4687 29.3346L45.7889 25.5621Z" fill="#68B2AD"/>
<path id="Vector 20 (Stroke)_6" fill-rule="evenodd" clip-rule="evenodd" d="M49.6304 37.6951L42.5147 31.3433L40.9884 33.0531L48.4431 39.7076L59.0242 43.418L59.7826 41.2551L49.6304 37.6951Z" fill="#68B2AD"/>
<path id="Vector 18 (Stroke)_6" fill-rule="evenodd" clip-rule="evenodd" d="M45.3692 44.5001C50.6398 39.2667 53.7961 33.5591 57.9989 24.7141L55.9287 23.7304C51.7425 32.5405 48.7252 37.9378 43.7542 42.8737L45.3692 44.5001Z" fill="#68B2AD"/>
<path id="Vector 17 (Stroke)_6" fill-rule="evenodd" clip-rule="evenodd" d="M41.0444 36.9784C40.4591 35.9557 40.5139 34.6878 41.1852 33.7194L47.3231 24.8652C47.9813 23.9157 49.1187 23.4185 50.2626 23.5803L55.9563 24.3856C57.1796 24.5586 58.1784 25.4513 58.4873 26.6476L61.2856 37.4861C61.5161 38.3789 61.3313 39.3279 60.7825 40.0689L59.9851 41.1456C59.4816 41.8255 58.7189 42.2662 57.8784 42.3629L46.9762 43.6168C45.7622 43.7565 44.5817 43.1594 43.9747 42.0987L41.0444 36.9784ZM39.9294 32.8489C38.9225 34.3014 38.8403 36.2034 39.7182 37.7373L42.6485 42.8577C43.559 44.4487 45.3297 45.3443 47.1508 45.1348L58.053 43.8809C59.3137 43.7359 60.4578 43.0748 61.2131 42.055L62.0105 40.9782C62.8336 39.8668 63.1109 38.4432 62.7651 37.1041L59.9668 26.2656C59.5035 24.4711 58.0053 23.1322 56.1703 22.8727L50.4766 22.0674C48.7607 21.8247 47.0546 22.5704 46.0673 23.9947L39.9294 32.8489Z" fill="#575E4D"/>
</g>
</g>
</svg>
