<svg width="60" height="60" viewBox="0 0 60 60" fill="none" xmlns="http://www.w3.org/2000/svg">
<g id="Frame">
<path id="Vector" d="M30 57.5C14.8125 57.5 2.5 45.1875 2.5 30C2.5 14.8125 14.8125 2.5 30 2.5C45.1875 2.5 57.5 14.8125 57.5 30C57.5 45.1875 45.1875 57.5 30 57.5ZM27.045 38.3925L18.2 29.55C17.8446 29.2188 17.3744 29.0385 16.8887 29.0471C16.4029 29.0556 15.9395 29.2524 15.5959 29.5959C15.2524 29.9395 15.0556 30.4029 15.0471 30.8887C15.0385 31.3744 15.2188 31.8446 15.55 32.2L25.7875 42.44C25.7941 42.4467 25.8008 42.4534 25.8075 42.46L25.8225 42.4725C26.0239 42.6738 26.2685 42.8266 26.5378 42.9193C26.807 43.012 27.0939 43.0421 27.3765 43.0074C27.6592 42.9727 27.9302 42.8741 28.169 42.7191C28.4079 42.564 28.6083 42.3566 28.755 42.1125L48.5275 19.87C48.8577 19.498 49.0266 19.0101 48.9971 18.5136C48.9675 18.0171 48.742 17.5527 48.37 17.2225C47.998 16.8923 47.5101 16.7234 47.0136 16.7529C46.5171 16.7825 46.0527 17.008 45.7225 17.38L27.045 38.3925Z" fill="#6F9244"/>
</g>
</svg>
