<svg width="52" height="48" viewBox="0 0 52 48" fill="none" xmlns="http://www.w3.org/2000/svg">
<path id="Vector 32" d="M12.5981 5.47376L11.7498 8.58416C11.5917 9.16373 11.1815 9.64156 10.6325 9.88554L3.98348 12.8407C3.11897 13.2249 2.64192 14.1623 2.84015 15.0874L3.86669 19.8779C3.95342 20.2826 3.91243 20.7043 3.74938 21.0848L1.58716 26.13C1.23878 26.9429 1.46566 27.8881 2.14508 28.4542L6.56292 32.1358C6.84864 32.3739 7.06231 32.6869 7.17992 33.0398L8.57757 37.2327C8.83329 37.9999 9.52584 38.5376 10.3324 38.5952L14.0364 38.8597C15.1258 38.9376 15.9514 39.875 15.8908 40.9656L15.6998 44.4034C15.6127 45.9705 17.2822 47.0227 18.6584 46.268L30.4919 39.7786C30.8238 39.5966 31.2005 39.5125 31.5783 39.5361L37.7216 39.9201C38.5008 39.9688 39.2371 39.5596 39.6073 38.8722L42.124 34.1983C42.3655 33.7498 42.7691 33.4103 43.2525 33.2492L47.1325 31.9558C47.9491 31.6836 48.5 30.9193 48.5 30.0585V24.8714C48.5 24.6259 48.5452 24.3825 48.6333 24.1534L50.5061 19.2841C50.8036 18.5107 50.5933 17.6339 49.9773 17.0796L46.5394 13.9854C46.1909 13.6718 45.9637 13.2458 45.8974 12.7817L45.2177 8.02363C45.0894 7.12546 44.3725 6.42618 43.4714 6.32017L36.959 5.554C36.657 5.51847 36.367 5.41452 36.1112 5.25006L30.3933 1.57425C29.8347 1.21516 29.1343 1.15673 28.5239 1.41832L22.8773 3.83829C22.6284 3.94498 22.3603 4 22.0895 4H14.5276C13.6257 4 12.8354 4.60364 12.5981 5.47376Z" fill="#C16E46" stroke="#7B5445" stroke-width="2"/>
</svg>
