<svg width="60" height="60" viewBox="0 0 60 60" fill="none" xmlns="http://www.w3.org/2000/svg">
<g id="Group 257">
<g id="Vector" filter="url(#filter0_d_805_175)">
<path d="M33.1437 31.558C32.9482 31.7519 32.6328 31.7512 32.4381 31.5565L29.1712 28.2896C28.9754 28.0938 28.976 27.7761 29.1727 27.5811L44.3839 12.4965C44.5794 12.3026 44.8948 12.3033 45.0895 12.4979L48.3564 15.7648C48.5522 15.9607 48.5516 16.2784 48.3549 16.4734L33.1437 31.558Z" fill="#FDCC4E"/>
<path d="M35.4954 24.1653C35.2999 24.3591 34.9846 24.3583 34.79 24.1637L32.1192 21.4929C31.9233 21.297 31.924 20.9792 32.1208 20.7842L34.9996 17.9317C35.1951 17.7379 35.5105 17.7387 35.7051 17.9333L38.3759 20.6041C38.5718 20.8 38.5711 21.1178 38.3743 21.3128L35.4954 24.1653ZM40.5609 18.7813C40.3583 18.9628 40.0478 18.949 39.8621 18.7504L34.8482 13.3882C34.663 13.1901 34.6694 12.8804 34.8628 12.6903L37.6474 9.95151C37.8467 9.75548 38.168 9.76095 38.3605 9.96364L43.5427 15.4198C43.7368 15.6241 43.7237 15.9485 43.5138 16.1365L40.5609 18.7813ZM32.9688 27.9137C34.1009 29.0301 34.9999 30.3603 35.6136 31.827C36.2272 33.2938 36.5432 34.8679 36.5432 36.4578C36.5432 38.0478 36.2272 39.6219 35.6136 41.0887C34.9999 42.5554 34.1009 43.8856 32.9688 45.0019C31.8525 46.1341 30.5223 47.0331 29.0555 47.6467C27.5887 48.2604 26.0146 48.5764 24.4247 48.5764C22.8347 48.5764 21.2606 48.2604 19.7938 47.6467C18.3271 47.0331 16.9969 46.1341 15.8806 45.0019C14.7484 43.8856 13.8494 42.5554 13.2358 41.0887C12.6221 39.6219 12.3062 38.0478 12.3062 36.4578C12.3062 34.8679 12.6221 33.2938 13.2358 31.827C13.8494 30.3603 14.7484 29.0301 15.8806 27.9137C16.9969 26.7816 18.3271 25.8826 19.7938 25.2689C21.2606 24.6553 22.8347 24.3393 24.4247 24.3393C26.0146 24.3393 27.5887 24.6553 29.0555 25.2689C30.5223 25.8826 31.8525 26.7816 32.9688 27.9137ZM19.8546 41.0279C20.4469 41.6418 21.1569 42.1301 21.9421 42.4636C22.7273 42.7971 23.5716 42.9689 24.4247 42.9689C25.2777 42.9689 26.1221 42.7971 26.9073 42.4636C27.6925 42.1301 28.4024 41.6418 28.9948 41.0279C29.6087 40.4356 30.0969 39.7256 30.4304 38.9404C30.7639 38.1552 30.9358 37.3109 30.9358 36.4578C30.9358 35.6048 30.7639 34.7604 30.4304 33.9752C30.0969 33.19 29.6087 32.4801 28.9948 31.8877C28.4024 31.2739 27.6925 30.7856 26.9073 30.4521C26.1221 30.1186 25.2777 29.9468 24.4247 29.9468C23.5716 29.9468 22.7273 30.1186 21.9421 30.4521C21.1569 30.7856 20.4469 31.2739 19.8546 31.8877C19.2407 32.4801 18.7524 33.19 18.4189 33.9752C18.0855 34.7604 17.9136 35.6048 17.9136 36.4578C17.9136 37.3109 18.0855 38.1552 18.4189 38.9404C18.7524 39.7256 19.2407 40.4356 19.8546 41.0279Z" fill="#FDCC4E"/>
<path d="M34.4099 13.798L38.1673 17.8163L37.2984 18.678L36.1294 17.509C35.7012 17.0808 35.0074 17.0792 34.5773 17.5055L31.6985 20.358C31.2655 20.787 31.2639 21.4862 31.6949 21.9172L32.8586 23.0809L30.5769 25.3436C30.16 25.1103 29.7295 24.9005 29.2871 24.7154C27.7469 24.0711 26.0941 23.7393 24.4247 23.7393C22.7552 23.7393 21.1024 24.0711 19.5623 24.7154C18.0234 25.3592 16.6278 26.3021 15.4563 27.4895C14.2689 28.661 13.326 30.0567 12.6823 31.5955C12.0379 33.1356 11.7062 34.7884 11.7062 36.4578C11.7062 38.1273 12.0379 39.7801 12.6823 41.3202C13.326 42.8591 14.269 44.2547 15.4564 45.4263C16.6279 46.6136 18.0235 47.5565 19.5623 48.2003C21.1024 48.8446 22.7552 49.1763 24.4247 49.1763C26.0941 49.1763 27.7469 48.8446 29.2871 48.2003C30.8258 47.5565 32.2215 46.6136 33.393 45.4263C34.5804 44.2547 35.5233 42.8591 36.1671 41.3202C36.8114 39.7801 37.1432 38.1273 37.1432 36.4578C37.1432 34.7884 36.8114 33.1356 36.1671 31.5955C35.9556 31.0899 35.7118 30.5999 35.4377 30.1281L48.7774 16.8994L48.3549 16.4734L48.7774 16.8994C49.2101 16.4704 49.2115 15.7714 48.7807 15.3406L45.5138 12.0737C45.0855 11.6454 44.3915 11.6439 43.9614 12.0704L42.5337 13.4862L38.7956 9.55044C38.372 9.1045 37.6651 9.09248 37.2266 9.52374L34.4421 12.2625C34.0167 12.6809 34.0024 13.3622 34.4099 13.798ZM20.2863 40.6113L20.2789 40.6036L20.2712 40.5962C19.7153 40.0598 19.2732 39.4169 18.9712 38.7059C18.6692 37.9949 18.5136 37.2303 18.5136 36.4578C18.5136 35.6854 18.6692 34.9208 18.9712 34.2098C19.2732 33.4988 19.7153 32.8559 20.2712 32.3195L20.2789 32.3121L20.2863 32.3044C20.8227 31.7485 21.4656 31.3063 22.1766 31.0044C22.8876 30.7024 23.6522 30.5468 24.4247 30.5468C25.1971 30.5468 25.9617 30.7024 26.6727 31.0044C27.3837 31.3063 28.0266 31.7485 28.563 32.3044L28.5704 32.3121L28.5781 32.3195C29.134 32.8559 29.5762 33.4988 29.8781 34.2098C30.1801 34.9208 30.3358 35.6854 30.3358 36.4578C30.3358 37.2303 30.1801 37.9949 29.8781 38.7059C29.5762 39.4169 29.134 40.0598 28.5781 40.5962L28.5704 40.6036L28.563 40.6113C28.0266 41.1672 27.3837 41.6093 26.6727 41.9113C25.9617 42.2133 25.1971 42.3689 24.4247 42.3689C23.6522 42.3689 22.8876 42.2133 22.1766 41.9113C21.4656 41.6093 20.8227 41.1672 20.2863 40.6113Z" stroke="#565F4E" stroke-width="1.2"/>
</g>
</g>
<defs>
<filter id="filter0_d_805_175" x="7.10596" y="8.60799" width="46.5967" height="49.1684" filterUnits="userSpaceOnUse" color-interpolation-filters="sRGB">
<feFlood flood-opacity="0" result="BackgroundImageFix"/>
<feColorMatrix in="SourceAlpha" type="matrix" values="0 0 0 0 0 0 0 0 0 0 0 0 0 0 0 0 0 0 127 0" result="hardAlpha"/>
<feOffset dy="4"/>
<feGaussianBlur stdDeviation="2"/>
<feComposite in2="hardAlpha" operator="out"/>
<feColorMatrix type="matrix" values="0 0 0 0 0 0 0 0 0 0 0 0 0 0 0 0 0 0 0.2 0"/>
<feBlend mode="normal" in2="BackgroundImageFix" result="effect1_dropShadow_805_175"/>
<feBlend mode="normal" in="SourceGraphic" in2="effect1_dropShadow_805_175" result="shape"/>
</filter>
</defs>
</svg>
