<svg width="32" height="32" viewBox="0 0 32 32" fill="none" xmlns="http://www.w3.org/2000/svg">
<g id="Group 337">
<rect id="Rectangle 49" x="1" y="1" width="30" height="30" rx="5" fill="#EBD298" stroke="#555E4B" stroke-width="2"/>
<g id="Group 319">
<path id="Vector" d="M18.5685 16.1164L23.3427 11.3819C23.7754 10.9529 23.7768 10.2539 23.346 9.82304L22.5077 8.98471C22.0793 8.5564 21.3854 8.55495 20.9553 8.98147L20.8822 9.05397L19.9006 8.0205C19.477 7.57456 18.7701 7.56253 18.3316 7.9938L17.6829 8.63192C17.2574 9.05033 17.2432 9.7316 17.6507 10.1674L18.2294 10.7863C17.9021 10.7417 17.5586 10.8445 17.306 11.0948L16.6206 11.774C16.196 12.1947 16.1862 12.8753 16.5925 13.3079L16.1569 13.7398C16.0609 13.6926 15.9633 13.6482 15.8643 13.6068C15.2206 13.3375 14.5297 13.1988 13.8319 13.1988C13.1341 13.1988 12.4432 13.3375 11.7995 13.6068C11.157 13.8756 10.5743 14.2691 10.0849 14.7646C9.58944 15.2539 9.19592 15.8367 8.92714 16.4791C8.65783 17.1229 8.51914 17.8137 8.51914 18.5115C8.51914 19.2094 8.65783 19.9002 8.92714 20.544C9.19591 21.1864 9.58944 21.7692 10.0849 22.2585C10.5743 22.754 11.157 23.1475 11.7995 23.4163C12.4432 23.6856 13.1341 23.8243 13.8319 23.8243C14.5297 23.8243 15.2206 23.6856 15.8643 23.4163C16.5068 23.1475 17.0895 22.754 17.5789 22.2585C18.0744 21.7692 18.4679 21.1864 18.7367 20.544C19.006 19.9002 19.1447 19.2094 19.1447 18.5115C19.1447 17.8137 19.006 17.1229 18.7367 16.4791C18.6851 16.3559 18.629 16.235 18.5685 16.1164ZM12.4864 19.8722L12.479 19.8645L12.4713 19.857C12.2905 19.6826 12.1468 19.4736 12.0486 19.2425C11.9504 19.0113 11.8998 18.7627 11.8998 18.5115C11.8998 18.2604 11.9504 18.0118 12.0486 17.7806C12.1468 17.5495 12.2905 17.3405 12.4713 17.1661L12.479 17.1586L12.4864 17.1509C12.6608 16.9702 12.8698 16.8264 13.101 16.7282L12.8664 16.176L13.101 16.7282C13.3322 16.6301 13.5807 16.5795 13.8319 16.5795C14.0831 16.5795 14.3316 16.6301 14.5628 16.7282L14.7974 16.176L14.5628 16.7282C14.794 16.8264 15.003 16.9702 15.1774 17.1509L15.1848 17.1586L15.1925 17.1661C15.3733 17.3405 15.517 17.5495 15.6152 17.7806C15.7134 18.0118 15.764 18.2604 15.764 18.5115C15.764 18.7627 15.7134 19.0113 15.6152 19.2425C15.517 19.4736 15.3733 19.6826 15.1925 19.857L15.1848 19.8645L15.1774 19.8722C15.003 20.0529 14.794 20.1967 14.5628 20.2949L14.7974 20.8471L14.5628 20.2949C14.3316 20.393 14.0831 20.4436 13.8319 20.4436C13.5807 20.4436 13.3322 20.393 13.101 20.2949L12.8664 20.8471L13.101 20.2949C12.8698 20.1967 12.6608 20.0529 12.4864 19.8722Z" fill="#E6B05D" stroke="#565F4E" stroke-width="1.2"/>
</g>
</g>
</svg>
