<svg width="24" height="24" viewBox="0 0 24 24" fill="none" xmlns="http://www.w3.org/2000/svg">
<g id="&#233;&#129;&#147;&#229;&#133;&#183;-01">
<path id="Vector" d="M2.57642 7.96223H2.37642V8.16223V20.38C2.37642 21.527 3.28204 22.4711 4.40819 22.4711H19.6093C20.736 22.4711 21.6416 21.5271 21.6416 20.38V8.16223V7.96223H21.4416H20.249H20.049V8.16223V20.38C20.049 20.6542 19.841 20.8575 19.6093 20.8575H4.40819C4.17714 20.8575 3.96901 20.6544 3.96901 20.38V8.16223V7.96223H3.76901H2.57642Z" fill="#EBC874" stroke="#EBC874" stroke-width="0.4"/>
<path id="Vector_2" d="M8.22185 12.3815H15.796C16.2387 12.3815 16.592 12.0173 16.592 11.5747C16.592 11.132 16.2387 10.7679 15.796 10.7679H8.22185C7.7791 10.7679 7.42581 11.132 7.42581 11.5747C7.42581 12.0174 7.7791 12.3815 8.22185 12.3815ZM2.54022 8.96898H21.4777C22.615 8.96898 23.5364 8.03496 23.5364 6.89083V3.65287C23.5364 2.50823 22.615 1.57417 21.4777 1.57417H2.54022C1.40285 1.57417 0.482007 2.5083 0.482007 3.65287V6.89083C0.482007 8.03489 1.40289 8.96898 2.54022 8.96898ZM2.07408 3.65287C2.07408 3.39686 2.28304 3.1878 2.54022 3.1878H21.4777C21.7349 3.1878 21.9438 3.39686 21.9438 3.65287V6.89083C21.9438 7.14662 21.7351 7.35535 21.4777 7.35535H2.54022C2.28283 7.35535 2.07408 7.14663 2.07408 6.89083V3.65287Z" fill="#EBC874" stroke="#EBC874" stroke-width="0.4"/>
</g>
</svg>
