<svg width="24" height="24" viewBox="0 0 24 24" fill="none" xmlns="http://www.w3.org/2000/svg">
<g id="&#233;&#129;&#147;&#229;&#133;&#183;-01">
<rect id="Rectangle 84" x="1.61133" y="2.61572" width="20.5381" height="5.34814" fill="#6D854E"/>
<rect id="Rectangle 85" x="3.72559" y="8.85449" width="16.4556" height="12.7588" fill="#A5C57A"/>
<path id="Vector" d="M2.57642 8.06223H2.47642V8.16223V20.38C2.47642 21.4748 3.34025 22.3711 4.40819 22.3711H19.6093C20.6778 22.3711 21.5416 21.4748 21.5416 20.38V8.16223V8.06223H21.4416H20.249H20.149V8.16223V20.38C20.149 20.704 19.9015 20.9575 19.6093 20.9575H4.40819C4.11656 20.9575 3.86901 20.7041 3.86901 20.38V8.16223V8.06223H3.76901H2.57642Z" fill="#5E4D2C" stroke="#5E4D2C" stroke-width="0.2"/>
<path id="Vector_2" d="M8.22185 12.2815H15.796C16.1819 12.2815 16.492 11.9638 16.492 11.5747C16.492 11.1856 16.1819 10.8679 15.796 10.8679H8.22185C7.83596 10.8679 7.52581 11.1856 7.52581 11.5747C7.52581 11.9638 7.83596 12.2815 8.22185 12.2815ZM2.54022 8.86898H21.4777C22.5588 8.86898 23.4364 7.98071 23.4364 6.89083V3.65287C23.4364 2.56246 22.5588 1.67417 21.4777 1.67417H2.54022C1.45911 1.67417 0.582007 2.56249 0.582007 3.65287V6.89083C0.582007 7.98067 1.45913 8.86898 2.54022 8.86898ZM1.97408 3.65287C1.97408 3.34148 2.22797 3.0878 2.54022 3.0878H21.4777C21.7899 3.0878 22.0438 3.34148 22.0438 3.65287V6.89083C22.0438 7.20212 21.7901 7.45535 21.4777 7.45535H2.54022C2.22786 7.45535 1.97408 7.20212 1.97408 6.89083V3.65287Z" fill="#5E4D2C" stroke="#5E4D2C" stroke-width="0.2"/>
</g>
</svg>
