<svg width="18" height="18" viewBox="0 0 18 18" fill="none" xmlns="http://www.w3.org/2000/svg">
<g id="&#229;&#149;&#134;&#229;&#186;&#151;" clip-path="url(#clip0_2127_546)">
<path id="Vector" d="M17.8255 6.07682C17.8243 6.06712 17.8223 6.05802 17.8204 6.05028C17.8125 6.01256 17.8022 5.97621 17.7873 5.94126L16.2662 2.15463C16.0034 1.37212 15.2758 0.885986 14.3609 0.885986H3.68383C2.78699 0.885986 2.09007 1.36299 1.83758 2.11702L0.202253 5.9808C0.194536 6.00359 0.18601 6.03724 0.178886 6.07169C0.0601489 6.43638 0.000465393 6.81077 0.000465393 7.18656C0.00174253 8.50846 0.727281 9.71544 1.89215 10.3352C2.37171 10.5922 2.93692 10.722 3.57153 10.722H3.57351C4.63848 10.7194 5.62482 10.2515 6.29717 9.45066C6.96615 10.2443 7.94478 10.7096 9.00775 10.7161C10.0623 10.7083 11.0377 10.2411 11.7041 9.44746C12.3764 10.2483 13.364 10.7149 14.4341 10.7149C15.0819 10.711 15.6568 10.5753 16.1409 10.3093C17.2882 9.68305 18.0001 8.48055 17.9995 7.17292C18.0001 6.79653 17.9385 6.42015 17.8255 6.07682ZM14.0455 6.70959H3.66174C3.30358 6.70959 3.01285 6.41885 3.01285 6.06061C3.01285 5.70247 3.30358 5.41174 3.66174 5.41174H14.0455C14.4044 5.41174 14.6944 5.70247 14.6944 6.06061C14.6944 6.41885 14.4044 6.70959 14.0455 6.70959Z" fill="#9C7B58"/>
<path id="Vector_2" d="M16.6542 11.9018C16.6542 11.5429 16.3642 11.2529 16.0052 11.2529C15.9384 11.2529 15.8781 11.2717 15.8177 11.2911C15.3368 11.4813 14.7216 11.5838 14.2577 11.5585C13.2349 11.504 12.4555 11.3002 11.7048 10.661C10.9643 11.2925 10.0194 11.6519 9.01356 11.661C7.99344 11.6545 7.04336 11.3988 6.29904 10.7662C5.55015 11.4047 4.59432 11.7155 3.57608 11.7155H3.5722C2.95056 11.7155 2.60013 11.5974 2.0342 11.3884C2.01866 11.3807 2.00245 11.3767 1.98619 11.371C1.95896 11.3606 1.93817 11.3535 1.91025 11.3431C1.91025 11.3431 1.81686 11.3268 1.76557 11.3268H1.76428C1.40603 11.3268 1.116 11.6181 1.11659 11.9771L1.12114 15.4547C1.12114 16.3697 1.86677 17.1141 2.7837 17.1141L14.9955 17.1062C15.9111 17.1037 16.6561 16.3573 16.6561 15.4424L16.6542 11.9018Z" fill="#9C7B58"/>
</g>
<defs>
<clipPath id="clip0_2127_546">
<rect width="18" height="18" fill="white"/>
</clipPath>
</defs>
</svg>
