<svg width="18" height="18" viewBox="0 0 18 18" fill="none" xmlns="http://www.w3.org/2000/svg">
<g id="&#230;&#140;&#130;&#229;&#141;&#149;">
<path id="Vector" d="M14.004 0.999023H3.996C2.898 0.999023 1.998 1.89902 1.998 2.99702V14.994C1.998 16.092 2.898 16.992 3.996 16.992H13.995C15.093 16.992 15.993 16.092 15.993 14.994V2.99702C16.002 1.89902 15.102 0.999023 14.004 0.999023Z" fill="#9C7B58"/>
<path id="Vector_2" d="M13.626 4.86005C13.491 4.74305 13.284 4.76105 13.158 4.89605L11.493 6.82205C11.484 6.83105 11.475 6.84005 11.457 6.84005C11.448 6.84005 11.43 6.83105 11.421 6.83105L9.576 5.09405C9.441 4.96805 9.234 4.97705 9.108 5.10305L7.668 6.60605C7.542 6.73205 7.551 6.93905 7.677 7.06505C7.803 7.19105 8.019 7.19105 8.145 7.05605L9.333 5.83205C9.342 5.82305 9.36 5.81405 9.369 5.81405C9.378 5.81405 9.396 5.82305 9.405 5.83205L11.25 7.57805C11.385 7.70405 11.601 7.69505 11.727 7.55105L13.662 5.32805C13.779 5.18405 13.761 4.97705 13.626 4.86005Z" fill="#EAE2CD"/>
<path id="Vector_3" d="M4.266 6.21903C4.266 6.33958 4.28974 6.45895 4.33588 6.57033C4.38201 6.68171 4.44963 6.78291 4.53487 6.86815C4.62012 6.95339 4.72132 7.02101 4.8327 7.06715C4.94407 7.11328 5.06344 7.13703 5.184 7.13703C5.30455 7.13703 5.42392 7.11328 5.5353 7.06715C5.64668 7.02101 5.74788 6.95339 5.83312 6.86815C5.91837 6.78291 5.98599 6.68171 6.03212 6.57033C6.07825 6.45895 6.102 6.33958 6.102 6.21903C6.102 6.09847 6.07825 5.9791 6.03212 5.86772C5.98599 5.75635 5.91837 5.65515 5.83312 5.5699C5.74788 5.48466 5.64668 5.41704 5.5353 5.3709C5.42392 5.32477 5.30455 5.30103 5.184 5.30103C5.06344 5.30103 4.94407 5.32477 4.8327 5.3709C4.72132 5.41704 4.62012 5.48466 4.53487 5.5699C4.44963 5.65515 4.38201 5.75635 4.33588 5.86772C4.28974 5.9791 4.266 6.09847 4.266 6.21903Z" fill="#EAE2CD"/>
<path id="Vector_4" d="M13.626 10.053C13.491 9.93605 13.284 9.95405 13.158 10.089L11.493 12.015C11.484 12.024 11.475 12.033 11.457 12.033C11.448 12.033 11.43 12.024 11.421 12.024L9.576 10.287C9.441 10.161 9.234 10.17 9.108 10.296L7.668 11.799C7.542 11.925 7.551 12.132 7.677 12.258C7.803 12.384 8.019 12.384 8.145 12.249L9.333 11.025C9.342 11.016 9.36 11.007 9.369 11.007C9.378 11.007 9.396 11.016 9.405 11.025L11.241 12.771C11.376 12.897 11.592 12.888 11.718 12.744L13.653 10.521C13.779 10.386 13.761 10.179 13.626 10.053Z" fill="#EAE2CD"/>
<path id="Vector_5" d="M4.266 11.4211C4.266 11.5416 4.28974 11.661 4.33588 11.7724C4.38201 11.8837 4.44963 11.9849 4.53487 12.0702C4.62012 12.1554 4.72132 12.223 4.8327 12.2692C4.94407 12.3153 5.06344 12.3391 5.184 12.3391C5.30455 12.3391 5.42392 12.3153 5.5353 12.2692C5.64668 12.223 5.74788 12.1554 5.83312 12.0702C5.91837 11.9849 5.98599 11.8837 6.03212 11.7724C6.07825 11.661 6.102 11.5416 6.102 11.4211C6.102 11.3005 6.07825 11.1811 6.03212 11.0697C5.98599 10.9584 5.91837 10.8572 5.83312 10.7719C5.74788 10.6867 5.64668 10.6191 5.5353 10.5729C5.42392 10.5268 5.30455 10.5031 5.184 10.5031C5.06344 10.5031 4.94407 10.5268 4.8327 10.5729C4.72132 10.6191 4.62012 10.6867 4.53487 10.7719C4.44963 10.8572 4.38201 10.9584 4.33588 11.0697C4.28974 11.1811 4.266 11.3005 4.266 11.4211Z" fill="#EAE2CD"/>
</g>
</svg>
