<svg width="16" height="16" viewBox="0 0 16 16" fill="none" xmlns="http://www.w3.org/2000/svg">
<g id="Frame" clip-path="url(#clip0_2123_501)">
<path id="Vector" d="M15.7118 14.8459L12.7813 11.9154C13.9899 10.5084 14.6102 8.68989 14.5133 6.83755C14.4164 4.98521 13.6098 3.24136 12.2609 1.96812C10.9121 0.694884 9.12464 -0.00990677 7.2698 0.000105226C5.41496 0.0101172 3.63524 0.734163 2.30021 2.02189C0.965178 3.30962 0.177427 5.06207 0.100537 6.91535C0.0236462 8.76862 0.663524 10.5803 1.8873 11.9742C3.11107 13.3681 4.8247 14.2371 6.67233 14.4007C8.51997 14.5643 10.3596 14.01 11.8093 12.8529L14.735 15.8056C14.7978 15.8678 14.8723 15.917 14.9542 15.9504C15.0362 15.9837 15.1239 16.0006 15.2123 15.9999C15.3943 15.9959 15.5688 15.927 15.7044 15.8056C15.8325 15.6792 15.9052 15.5072 15.9066 15.3273C15.908 15.1474 15.8379 14.9742 15.7118 14.8459H15.7118ZM1.44047 7.21816C1.43853 6.05331 1.78242 4.9141 2.42856 3.94489C3.07471 2.97567 3.99402 2.22009 5.07002 1.77387C6.14602 1.32765 7.33026 1.21089 8.47268 1.43838C9.6151 1.66587 10.6643 2.22738 11.4873 3.05174C12.3102 3.8761 12.87 4.92622 13.0956 6.06902C13.3211 7.21182 13.2024 8.39586 12.7544 9.47111C12.3064 10.5464 11.5492 11.4644 10.5789 12.1089C9.60865 12.7534 8.46886 13.0954 7.30402 13.0915C5.7467 13.0902 4.25354 12.471 3.15235 11.3698C2.05116 10.2686 1.43194 8.77548 1.43063 7.21816H1.44047Z" fill="#EBC874"/>
</g>
<defs>
<clipPath id="clip0_2123_501">
<rect width="16" height="16" fill="white"/>
</clipPath>
</defs>
</svg>
