<svg width="18" height="18" viewBox="0 0 18 18" fill="none" xmlns="http://www.w3.org/2000/svg">
<g id="&#229;&#184;&#130;&#229;&#156;&#186;_&#233;&#157;&#162;">
<path id="Vector" d="M8.99999 1.43994C10.7321 1.43994 12.1722 2.7068 12.465 4.37525C13.6112 4.39621 14.5608 5.27698 14.6864 6.42519L14.6948 6.52161L15.2945 14.9058C15.381 16.176 14.4339 17.2769 13.179 17.3645L13.1009 17.3687L13.0223 17.3699H4.97724C3.71976 17.3699 2.7 16.3378 2.7 15.0643L2.70126 14.9846L2.70546 14.9058L3.30522 6.52161C3.38502 5.34447 4.32834 4.42388 5.48292 4.37651L5.53457 4.37525L5.55515 4.26919C5.88905 2.65356 7.30445 1.43994 8.99999 1.43994ZM7.52999 7.30889C7.36291 7.30889 7.20266 7.37514 7.08451 7.49306C6.96637 7.61099 6.89999 7.77093 6.89999 7.9377C6.89999 8.10448 6.96637 8.26442 7.08451 8.38234C7.20266 8.50027 7.36291 8.56652 7.52999 8.56652C7.69708 8.56652 7.85732 8.50027 7.97547 8.38234C8.09361 8.26442 8.15999 8.10448 8.15999 7.9377C8.15999 7.77093 8.09361 7.61099 7.97547 7.49306C7.85732 7.37514 7.69708 7.30889 7.52999 7.30889ZM10.47 7.30889C10.3029 7.30889 10.1427 7.37514 10.0245 7.49306C9.90636 7.61099 9.83999 7.77093 9.83999 7.9377C9.83999 8.10448 9.90636 8.26442 10.0245 8.38234C10.1427 8.50027 10.3029 8.56652 10.47 8.56652C10.6371 8.56652 10.7973 8.50027 10.9155 8.38234C11.0336 8.26442 11.1 8.10448 11.1 7.9377C11.1 7.77093 11.0336 7.61099 10.9155 7.49306C10.7973 7.37514 10.6371 7.30889 10.47 7.30889ZM8.99999 2.69757C7.95755 2.69757 7.07849 3.40688 6.80843 4.37442H11.1915C10.9215 3.40688 10.0424 2.69757 8.99999 2.69757Z" fill="#9C7B58"/>
</g>
</svg>
