<svg width="44" height="32" viewBox="0 0 44 32" fill="none" xmlns="http://www.w3.org/2000/svg">
<g id="Mask group">
<mask id="mask0_246_228" style="mask-type:alpha" maskUnits="userSpaceOnUse" x="0" y="0" width="44" height="32">
<rect id="Rectangle 80" width="44" height="32" fill="#D9D9D9"/>
</mask>
<g mask="url(#mask0_246_228)">
<g id="Group 81">
<path id="Vector 9" d="M19.936 5.5L16.936 5L10.936 6.5L6.93604 9V12L9.93604 14V27H25.436L25.936 24V21V16.5C25.936 16.1 26.2694 15 26.436 14.5L27.436 13L28.436 11C28.2694 10.3333 27.936 8.9 27.936 8.5C27.936 8 26.436 7.5 26.436 7C26.436 6.5 23.436 6 22.936 6C22.536 6 20.7694 5.66667 19.936 5.5Z" fill="#F6D499"/>
<path id="Vector 10" d="M29.436 5.5L25.436 5L26.436 7L28.436 9.5L27.936 12.5L25.936 14V27H33.936V15.5L34.436 13.5L35.936 12.5L36.436 10.5L35.936 9L33.936 7L29.436 5.5Z" fill="#E6B05D"/>
<path id="Vector" d="M14.436 13C14.436 13.3978 14.5941 13.7794 14.8754 14.0607C15.1567 14.342 15.5382 14.5 15.936 14.5C16.3339 14.5 16.7154 14.342 16.9967 14.0607C17.278 13.7794 17.436 13.3978 17.436 13C17.436 12.6022 17.278 12.2206 16.9967 11.9393C16.7154 11.658 16.3339 11.5 15.936 11.5C15.5382 11.5 15.1567 11.658 14.8754 11.9393C14.5941 12.2206 14.436 12.6022 14.436 13Z" fill="#E6B05D"/>
<path id="Vector_2" d="M18.436 22C18.436 22.3978 18.5941 22.7794 18.8754 23.0607C19.1567 23.342 19.5382 23.5 19.936 23.5C20.3339 23.5 20.7154 23.342 20.9967 23.0607C21.278 22.7794 21.436 22.3978 21.436 22C21.436 21.6022 21.278 21.2206 20.9967 20.9393C20.7154 20.658 20.3339 20.5 19.936 20.5C19.5382 20.5 19.1567 20.658 18.8754 20.9393C18.5941 21.2206 18.436 21.6022 18.436 22Z" fill="#E6B05D"/>
<path id="Vector_3" d="M15.936 11C14.833 11 13.936 11.897 13.936 13C13.936 14.103 14.833 15 15.936 15C17.039 15 17.936 14.103 17.936 13C17.936 11.897 17.039 11 15.936 11ZM15.936 14C15.6786 13.9885 15.4354 13.8781 15.2573 13.6918C15.0792 13.5055 14.9798 13.2577 14.9798 13C14.9798 12.7423 15.0792 12.4945 15.2573 12.3082C15.4354 12.1219 15.6786 12.0115 15.936 12C16.1935 12.0115 16.4366 12.1219 16.6148 12.3082C16.7929 12.4945 16.8923 12.7423 16.8923 13C16.8923 13.2577 16.7929 13.5055 16.6148 13.6918C16.4366 13.8781 16.1935 13.9885 15.936 14ZM19.936 20C18.833 20 17.936 20.897 17.936 22C17.936 23.103 18.833 24 19.936 24C21.039 24 21.936 23.103 21.936 22C21.936 20.897 21.039 20 19.936 20ZM19.936 23C19.6786 22.9885 19.4354 22.8781 19.2573 22.6918C19.0792 22.5055 18.9798 22.2577 18.9798 22C18.9798 21.7423 19.0792 21.4945 19.2573 21.3082C19.4354 21.1219 19.6786 21.0115 19.936 21C20.1935 21.0115 20.4366 21.1219 20.6148 21.3082C20.7929 21.4945 20.8923 21.7423 20.8923 22C20.8923 22.2577 20.7929 22.5055 20.6148 22.6918C20.4366 22.8781 20.1935 22.9885 19.936 23Z" fill="#E6B05D"/>
<path id="Vector_4" d="M20.936 16C20.936 16.2652 21.0414 16.5196 21.2289 16.7071C21.4165 16.8946 21.6708 17 21.936 17C22.2013 17 22.4556 16.8946 22.6431 16.7071C22.8307 16.5196 22.936 16.2652 22.936 16C22.936 15.7348 22.8307 15.4804 22.6431 15.2929C22.4556 15.1054 22.2013 15 21.936 15C21.6708 15 21.4165 15.1054 21.2289 15.2929C21.0414 15.4804 20.936 15.7348 20.936 16Z" fill="#E6B05D"/>
<path id="Vector_5" d="M12.936 21C12.936 21.2652 13.0414 21.5196 13.2289 21.7071C13.4165 21.8946 13.6708 22 13.936 22C14.2013 22 14.4556 21.8946 14.6431 21.7071C14.8307 21.5196 14.936 21.2652 14.936 21C14.936 20.7348 14.8307 20.4804 14.6431 20.2929C14.4556 20.1054 14.2013 20 13.936 20C13.6708 20 13.4165 20.1054 13.2289 20.2929C13.0414 20.4804 12.936 20.7348 12.936 21Z" fill="#E6B05D"/>
<path id="Vector_6" d="M25.87 4H17.87C11.103 4 6 6.784 6 10.476C6 11.676 6.527 13.345 8.936 14.696V27C8.936 27.2652 9.04136 27.5196 9.22889 27.7071C9.41643 27.8946 9.67078 28 9.936 28H33.936C34.2012 28 34.4556 27.8946 34.6431 27.7071C34.8306 27.5196 34.936 27.2652 34.936 27V14.695C37.321 13.354 37.842 11.681 37.842 10.475C37.842 6.846 32.583 4 25.87 4ZM25.501 13.188C25.3318 13.2698 25.189 13.3976 25.0891 13.5567C24.9891 13.7159 24.9361 13.9 24.936 14.088V26H10.936V14.089C10.9361 13.9009 10.8831 13.7165 10.7832 13.5572C10.6833 13.3978 10.5404 13.2698 10.371 13.188C9.29 12.667 8.001 11.773 8.001 10.476C8 8.314 11.966 6 17.869 6C23.746 6 27.841 8.359 27.841 10.476C27.841 11.526 27.054 12.439 25.501 13.188ZM33.501 13.188C33.3318 13.2698 33.189 13.3976 33.0891 13.5567C32.9891 13.7159 32.9361 13.9 32.936 14.088V26H26.936V14.695C29.321 13.354 29.842 11.681 29.842 10.475C29.842 8.731 28.619 7.172 26.612 6.019C32.086 6.209 35.842 8.449 35.842 10.476C35.842 11.526 35.055 12.439 33.502 13.188H33.501Z" fill="#5E4D2C"/>
</g>
</g>
</g>
</svg>
