<svg width="44" height="32" viewBox="0 0 44 32" fill="none" xmlns="http://www.w3.org/2000/svg">
<g id="Mask group">
<mask id="mask0_203_557" style="mask-type:alpha" maskUnits="userSpaceOnUse" x="0" y="0" width="44" height="32">
<rect id="Rectangle 81" width="44" height="32" fill="#D9D9D9"/>
</mask>
<g mask="url(#mask0_203_557)">
<g id="Group 78">
<path id="Vector" d="M25.375 27H15.625L14 15H27L25.375 27Z" fill="#82C0CF"/>
<circle id="Ellipse 10" cx="28.1152" cy="8.82715" r="3.38477" fill="#F8F2BF"/>
<path id="Vector_2" d="M17 17.5C17 17.6326 17.1054 17.7598 17.2929 17.8536C17.4804 17.9473 17.7348 18 18 18C18.2652 18 18.5196 17.9473 18.7071 17.8536C18.8946 17.7598 19 17.6326 19 17.5C19 17.3674 18.8946 17.2402 18.7071 17.1464C18.5196 17.0527 18.2652 17 18 17C17.7348 17 17.4804 17.0527 17.2929 17.1464C17.1054 17.2402 17 17.3674 17 17.5Z" fill="#A2D8E4"/>
<path id="Vector_3" d="M20 20.5C20 20.6326 20.0527 20.7598 20.1464 20.8536C20.2402 20.9473 20.3674 21 20.5 21C20.6326 21 20.7598 20.9473 20.8536 20.8536C20.9473 20.7598 21 20.6326 21 20.5C21 20.3674 20.9473 20.2402 20.8536 20.1464C20.7598 20.0527 20.6326 20 20.5 20C20.3674 20 20.2402 20.0527 20.1464 20.1464C20.0527 20.2402 20 20.3674 20 20.5Z" fill="#A2D8E4"/>
<path id="Vector 11" d="M27 10H14L14.5 15H26L27 10Z" fill="#C4DBE0"/>
<path id="Vector_4" d="M18 23C18 23.2652 18.1054 23.5196 18.2929 23.7071C18.4804 23.8946 18.7348 24 19 24C19.2652 24 19.5196 23.8946 19.7071 23.7071C19.8946 23.5196 20 23.2652 20 23C20 22.7348 19.8946 22.4804 19.7071 22.2929C19.5196 22.1054 19.2652 22 19 22C18.7348 22 18.4804 22.1054 18.2929 22.2929C18.1054 22.4804 18 22.7348 18 23Z" fill="#A2D8E4"/>
<path id="Vector_5" d="M21 23.5C21 23.6326 21.1054 23.7598 21.2929 23.8536C21.4804 23.9473 21.7348 24 22 24C22.2652 24 22.5196 23.9473 22.7071 23.8536C22.8946 23.7598 23 23.6326 23 23.5C23 23.3674 22.8946 23.2402 22.7071 23.1464C22.5196 23.0527 22.2652 23 22 23C21.7348 23 21.4804 23.0527 21.2929 23.1464C21.1054 23.2402 21 23.3674 21 23.5Z" fill="#A2D8E4"/>
<path id="Vector_6" d="M22 18.5C22 18.6326 22.1054 18.7598 22.2929 18.8536C22.4804 18.9473 22.7348 19 23 19C23.2652 19 23.5196 18.9473 23.7071 18.8536C23.8946 18.7598 24 18.6326 24 18.5C24 18.3674 23.8946 18.2402 23.7071 18.1464C23.5196 18.0527 23.2652 18 23 18C22.7348 18 22.4804 18.0527 22.2929 18.1464C22.1054 18.2402 22 18.3674 22 18.5Z" fill="#A2D8E4"/>
<path id="Vector_7" d="M12.4515 5.53115L15.8194 6.9303V8.7897H13.5079C13.3978 8.78955 13.2891 8.8139 13.1889 8.86112C13.0887 8.90833 12.9994 8.97731 12.927 9.0634C12.8547 9.1495 12.8009 9.25071 12.7694 9.36021C12.7379 9.46971 12.7293 9.58496 12.7443 9.69818L15.0558 27.3076C15.1082 27.7038 15.4341 28 15.8194 28H25.0654C25.4507 28 25.7766 27.7038 25.829 27.3076L27.7391 12.7582C27.8747 12.7734 28.0103 12.7918 28.1475 12.7918C30.2718 12.7918 32 10.9965 32 8.7897C32 6.58291 30.2718 4.78755 28.1475 4.78755C26.0232 4.78755 24.2949 6.58291 24.2949 8.7897H17.3604V6.38841C17.3604 6.22833 17.3143 6.07191 17.2279 5.93935C17.1415 5.8068 17.0188 5.7042 16.8757 5.64481L13.0232 4.04395C12.8359 3.97668 12.6308 3.98694 12.4505 4.07259C12.2702 4.15824 12.1286 4.31271 12.0551 4.50394C11.9815 4.69517 11.9817 4.90847 12.0555 5.09959C12.1293 5.29071 12.2711 5.44577 12.4515 5.53115ZM14.3909 10.3906H15.8194V14.3927H14.9156L14.3909 10.3906ZM28.1475 11.9914C28.045 11.9914 27.9441 11.977 27.8431 11.9666L28.1267 9.80544L28.9311 11.8737C28.6759 11.9482 28.4125 11.9878 28.1475 11.9914ZM29.6446 11.5704L28.8533 9.5357L30.7996 10.3938C30.5223 10.8858 30.1235 11.292 29.6446 11.5704ZM31.1162 7.97486C31.1825 8.2374 31.2295 8.50634 31.2295 8.7897C31.2295 9.09226 31.1756 9.37881 31.1 9.65656L29.1545 8.7985L31.1162 7.97486ZM30.825 7.23446L28.864 8.0573L29.6908 6.03462C30.1644 6.32267 30.5555 6.73688 30.8234 7.23446H30.825ZM28.1475 5.58798C28.4387 5.58798 28.7153 5.64401 28.9827 5.72245L28.1567 7.74353L27.3631 5.70564C27.6185 5.63109 27.8822 5.59154 28.1475 5.58798ZM26.6504 6.009L27.4417 8.0437L25.4954 7.18564C25.7727 6.69359 26.1714 6.28738 26.6504 6.009ZM25.1941 7.92283L27.1612 8.7897H25.0654C25.0654 8.48713 25.1186 8.20058 25.1941 7.92283ZM17.3604 10.3906H26.494L25.9693 14.3927H17.3604V10.3906ZM25.8637 15.1931L24.392 26.3991H16.4928L15.0211 15.1931H25.8637Z" fill="#5E4D2C"/>
</g>
</g>
</g>
</svg>
