<svg width="24" height="24" viewBox="0 0 24 24" fill="none" xmlns="http://www.w3.org/2000/svg">
<g id="&#229;&#144;&#145;&#229;&#143;&#179; 1">
<path id="Vector" d="M13.368 1.104C14.04 1.104 14.492 1.268 14.724 1.596C14.956 1.924 15.072 2.44 15.072 3.144C15.072 3.464 15.068 3.968 15.06 4.656C15.052 5.344 15.048 6.076 15.048 6.852C15.048 7.628 15.044 8.384 15.036 9.12C15.028 9.856 15.024 10.44 15.024 10.872C15.008 11.48 15.06 11.96 15.18 12.312C15.3 12.664 15.576 12.84 16.008 12.84C16.328 12.84 16.708 12.852 17.148 12.876C17.588 12.9 17.968 12.912 18.288 12.912C18.848 12.928 19.204 13.088 19.356 13.392C19.508 13.696 19.392 14.08 19.008 14.544C18.624 15.024 18.168 15.584 17.64 16.224C17.112 16.864 16.572 17.528 16.02 18.216C15.468 18.904 14.924 19.576 14.388 20.232C13.852 20.888 13.384 21.472 12.984 21.984C12.6 22.448 12.236 22.684 11.892 22.692C11.548 22.7 11.192 22.48 10.824 22.032C10.44 21.568 10 21.02 9.504 20.388C9.008 19.756 8.496 19.1 7.968 18.42C7.44 17.74 6.916 17.072 6.396 16.416C5.876 15.76 5.416 15.176 5.016 14.664C4.568 14.104 4.4 13.644 4.512 13.284C4.624 12.924 4.968 12.752 5.544 12.768L6.12 12.768L6.816 12.768C7.056 12.768 7.292 12.764 7.524 12.756C7.756 12.748 7.968 12.744 8.16 12.744C8.56 12.744 8.812 12.624 8.916 12.384C9.02 12.144 9.072 11.816 9.072 11.4C9.072 10.936 9.076 10.328 9.084 9.576C9.092 8.824 9.096 8.04 9.096 7.224C9.096 6.408 9.1 5.616 9.108 4.848C9.116 4.08 9.12 3.456 9.12 2.976C9.12 2.768 9.14 2.552 9.18 2.328C9.22 2.104 9.296 1.9 9.408 1.716C9.52 1.532 9.684 1.384 9.9 1.272C10.116 1.16 10.408 1.104 10.776 1.104C11.208 1.104 11.624 1.1 12.024 1.092C12.424 1.084 12.872 1.088 13.368 1.104Z" fill="#565F4E" fill-opacity="0.8"/>
</g>
</svg>
