<svg width="20" height="20" viewBox="0 0 20 20" fill="none" xmlns="http://www.w3.org/2000/svg">
<path d="M17.4654 11.5671C16.9494 9.60612 16.0425 8.54831 13.7293 6.78855C13.617 6.70261 13.4004 6.5864 13.0406 6.40573L12.982 6.37683L12.9765 6.37429C13.1935 6.14187 13.3984 5.89851 13.5904 5.64499C13.8197 5.34167 14.197 4.69206 14.2728 4.40554L14.2818 4.36335C14.4256 3.56706 14.3291 3.1446 13.7812 2.67058C13.1496 2.12429 12.555 2.1155 11.6564 2.46042C10.6677 1.69343 9.26794 1.67937 8.26638 2.42253L8.11462 2.36843C8.01169 2.33308 7.91735 2.3028 7.82575 2.27741C7.52849 2.1946 7.28415 2.16316 7.05407 2.21159C6.15173 2.40163 5.52087 2.98366 5.65485 4.06413C5.7527 4.85144 6.03395 5.37097 6.66169 6.08386C6.70974 6.13796 6.75876 6.18562 6.95368 6.36472C4.36345 7.83152 2.28493 10.5128 2.10544 13.1214C2.03063 14.2061 2.05524 15.076 2.23942 15.8073C2.59665 17.2264 3.95837 18.1284 5.5152 18.1249C6.66286 18.1219 7.80095 18.1216 9.46579 18.1219C11.1125 18.1235 12.7593 18.1233 14.406 18.121C15.5785 18.1188 16.742 17.5694 17.3578 16.6526C17.6427 16.2284 17.7441 15.8464 17.867 15.0493C18.0252 14.019 17.9049 13.2366 17.4654 11.5671ZM12.209 13.6749L10.467 15.4169C10.4591 15.4257 10.4511 15.4342 10.4427 15.4426C10.3211 15.5643 10.1607 15.6251 10.0004 15.6249H9.99958C9.83923 15.6251 9.67888 15.5641 9.5572 15.4426C9.5488 15.4342 9.54079 15.4257 9.53298 15.4169L7.79099 13.6749C7.54782 13.4317 7.54782 13.0341 7.79099 12.7911C8.03415 12.5479 8.43181 12.5479 8.67477 12.7911L9.37497 13.4911V9.99988C9.37497 9.65612 9.65622 9.37488 9.99997 9.37488C10.3437 9.37488 10.625 9.65612 10.625 9.99988V13.4911L11.325 12.7911C11.5681 12.5479 11.9658 12.5479 12.2088 12.7911C12.4519 13.0341 12.4519 13.4317 12.209 13.6749Z" fill="white" fill-opacity="0.4"/>
</svg>
