<svg width="20" height="20" viewBox="0 0 20 20" fill="none" xmlns="http://www.w3.org/2000/svg">
<g id="&#230;&#143;&#144;&#233;&#134;&#146;-&#229;&#161;&#171;&#229;&#133;&#133; 1">
<path id="Vector" d="M15.7812 13.9062L14.8437 11.7812V8.75C14.8437 6.75 13.5625 4.9375 11.7187 4.21875C11.6562 3.34375 10.9062 2.65625 9.99998 2.65625C9.09373 2.65625 8.37498 3.34375 8.28123 4.21875C6.40623 4.9375 5.15623 6.75 5.15623 8.75V11.7812L4.21873 13.9062C4.09373 14.1875 4.12498 14.5 4.28123 14.75C4.43748 15 4.71873 15.1562 5.03123 15.1562H14.9687C15.2812 15.1562 15.5625 15 15.7187 14.75C15.875 14.5 15.9062 14.1562 15.7812 13.9062ZM9.99998 17.1875C10.875 17.1875 11.5625 16.5 11.5625 15.625H8.43748C8.43748 16.5 9.12498 17.1875 9.99998 17.1875Z" fill="white" fill-opacity="0.4"/>
</g>
</svg>
