<svg width="20" height="20" viewBox="0 0 20 20" fill="none" xmlns="http://www.w3.org/2000/svg">
<g id="&#229;&#141;&#150;&#229;&#135;&#186;">
<path id="Vector" d="M17.4654 11.5671C16.9494 9.60612 16.0425 8.54831 13.7293 6.78855C13.617 6.70261 13.4004 6.5864 13.0406 6.40573L12.982 6.37683L12.9765 6.37429C13.1935 6.14187 13.3984 5.89851 13.5904 5.64499C13.8197 5.34167 14.197 4.69206 14.2728 4.40554L14.2818 4.36335C14.4256 3.56706 14.3291 3.1446 13.7812 2.67058C13.1496 2.12429 12.555 2.1155 11.6564 2.46042C10.6677 1.69343 9.26794 1.67937 8.26638 2.42253L8.11462 2.36843C8.01169 2.33308 7.91735 2.3028 7.82575 2.27741C7.52849 2.1946 7.28415 2.16316 7.05407 2.21159C6.15173 2.40163 5.52087 2.98366 5.65485 4.06413C5.7527 4.85144 6.03395 5.37097 6.66169 6.08386C6.70974 6.13796 6.75876 6.18562 6.95368 6.36472C4.36345 7.83152 2.28493 10.5128 2.10544 13.1214C2.03063 14.2061 2.05524 15.076 2.23942 15.8073C2.59665 17.2264 3.95837 18.1284 5.5152 18.1249C6.66286 18.1219 7.80095 18.1216 9.46579 18.1219C11.1125 18.1235 12.7593 18.1233 14.406 18.121C15.5785 18.1188 16.742 17.5694 17.3578 16.6526C17.6427 16.2284 17.7441 15.8464 17.867 15.0493C18.0252 14.019 17.9049 13.2366 17.4654 11.5671ZM12.209 12.2089C11.9658 12.452 11.5681 12.452 11.3252 12.2089L10.625 11.5087V14.9999C10.625 15.3436 10.3437 15.6249 9.99997 15.6249C9.65622 15.6249 9.37497 15.3436 9.37497 14.9999V11.5087L8.67497 12.2087C8.43181 12.4518 8.03415 12.4518 7.79118 12.2087C7.54802 11.9655 7.54802 11.5678 7.79118 11.3249L9.53317 9.58288C9.54099 9.57409 9.54899 9.5655 9.55739 9.5571C9.67907 9.43542 9.83942 9.37468 9.99977 9.37488H10.0006C10.1609 9.37468 10.3213 9.43562 10.4429 9.5571C10.4513 9.5655 10.4593 9.57409 10.4672 9.58288L12.2091 11.3249C12.4519 11.568 12.4519 11.9657 12.209 12.2089Z" fill="white" fill-opacity="0.4"/>
</g>
</svg>
