<svg width="20" height="20" viewBox="0 0 20 20" fill="none" xmlns="http://www.w3.org/2000/svg">
<g id="&#230;&#151;&#133;&#232;&#161;&#140;&#231;&#174;&#177; 1">
<path id="Vector" d="M14.1666 18.1252C14.1666 18.4014 14.0569 18.6664 13.8615 18.8617C13.6662 19.0571 13.4012 19.1668 13.125 19.1668C12.8487 19.1668 12.5838 19.0571 12.3884 18.8617C12.1931 18.6664 12.0833 18.4014 12.0833 18.1252V17.5002H7.91665V18.1252C7.91665 18.4014 7.8069 18.6664 7.61155 18.8617C7.4162 19.0571 7.15125 19.1668 6.87498 19.1668C6.59871 19.1668 6.33376 19.0571 6.13841 18.8617C5.94306 18.6664 5.83331 18.4014 5.83331 18.1252V17.5002H4.99998C4.55795 17.5002 4.13403 17.3246 3.82147 17.012C3.50891 16.6994 3.33331 16.2755 3.33331 15.8335V5.41683C3.33331 4.9748 3.50891 4.55088 3.82147 4.23832C4.13403 3.92576 4.55795 3.75016 4.99998 3.75016H5.83331V2.0835C5.83333 1.77276 5.94908 1.47317 6.158 1.24315C6.36691 1.01312 6.65401 0.86916 6.96331 0.839329L7.08331 0.833496H12.9166C13.2482 0.833496 13.5661 0.965192 13.8005 1.19961C14.035 1.43403 14.1666 1.75198 14.1666 2.0835V3.75016H15C15.442 3.75016 15.8659 3.92576 16.1785 4.23832C16.4911 4.55088 16.6666 4.9748 16.6666 5.41683V15.8335C16.6666 16.2755 16.4911 16.6994 16.1785 17.012C15.8659 17.3246 15.442 17.5002 15 17.5002H14.1666V18.1252ZM7.49998 7.0835C7.29587 7.08352 7.09887 7.15846 6.94634 7.29409C6.79381 7.42973 6.69636 7.61662 6.67248 7.81933L6.66665 7.91683V13.7502C6.66688 13.9626 6.74821 14.1669 6.89402 14.3213C7.03983 14.4757 7.23911 14.5687 7.45114 14.5811C7.66318 14.5936 7.87196 14.5246 8.03484 14.3883C8.19772 14.252 8.30239 14.0586 8.32748 13.8477L8.33331 13.7502V7.91683C8.33331 7.69582 8.24552 7.48385 8.08924 7.32757C7.93295 7.17129 7.72099 7.0835 7.49998 7.0835ZM12.5 7.0835C12.2959 7.08352 12.0989 7.15846 11.9463 7.29409C11.7938 7.42973 11.6964 7.61662 11.6725 7.81933L11.6666 7.91683V13.7502C11.6669 13.9626 11.7482 14.1669 11.894 14.3213C12.0398 14.4757 12.2391 14.5687 12.4511 14.5811C12.6632 14.5936 12.872 14.5246 13.0348 14.3883C13.1977 14.252 13.3024 14.0586 13.3275 13.8477L13.3333 13.7502V7.91683C13.3333 7.69582 13.2455 7.48385 13.0892 7.32757C12.933 7.17129 12.721 7.0835 12.5 7.0835ZM12.5 2.50016H7.49998V3.75016H12.5V2.50016Z" fill="white" fill-opacity="0.4"/>
</g>
</svg>
